G04*
G04 #@! TF.GenerationSoftware,Altium Limited,Altium Designer,19.0.14 (431)*
G04*
G04 Layer_Physical_Order=1*
G04 Layer_Color=255*
%FSLAX25Y25*%
%MOIN*%
G70*
G01*
G75*
%ADD11C,0.01000*%
%ADD12C,0.00787*%
%ADD18C,0.00800*%
%ADD19R,0.02756X0.05906*%
%ADD20R,0.03937X0.04528*%
%ADD21O,0.08661X0.02362*%
%ADD22R,0.07480X0.05118*%
%ADD23R,0.22047X0.08268*%
%ADD24R,0.02284X0.08032*%
%ADD25R,0.01378X0.01181*%
%ADD26R,0.01181X0.01378*%
%ADD27R,0.03051X0.00984*%
%ADD28R,0.00984X0.03051*%
%ADD29R,0.04764X0.02323*%
%ADD30O,0.05118X0.01181*%
%ADD31O,0.01181X0.05118*%
%ADD32R,0.03543X0.03937*%
%ADD33R,0.03937X0.03543*%
%ADD34R,0.04528X0.03937*%
%ADD35R,0.03543X0.04134*%
%ADD36R,0.04134X0.03543*%
%ADD37R,0.04134X0.06693*%
%ADD38R,0.06693X0.04134*%
%ADD39R,0.04803X0.03602*%
%ADD40R,0.04134X0.04724*%
%ADD41R,0.04724X0.04134*%
%ADD42R,0.07480X0.06102*%
%ADD43R,0.04921X0.04331*%
%ADD44R,0.07874X0.06102*%
%ADD45R,0.02559X0.04724*%
%ADD46R,0.13189X0.04921*%
%ADD82C,0.10900*%
%ADD83C,0.00600*%
%ADD84C,0.00700*%
%ADD85C,0.06299*%
%ADD86R,0.06299X0.06299*%
%ADD87C,0.06000*%
%ADD88C,0.06693*%
%ADD89R,0.06693X0.06693*%
%ADD90C,0.05906*%
%ADD91R,0.05906X0.05906*%
%ADD92C,0.02550*%
G36*
X143132Y17416D02*
X142086Y17363D01*
Y18070D01*
X143132Y18016D01*
Y17416D01*
D02*
G37*
G36*
X173550Y68350D02*
X173850Y68050D01*
X171850D01*
X172050Y69850D01*
X173550Y68350D01*
D02*
G37*
G36*
X175450Y66950D02*
X173950Y68450D01*
X173650Y68750D01*
X175650D01*
X175450Y66950D01*
D02*
G37*
G36*
X129943Y116334D02*
X128897Y116280D01*
Y116988D01*
X129943Y116934D01*
Y116334D01*
D02*
G37*
G36*
X166826Y98538D02*
X166226Y97938D01*
Y97338D01*
X166826Y96738D01*
X167426Y97638D01*
D01*
X166826Y98538D01*
D02*
G37*
G36*
X205194Y86127D02*
X206241Y86181D01*
Y85473D01*
X205194Y85527D01*
Y86127D01*
D02*
G37*
D11*
X372400Y34600D02*
Y83900D01*
X349100Y10800D02*
X372300Y34000D01*
Y34600D01*
X334300Y10800D02*
X349100D01*
X329600Y15500D02*
X334300Y10800D01*
X329600Y15500D02*
Y26400D01*
X326100Y29900D02*
X329600Y26400D01*
X322400Y29900D02*
X326100D01*
X316100Y36200D02*
X322400Y29900D01*
X316100Y36200D02*
Y45100D01*
X355500Y52800D02*
X365600D01*
X367700Y54900D01*
Y59910D01*
X315761Y63239D02*
X316000Y63000D01*
X347200Y74125D02*
X347875D01*
X342200D02*
X347200D01*
X347875D02*
X348500Y73500D01*
X332700Y141200D02*
X340000Y133900D01*
X304035Y141200D02*
X332700D01*
X302985Y142015D02*
X303700Y141300D01*
X291579Y142015D02*
X302985D01*
X316100Y45686D02*
X324514D01*
X369812Y86488D02*
X372400Y83900D01*
X367350Y86488D02*
X369812D01*
X366929Y86910D02*
X367350Y86488D01*
X354400Y111286D02*
Y112700D01*
X366929Y86910D02*
Y100271D01*
X356072Y111128D02*
X366929Y100271D01*
X354658Y111128D02*
X356072D01*
X354400Y111386D02*
X354658Y111128D01*
X311400Y101300D02*
Y118800D01*
Y101300D02*
X336122Y76578D01*
X336322D01*
X336400Y76500D01*
Y76300D02*
Y76500D01*
X298185Y132015D02*
X311400Y118800D01*
X291579Y132015D02*
X298185D01*
X366400Y79900D02*
X366929Y79371D01*
Y66831D02*
Y79371D01*
X297385Y127015D02*
X304900Y119500D01*
X291579Y127015D02*
X297385D01*
X329629Y97744D02*
X338674Y88700D01*
X345228D01*
X324414Y47641D02*
X325472Y46584D01*
X308620Y56400D02*
Y69180D01*
X308600Y69200D02*
X308620Y69180D01*
X315761Y63239D02*
Y68400D01*
X312360Y57300D02*
X312376Y57317D01*
X266500Y116900D02*
Y130900D01*
X272682Y122118D02*
X278200Y116600D01*
X272682Y122118D02*
Y127015D01*
X329334Y97744D02*
X329629D01*
X327866Y99213D02*
X329334Y97744D01*
X327866Y99213D02*
Y99508D01*
X266100Y116500D02*
X266500Y116900D01*
Y130900D02*
X267615Y132015D01*
X272682D01*
X265655Y110555D02*
X265800Y110700D01*
X255900Y110555D02*
X265655D01*
X263200Y137100D02*
X270600D01*
X270900Y137400D01*
X256299Y130199D02*
X263200Y137100D01*
X295902Y99177D02*
X304823Y90256D01*
X256299Y117520D02*
Y130199D01*
X295902Y99177D02*
Y115751D01*
X285749Y125905D02*
X295902Y115751D01*
X276300Y141900D02*
X280100D01*
X285749Y136251D01*
Y125905D02*
Y136251D01*
X327024Y107376D02*
X328844D01*
X304035Y130365D02*
X327024Y107376D01*
X304035Y130365D02*
Y134507D01*
Y134802D01*
X302468Y136369D02*
X304035Y134802D01*
X302173Y136369D02*
X302468D01*
X301527Y137015D02*
X302173Y136369D01*
X291579Y137015D02*
X301527D01*
X76575Y73917D02*
X83957D01*
X286980Y60379D02*
X288100Y61500D01*
X286980Y57058D02*
Y60379D01*
X284244Y54323D02*
X286980Y57058D01*
X283949Y54323D02*
X284244D01*
X282677Y53051D02*
X283949Y54323D01*
X282677Y52756D02*
Y53051D01*
X43602Y107874D02*
X44094Y107382D01*
X105118Y104331D02*
X107874Y101575D01*
X64468Y103740D02*
X64961Y103248D01*
X206594Y85827D02*
Y93504D01*
X62992Y125394D02*
X82657D01*
X62697D02*
X62992D01*
X143405Y15157D02*
X144488D01*
X139764Y28346D02*
X141535Y26575D01*
X141732Y17717D02*
Y26673D01*
X47047Y25098D02*
X48327Y23819D01*
X48433Y24106D02*
X63984D01*
X209646Y116000D02*
X216500D01*
X200681Y107035D02*
X209646Y116000D01*
X200681Y106685D02*
Y107035D01*
X199016Y105020D02*
X200681Y106685D01*
X198721Y105020D02*
X199016D01*
X220768Y85827D02*
X221260Y86319D01*
X213287Y85827D02*
X220768D01*
X32677Y129921D02*
X42323D01*
X112008Y12205D02*
X112205Y12402D01*
X92815Y27559D02*
X97047D01*
X92520Y27264D02*
X92815Y27559D01*
X42136Y35502D02*
Y44282D01*
X242913Y123622D02*
X255906Y110630D01*
X242913Y123622D02*
Y137008D01*
X234646Y145276D02*
X242913Y137008D01*
X102539Y145276D02*
X234646D01*
X87185Y129921D02*
X102539Y145276D01*
X107776Y101476D02*
X112992D01*
X94488Y104331D02*
X105118D01*
X133760Y101476D02*
X133858Y101575D01*
X128347Y101476D02*
X133760D01*
X64961Y96850D02*
Y103248D01*
X15748Y116535D02*
X22441D01*
X24409Y114567D01*
X65059Y110728D02*
X75689D01*
X65059D02*
Y119685D01*
X206102Y93996D02*
X206299D01*
X206004D02*
X206102D01*
X275437Y142291D02*
X275556D01*
X143405Y10138D02*
Y15157D01*
X143110D02*
X143405D01*
X144488D02*
X149311Y10335D01*
X177165D01*
X272638Y72441D02*
Y76910D01*
X220079Y93110D02*
X220571Y93602D01*
X213779Y93110D02*
X220079D01*
X135531Y129035D02*
X135728Y129232D01*
X135531Y123425D02*
Y129035D01*
X134055Y101476D02*
X139173D01*
X139370Y101673D01*
X150000Y90650D02*
X152264Y92913D01*
X145866Y90650D02*
X150000D01*
X152461Y102362D02*
X152559Y102461D01*
X157382D01*
X157480Y102362D01*
X229528Y105217D02*
X234744D01*
X212697Y105020D02*
X212795Y105118D01*
X205413Y105020D02*
X212697D01*
X175984Y135827D02*
X176083Y135925D01*
X182972D01*
X175492Y135728D02*
X175591Y135827D01*
X168504Y135728D02*
X175492D01*
X189665Y122638D02*
X190059Y122244D01*
X189665Y122638D02*
Y135925D01*
X161516Y119980D02*
Y135433D01*
X161811Y135728D01*
X62992Y121752D02*
Y125394D01*
X82657D02*
X87185Y129921D01*
X92421Y12205D02*
X92421Y12205D01*
X97047D01*
X48130Y12500D02*
X48228Y12402D01*
X48130Y12500D02*
Y17717D01*
X139862Y6594D02*
X143405Y10138D01*
X79823Y6594D02*
X139862D01*
X65543Y20874D02*
X79823Y6594D01*
X65543Y20874D02*
Y21169D01*
X64075Y22638D02*
X65543Y21169D01*
X63779Y22638D02*
X64075D01*
X71949Y64468D02*
X72047Y64567D01*
Y72067D01*
Y24016D02*
Y33366D01*
X70669Y22638D02*
X72047Y24016D01*
X143592Y42903D02*
X143602D01*
X139764Y39075D02*
X143592Y42903D01*
X139764Y28346D02*
Y39075D01*
X142717Y48524D02*
X143602Y47638D01*
Y42903D02*
Y47638D01*
X146965Y51567D02*
X151575Y56177D01*
X145169Y51567D02*
X146965D01*
X135827Y72244D02*
X136614Y73032D01*
X127657Y72244D02*
X135827D01*
X94488Y92716D02*
X137205D01*
X144102Y85819D01*
X144299D01*
X144685Y85433D01*
Y85236D02*
Y85433D01*
X142717Y48524D02*
X143405D01*
X256693Y56496D02*
X272638Y72441D01*
X201870Y41740D02*
X203240D01*
X201870Y38402D02*
Y41740D01*
Y38402D02*
X208678Y31594D01*
X231988D01*
X201673Y43307D02*
X203240Y41740D01*
X201378Y43307D02*
X201673D01*
X19685Y71181D02*
Y81181D01*
Y70866D02*
Y71181D01*
X15748Y86614D02*
X19685Y82677D01*
X15748Y86614D02*
Y103789D01*
X56398Y129921D02*
X57972Y131496D01*
X62992D01*
X51181Y129921D02*
X56398D01*
X62992Y121752D02*
X65059Y119685D01*
X75689Y110728D02*
X91150Y95268D01*
X91248D01*
X92126Y94390D01*
Y94291D02*
Y94390D01*
X64370Y111417D02*
X65059Y110728D01*
X53917Y111417D02*
X64370D01*
X39961Y114272D02*
X42153Y112079D01*
X42153D01*
X42618Y111614D01*
Y111614D02*
Y111614D01*
X31791Y114272D02*
X39961D01*
X30610Y114567D02*
X30709Y114665D01*
X24409Y114567D02*
X30610D01*
X31988Y107874D02*
X37697D01*
X43602D01*
X42913Y111319D02*
X43307D01*
X112992Y116634D02*
X128051D01*
X128150Y116732D01*
X128543Y116634D02*
X128839Y116929D01*
Y123425D01*
X222835Y110630D02*
X226378Y114173D01*
X222835Y105217D02*
Y110630D01*
X222244Y57185D02*
X222736Y56693D01*
X48819Y105217D02*
Y109646D01*
X47343Y103740D02*
X48819Y105217D01*
X45453Y103740D02*
X47343D01*
X45256Y103937D02*
X45453Y103740D01*
X47047Y111417D02*
X48819Y109646D01*
X44035Y111417D02*
X47047D01*
X44035Y111417D02*
X44035Y111417D01*
X44035Y103937D02*
X45256D01*
X206102Y93996D02*
X206594Y93504D01*
X49193Y82087D02*
X131102D01*
X42520Y75413D02*
X49193Y82087D01*
X42028Y44390D02*
X42136Y44282D01*
X42047Y35413D02*
X42136Y35502D01*
X50453Y78347D02*
X87894D01*
X46909Y74803D02*
X50453Y78347D01*
X46752Y74803D02*
X46909D01*
X76476Y73819D02*
X76575Y73917D01*
X63984Y24106D02*
X64370Y23720D01*
X48130Y24409D02*
X48433Y24106D01*
X47047Y25098D02*
Y35413D01*
X42520Y75295D02*
Y75413D01*
X143602Y50000D02*
X145169Y51567D01*
X143602Y49705D02*
Y50000D01*
X87028Y34468D02*
X88090Y35531D01*
X112205Y12402D02*
Y27559D01*
X222244Y56496D02*
X256693D01*
X304724Y105512D02*
X304823Y105413D01*
Y96850D02*
Y105413D01*
Y89961D02*
Y90256D01*
D12*
X263837Y84071D02*
X265148Y82760D01*
X257071Y84071D02*
X263837D01*
X265148Y82760D02*
X267772D01*
X256496Y84646D02*
X257071Y84071D01*
X267772Y82760D02*
X267854Y82677D01*
D18*
X281102Y78740D02*
X288189Y71653D01*
X277421Y78780D02*
X277461Y78740D01*
X284262Y91962D02*
X286070Y93770D01*
X284253Y91962D02*
X284262D01*
X283433Y91142D02*
X284253Y91962D01*
X283433Y91133D02*
Y91142D01*
X280883Y88583D02*
X283433Y91133D01*
X286070Y93770D02*
Y94830D01*
X277421Y88583D02*
X280883D01*
X224016Y67028D02*
X253445D01*
X288189Y70177D02*
Y71653D01*
X277461Y78740D02*
X281102D01*
X277421D02*
X277461D01*
X277421Y78780D02*
Y80709D01*
X277559Y80571D01*
X265158Y78740D02*
X267854D01*
X253445Y67028D02*
X265158Y78740D01*
D19*
X352200Y74125D02*
D03*
X347200D02*
D03*
X342200D02*
D03*
X337200D02*
D03*
Y52275D02*
D03*
X342200D02*
D03*
X347200D02*
D03*
X352200D02*
D03*
D20*
X266200Y110855D02*
D03*
Y117745D02*
D03*
X255900Y110555D02*
D03*
Y117445D02*
D03*
X177165Y17224D02*
D03*
Y10335D02*
D03*
X87598Y42717D02*
D03*
Y36220D02*
D03*
X175984Y26969D02*
D03*
Y33465D02*
D03*
X367700Y66800D02*
D03*
Y59910D02*
D03*
X327866Y106398D02*
D03*
Y99508D02*
D03*
X324900Y46755D02*
D03*
Y53645D02*
D03*
X366929Y86910D02*
D03*
Y80020D02*
D03*
X304823Y96850D02*
D03*
Y89961D02*
D03*
D21*
X291579Y127015D02*
D03*
Y132015D02*
D03*
Y137015D02*
D03*
Y142015D02*
D03*
X272682Y127015D02*
D03*
Y132015D02*
D03*
Y137015D02*
D03*
Y142015D02*
D03*
D22*
X229134Y115748D02*
D03*
Y137402D02*
D03*
X216535D02*
D03*
Y115748D02*
D03*
D23*
X193996Y120669D02*
D03*
X156595D02*
D03*
D24*
X42047Y72067D02*
D03*
X47047D02*
D03*
X52047D02*
D03*
X57047D02*
D03*
X62047D02*
D03*
X67047D02*
D03*
X72047D02*
D03*
X77047D02*
D03*
Y35413D02*
D03*
X72047D02*
D03*
X67047D02*
D03*
X62047D02*
D03*
X57047D02*
D03*
X52047D02*
D03*
X47047D02*
D03*
X42047D02*
D03*
D25*
X149488Y23622D02*
D03*
Y25591D02*
D03*
Y27559D02*
D03*
X155512D02*
D03*
Y25591D02*
D03*
Y23622D02*
D03*
D26*
X151516Y28602D02*
D03*
X153484D02*
D03*
Y22579D02*
D03*
X151516D02*
D03*
D27*
X277421Y78740D02*
D03*
Y80709D02*
D03*
Y82677D02*
D03*
Y84646D02*
D03*
Y86614D02*
D03*
Y88583D02*
D03*
X267854Y78740D02*
D03*
Y80709D02*
D03*
Y82677D02*
D03*
Y84646D02*
D03*
Y86614D02*
D03*
Y88583D02*
D03*
X277421Y90551D02*
D03*
X267854D02*
D03*
D28*
X272638Y76910D02*
D03*
Y92382D02*
D03*
D29*
X53917Y111417D02*
D03*
Y103937D02*
D03*
X44035D02*
D03*
Y107677D02*
D03*
Y111417D02*
D03*
D30*
X198228Y85827D02*
D03*
Y83858D02*
D03*
Y81890D02*
D03*
Y79921D02*
D03*
Y77953D02*
D03*
Y75984D02*
D03*
Y74016D02*
D03*
Y72047D02*
D03*
Y70079D02*
D03*
Y68110D02*
D03*
Y66142D02*
D03*
Y64173D02*
D03*
Y62205D02*
D03*
Y60236D02*
D03*
Y58268D02*
D03*
Y56299D02*
D03*
X153740D02*
D03*
Y58268D02*
D03*
Y60236D02*
D03*
Y62205D02*
D03*
Y64173D02*
D03*
Y66142D02*
D03*
Y68110D02*
D03*
Y70079D02*
D03*
Y72047D02*
D03*
Y74016D02*
D03*
Y75984D02*
D03*
Y77953D02*
D03*
Y79921D02*
D03*
Y81890D02*
D03*
Y83858D02*
D03*
Y85827D02*
D03*
D31*
X190748Y48819D02*
D03*
X188779D02*
D03*
X186811D02*
D03*
X184843D02*
D03*
X182874D02*
D03*
X180905D02*
D03*
X178937D02*
D03*
X176969D02*
D03*
X175000D02*
D03*
X173031D02*
D03*
X171063D02*
D03*
X169095D02*
D03*
X167126D02*
D03*
X165157D02*
D03*
X163189D02*
D03*
X161221D02*
D03*
Y93307D02*
D03*
X163189D02*
D03*
X165157D02*
D03*
X167126D02*
D03*
X169095D02*
D03*
X171063D02*
D03*
X173031D02*
D03*
X175000D02*
D03*
X176969D02*
D03*
X178937D02*
D03*
X180905D02*
D03*
X182874D02*
D03*
X184843D02*
D03*
X186811D02*
D03*
X188779D02*
D03*
X190748D02*
D03*
D32*
X112992Y101476D02*
D03*
Y116634D02*
D03*
X128347D02*
D03*
Y101476D02*
D03*
D33*
X97047Y12205D02*
D03*
X112205D02*
D03*
Y27559D02*
D03*
X97047D02*
D03*
D34*
X63779Y22638D02*
D03*
X70669D02*
D03*
X162402Y29528D02*
D03*
X168898D02*
D03*
X217520Y67323D02*
D03*
X224016D02*
D03*
X215748Y56496D02*
D03*
X222244D02*
D03*
X223721Y75787D02*
D03*
X216831D02*
D03*
X153937Y41339D02*
D03*
X160433D02*
D03*
X143405Y72933D02*
D03*
X136909D02*
D03*
X137303Y83268D02*
D03*
X130807D02*
D03*
X308610Y69300D02*
D03*
X315500D02*
D03*
D35*
X277165Y52756D02*
D03*
X282677D02*
D03*
D36*
X62992Y131496D02*
D03*
Y125984D02*
D03*
D37*
X288189Y61319D02*
D03*
Y70177D02*
D03*
D38*
X51181Y129921D02*
D03*
X42323D02*
D03*
D39*
X15748Y103789D02*
D03*
Y116683D02*
D03*
D40*
X48130Y17717D02*
D03*
Y24409D02*
D03*
X286900Y94893D02*
D03*
Y88200D02*
D03*
X145866Y90650D02*
D03*
Y83957D02*
D03*
X143602Y56398D02*
D03*
Y49705D02*
D03*
X31791Y107579D02*
D03*
Y114272D02*
D03*
X65059Y110728D02*
D03*
Y104035D02*
D03*
X304035Y134507D02*
D03*
Y141200D02*
D03*
D41*
X134153Y26476D02*
D03*
X140847D02*
D03*
X136909Y15748D02*
D03*
X143602D02*
D03*
X249016Y84153D02*
D03*
X255709D02*
D03*
X146063Y101673D02*
D03*
X139370D02*
D03*
X164173Y102362D02*
D03*
X157480D02*
D03*
X213779Y93110D02*
D03*
X207087D02*
D03*
X213287Y85827D02*
D03*
X206594D02*
D03*
X208071Y43307D02*
D03*
X201378D02*
D03*
X128839Y123425D02*
D03*
X135531D02*
D03*
X161811Y135728D02*
D03*
X168504D02*
D03*
X189665Y135925D02*
D03*
X182972D02*
D03*
D42*
X94488Y104331D02*
D03*
Y92716D02*
D03*
D43*
X198721Y105020D02*
D03*
X205413D02*
D03*
X229528Y105217D02*
D03*
X222835D02*
D03*
D44*
X134153Y39075D02*
D03*
Y51083D02*
D03*
D45*
X316100Y45686D02*
D03*
X308620D02*
D03*
Y57300D02*
D03*
X312360D02*
D03*
X316100D02*
D03*
D46*
X348600Y87389D02*
D03*
Y111011D02*
D03*
D82*
X351775Y52275D02*
X352000Y52500D01*
X342200Y23200D02*
Y52275D01*
X340200Y21200D02*
X342200Y23200D01*
X348563Y73363D02*
Y88912D01*
X342800Y114400D02*
Y132200D01*
X347200Y52275D02*
X351775D01*
X342200D02*
X347200D01*
X337200D02*
X342200D01*
X344666Y112534D02*
X348563D01*
X342800Y114400D02*
X344666Y112534D01*
X348400Y73200D02*
X348563Y73363D01*
D83*
X312360Y61660D02*
X313800Y63100D01*
X315100D01*
X312360Y57300D02*
Y61660D01*
X359000Y63300D02*
X362200Y66500D01*
X366800D01*
X333900Y63300D02*
X359000D01*
X327900Y57300D02*
X333900Y63300D01*
X316100Y57300D02*
X327900D01*
X308620Y56217D02*
X308900Y55937D01*
Y53732D02*
Y55937D01*
Y53732D02*
X310132Y52500D01*
X308700Y13700D02*
Y45600D01*
X299724Y4724D02*
X308700Y13700D01*
X189567Y4724D02*
X299724D01*
X298356Y6693D02*
X305500Y13837D01*
X191339Y6693D02*
X298356D01*
X305500Y13837D02*
Y33663D01*
X303197Y87997D02*
X306491D01*
X301900Y86700D02*
X303197Y87997D01*
X301900Y37263D02*
Y86700D01*
Y37263D02*
X305500Y33663D01*
X303900Y14500D02*
Y33000D01*
X299100Y37800D02*
X303900Y33000D01*
X299100Y37800D02*
Y62860D01*
X299200Y62960D01*
Y88693D01*
X294102Y93791D02*
X299200Y88693D01*
X294102Y93791D02*
Y114998D01*
X297906Y8506D02*
X303900Y14500D01*
X292502Y93128D02*
X297600Y88030D01*
Y63622D02*
Y88030D01*
X297500Y63522D02*
X297600Y63622D01*
X301100Y14900D02*
Y32307D01*
X297500Y35908D02*
X301100Y32307D01*
X297500Y35908D02*
Y63522D01*
X301036Y14836D02*
X301100Y14900D01*
X310132Y52500D02*
X324300D01*
X308620Y56217D02*
Y57300D01*
X304675Y89813D02*
X306491Y87997D01*
X276600Y136745D02*
Y137100D01*
X191888Y8506D02*
X297906D01*
X296461Y10261D02*
X301036Y14836D01*
X192888Y10261D02*
X296461D01*
X286574Y122527D02*
X294102Y114998D01*
X286574Y122527D02*
Y122534D01*
X280800Y132200D02*
X281800Y131200D01*
X276000Y132200D02*
X280800D01*
X281800Y124755D02*
Y131200D01*
Y124755D02*
X292502Y114053D01*
X283948Y125159D02*
X286574Y122534D01*
X283948Y125159D02*
Y135506D01*
X282754Y136700D02*
X283948Y135506D01*
X276645Y136700D02*
X282754D01*
X276600Y136745D02*
X276645Y136700D01*
X205245Y68055D02*
X205300Y68000D01*
X198283Y68055D02*
X205245D01*
X198228Y68110D02*
X198283Y68055D01*
X222164Y22736D02*
X261361D01*
X220300Y24600D02*
X222164Y22736D01*
X216344Y24600D02*
X220300D01*
X212474Y28470D02*
X216344Y24600D01*
X214400Y22300D02*
Y24281D01*
X211811Y26870D02*
X214400Y24281D01*
X201083Y26870D02*
X211811D01*
X127360Y63260D02*
X140393D01*
X121974Y57874D02*
X127360Y63260D01*
X121949Y57874D02*
X121974D01*
X213000Y77400D02*
X214700D01*
X211147Y79253D02*
X213000Y77400D01*
X207701Y79253D02*
X211147D01*
X214700Y77400D02*
X215354Y76746D01*
Y75886D02*
Y76746D01*
X141668Y79232D02*
X149631D01*
X138813Y82087D02*
X141668Y79232D01*
X137598Y82087D02*
X138813D01*
X276442Y137049D02*
X276461Y137030D01*
X211024Y67913D02*
Y68176D01*
X209146Y70053D02*
X211024Y68176D01*
X208101Y70053D02*
X209146D01*
X206107Y72047D02*
X208101Y70053D01*
X198228Y72047D02*
X206107D01*
X149409Y27559D02*
X149488Y27480D01*
X286900Y94893D02*
Y97800D01*
X285900Y98800D02*
X286900Y97800D01*
X281900Y98800D02*
X285900D01*
X274373Y86791D02*
X277421D01*
X151575Y20669D02*
Y22638D01*
X141732Y17717D02*
X148622D01*
X210650Y89587D02*
X230304D01*
X206376Y82453D02*
X228168D01*
X207038Y80853D02*
X237741D01*
X228168Y82453D02*
X235774Y90059D01*
X237741Y80853D02*
X244409Y87520D01*
X160351Y81890D02*
X190670Y51570D01*
X165945Y112598D02*
X178937Y99606D01*
X144587Y112598D02*
X165945D01*
X178937Y93307D02*
Y99606D01*
X112205Y43504D02*
X130361Y61660D01*
X112205Y29232D02*
Y43504D01*
X88783Y29331D02*
X124312Y64860D01*
X75367Y29331D02*
X88783D01*
X124312Y64860D02*
X139730D01*
X141055Y61660D02*
X141780Y62384D01*
X130361Y61660D02*
X141055D01*
X141894Y60236D02*
X153740D01*
X141718Y60060D02*
X141894Y60236D01*
X137717Y60060D02*
X141718D01*
X134153Y56496D02*
X137717Y60060D01*
X139730Y64860D02*
X142123Y67253D01*
X139067Y66460D02*
X141460Y68853D01*
X123650Y66460D02*
X139067D01*
X101186Y43996D02*
X123650Y66460D01*
X96752Y43996D02*
X101186D01*
X187894Y15256D02*
X192888Y10261D01*
X187894Y15256D02*
Y34414D01*
X184646Y15748D02*
X191888Y8506D01*
X240027Y99311D02*
X262951D01*
X230304Y89587D02*
X240027Y99311D01*
X206890Y85827D02*
X210650Y89587D01*
X180905Y41402D02*
X187894Y34414D01*
X180905Y41402D02*
Y46949D01*
X180905Y46949D01*
X201502Y25270D02*
X206398Y20374D01*
X200420Y25270D02*
X201502D01*
X182874Y42816D02*
X200420Y25270D01*
X182874Y42816D02*
Y48819D01*
X184843Y43110D02*
Y48819D01*
X261713Y28611D02*
X263779Y30678D01*
X261361Y22736D02*
X261713Y23088D01*
X263779Y30678D02*
Y31496D01*
X261713Y23088D02*
Y28611D01*
X184843Y43110D02*
X201083Y26870D01*
X206398Y19783D02*
Y20374D01*
X184646Y15748D02*
Y35399D01*
X178937Y41108D02*
X184646Y35399D01*
X181890Y16142D02*
X191339Y6693D01*
X272682Y132015D02*
X275831D01*
X270846Y90318D02*
X274373Y86791D01*
X283562Y82501D02*
X283875Y82189D01*
X217520Y44587D02*
X285827D01*
X293799Y36614D01*
X203839Y58268D02*
X217520Y44587D01*
X179253Y21674D02*
Y36267D01*
X178543Y20965D02*
X179253Y21674D01*
X178543Y19188D02*
Y20965D01*
X175000Y40520D02*
X179253Y36267D01*
X178543Y19188D02*
X178834D01*
X179031Y15261D02*
X189567Y4724D01*
X178834Y15261D02*
X179031D01*
X178150Y15945D02*
X178834Y15261D01*
X178150Y15945D02*
Y16142D01*
X178445Y18799D02*
X178834Y19188D01*
X178445Y17913D02*
Y18799D01*
X178937Y41108D02*
Y48819D01*
X181890Y16142D02*
Y35893D01*
X176969Y40814D02*
X181890Y35893D01*
X176969Y40814D02*
Y48819D01*
X175000Y40520D02*
Y48819D01*
X171760Y35428D02*
X174316D01*
X167126Y40063D02*
X171760Y35428D01*
X167126Y46772D02*
X167204Y46850D01*
X167126Y40063D02*
Y46772D01*
X174316Y35428D02*
X175984Y33760D01*
Y33465D02*
Y33760D01*
X195948Y38976D02*
X196063D01*
X188857Y46067D02*
X195948Y38976D01*
X188857Y46067D02*
Y48741D01*
X188779Y48819D02*
X188857Y48741D01*
X186811Y43606D02*
X201947Y28470D01*
X186811Y43606D02*
Y48819D01*
X155512Y25591D02*
X174606D01*
X175984Y26969D01*
X201947Y28470D02*
X212474D01*
X196063Y43504D02*
X200689D01*
X191887Y47680D02*
X196063Y43504D01*
X191016Y47680D02*
X191887D01*
X206890Y85827D02*
X206988D01*
X190670Y48897D02*
Y51570D01*
X206988Y85827D02*
X207087Y85728D01*
X190670Y48897D02*
X190748Y48819D01*
Y47948D02*
Y48819D01*
X170768Y41043D02*
X170985Y41261D01*
X166934Y31196D02*
Y37992D01*
X165157Y39768D02*
X166934Y37992D01*
X165157Y39768D02*
Y47166D01*
X170985Y41261D02*
Y48741D01*
X274596Y81236D02*
Y83708D01*
X237894Y76083D02*
X245965Y84153D01*
X249016D01*
X223721Y75787D02*
X237697D01*
X191142Y79528D02*
X195412Y83798D01*
X198168D01*
X198228Y83858D01*
X174606Y67815D02*
X192618Y85827D01*
X152165Y102461D02*
X152264Y102362D01*
X169095Y87599D02*
X169095Y87598D01*
X169095Y87599D02*
Y93307D01*
X167126D02*
Y97638D01*
X150098D02*
X167126D01*
X147539Y88681D02*
X149881Y86339D01*
Y85044D02*
Y86339D01*
Y85044D02*
X150988Y83936D01*
X153662D01*
X153740Y83858D01*
X97146Y124639D02*
Y130905D01*
X175000Y93307D02*
Y97803D01*
X163405Y109398D02*
X175000Y97803D01*
X97146Y130905D02*
X97342Y131102D01*
X97146Y124639D02*
X110019Y111765D01*
X107579Y116469D02*
Y129528D01*
Y116469D02*
X110682Y113365D01*
X72835Y31693D02*
X73005D01*
X75367Y29331D01*
X141831Y54201D02*
Y54429D01*
X139391Y51761D02*
X141831Y54201D01*
X139391Y47493D02*
Y51761D01*
X138727Y46830D02*
X139391Y47493D01*
X138727Y43649D02*
Y46830D01*
X137684Y42605D02*
X138727Y43649D01*
X137684Y41826D02*
Y42605D01*
X134933Y39075D02*
X137684Y41826D01*
X134153Y39075D02*
X134933D01*
X158163Y60034D02*
X160925Y62795D01*
X158163Y60017D02*
Y60034D01*
X156492Y58346D02*
X158163Y60017D01*
X153818Y58346D02*
X156492D01*
X153740Y58268D02*
X153818Y58346D01*
X146624Y62384D02*
X150303Y66064D01*
X141780Y62384D02*
X146624D01*
X160138Y56299D02*
X173019Y69181D01*
X153740Y56299D02*
X160138D01*
X147626Y65650D02*
X149641Y67664D01*
X142815Y65650D02*
X147626D01*
X146944Y67253D02*
X148956Y69264D01*
X142123Y67253D02*
X146944D01*
X145920Y68853D02*
X149114Y72047D01*
X141460Y68853D02*
X145920D01*
X140393Y63260D02*
X142785Y65653D01*
X150303Y66064D02*
X153662D01*
X148956Y69264D02*
X149957D01*
X150694Y70001D01*
X153662D01*
X149114Y72047D02*
X153740D01*
X153662Y70001D02*
X153740Y70079D01*
Y81890D02*
X160351D01*
X134153Y51083D02*
Y56496D01*
X147788Y74016D02*
X153740D01*
X146503Y72732D02*
X147788Y74016D01*
X140454Y77264D02*
X149337D01*
X138781Y78937D02*
X140454Y77264D01*
X149337D02*
X150538Y76062D01*
X153662D01*
X153740Y75984D01*
X153662Y77875D02*
X153740Y77953D01*
X150988Y77875D02*
X153662D01*
X149631Y79232D02*
X150988Y77875D01*
Y68032D02*
X153662D01*
X150620Y67664D02*
X150988Y68032D01*
X149641Y67664D02*
X150620D01*
X145566Y72732D02*
X146503D01*
X112598Y78937D02*
X138781D01*
X87598Y53937D02*
X112598Y78937D01*
X153662Y66064D02*
X153740Y66142D01*
X153662Y68032D02*
X153740Y68110D01*
X87598Y42717D02*
Y53937D01*
X145177Y72342D02*
X145566Y72732D01*
X150434Y58190D02*
X152165D01*
X148642Y56398D02*
X150434Y58190D01*
X143602Y56398D02*
X148642D01*
X134153Y26476D02*
Y31791D01*
X136909Y20866D02*
X136909Y20866D01*
Y15748D02*
Y20866D01*
X159688Y21808D02*
X159843Y21654D01*
X157325Y21808D02*
X159688D01*
X155901Y23233D02*
X157325Y21808D01*
X155901Y23233D02*
Y23332D01*
X155610Y23622D02*
X155901Y23332D01*
X155512Y23622D02*
X155610D01*
X144095Y29921D02*
X148135Y25881D01*
X149409Y27559D02*
X149488D01*
X148130D02*
X149409D01*
X147343Y26772D02*
X148130Y27559D01*
X144095Y29921D02*
Y32185D01*
X148135Y25881D02*
X149099D01*
X149488Y25591D02*
Y25881D01*
X149099D02*
X149390Y25591D01*
X143996Y33268D02*
X144328Y32936D01*
X149390Y25591D02*
X149488D01*
Y25881D02*
X149582Y25787D01*
X149606D01*
X151575Y28661D02*
Y33957D01*
X151516Y28602D02*
X151575Y28661D01*
X144685Y26575D02*
X147638Y23622D01*
X148622Y17717D02*
X151575Y20669D01*
X147638Y23622D02*
X149488D01*
X142717Y26575D02*
X144685D01*
X97047Y12205D02*
X97047Y12205D01*
X48130Y12205D02*
X48130Y12205D01*
X274947Y80885D02*
X276083D01*
X274596Y81236D02*
X274947Y80885D01*
X274596Y83708D02*
X275357Y84469D01*
X277245D01*
X277421Y84646D01*
X277834Y82501D02*
X283562D01*
X270564Y82677D02*
X274324Y86438D01*
X267854Y82677D02*
X270564D01*
X273622Y31791D02*
X274016Y31398D01*
X273622Y31791D02*
Y40059D01*
X283760Y33169D02*
Y40157D01*
X198228Y58268D02*
X203839D01*
X218996Y40453D02*
X238779D01*
X243701Y35531D01*
Y31890D02*
Y35531D01*
X203150Y56299D02*
X218996Y40453D01*
X198228Y56299D02*
X203150D01*
X198306Y62127D02*
X228917D01*
X208764Y71653D02*
X250590D01*
X206401Y74016D02*
X208764Y71653D01*
X209055Y75984D02*
X209055Y75984D01*
X207283Y37894D02*
Y42520D01*
X208071Y43307D01*
X190748Y47948D02*
X191016Y47680D01*
X143924Y110998D02*
X164067D01*
X143261Y109398D02*
X163405D01*
X140894Y111765D02*
X143261Y109398D01*
X110019Y111765D02*
X140894D01*
X164067Y110998D02*
X176969Y98097D01*
Y93307D02*
Y98097D01*
X141557Y113365D02*
X143924Y110998D01*
X110682Y113365D02*
X141557D01*
X272441Y93209D02*
X272638Y93405D01*
X261713Y80709D02*
X261811D01*
X262402Y93799D02*
X265650Y90551D01*
X274324Y86438D02*
X275984D01*
X277658Y82677D02*
X277834Y82501D01*
X265650Y90551D02*
X267854D01*
X259449Y93799D02*
X262402D01*
X272638Y93405D02*
Y98130D01*
X261811Y80709D02*
X267854D01*
X163091Y121063D02*
X180905Y103248D01*
Y93307D02*
Y103248D01*
X182874Y93307D02*
Y116437D01*
X166235Y100497D02*
Y100595D01*
X165650Y101181D02*
X166235Y100595D01*
X167126Y97638D02*
X167126D01*
X165551Y101181D02*
X165650D01*
X140551Y116634D02*
X144587Y112598D01*
X128543Y116634D02*
X140551D01*
X163091Y121063D02*
Y121358D01*
X148125Y99611D02*
X150098Y97638D01*
X167126D02*
Y99606D01*
X148125Y99611D02*
Y99906D01*
X146358Y101673D02*
X148125Y99906D01*
X146063Y101673D02*
X146358D01*
X166235Y100497D02*
X167126Y99606D01*
X190748Y87598D02*
X192520Y85827D01*
X190748Y87598D02*
Y93307D01*
X206594Y85827D02*
X206890D01*
X198228D02*
X206594D01*
X192618D02*
X198228D01*
X87579Y35413D02*
X87992Y35827D01*
X152953Y41535D02*
X153543Y40945D01*
X184055Y117618D02*
Y118307D01*
X182874Y116437D02*
X184055Y117618D01*
X262951Y99311D02*
X270846Y91416D01*
Y90318D02*
Y91416D01*
X263508Y86795D02*
X265481Y84822D01*
X259335Y86795D02*
X263508D01*
X258609Y87520D02*
X259335Y86795D01*
X244409Y87520D02*
X258609D01*
X235774Y90059D02*
X262992D01*
X77047Y35413D02*
X87579D01*
X146457Y81890D02*
X153740D01*
X276378Y52264D02*
X276575Y52461D01*
X268602Y52264D02*
X276378D01*
X198228Y74016D02*
X206401D01*
X228917Y62127D02*
X229232Y61811D01*
X198228Y62205D02*
X198306Y62127D01*
X199311Y78031D02*
X199389Y77953D01*
X206401D01*
X207701Y79253D01*
X198228Y79921D02*
X206107D01*
X205813Y81890D02*
X206376Y82453D01*
X198228Y81890D02*
X205813D01*
X206107Y79921D02*
X207038Y80853D01*
X198228Y75984D02*
X209055D01*
X170985Y48741D02*
X171063Y48819D01*
X169095Y57579D02*
X169193Y57677D01*
X169095Y48819D02*
Y57579D01*
X169095Y48819D02*
X169095Y48819D01*
X147539Y41535D02*
X152953D01*
X153543Y40945D02*
X153937Y41339D01*
X153484Y28701D02*
X159332Y34549D01*
X162314D01*
X153484Y28602D02*
Y28701D01*
X166934Y31196D02*
X168602Y29528D01*
X168898D01*
X161122Y28543D02*
X161417D01*
X160138Y27559D02*
X161122Y28543D01*
X155512Y27559D02*
X160138D01*
X153514Y17746D02*
X153543Y17717D01*
X153514Y17746D02*
Y22549D01*
X153484Y22579D02*
X153514Y22549D01*
X160433Y41339D02*
X160728D01*
X159449D02*
X160433D01*
X162397Y44568D02*
X163189Y45360D01*
X162397Y43007D02*
Y44568D01*
X160728Y41339D02*
X162397Y43007D01*
X163189Y45360D02*
Y48819D01*
X191831Y70079D02*
X198228D01*
X198306Y70157D01*
X204134Y60236D02*
X207283Y57087D01*
X198228Y60236D02*
X204134D01*
X207283Y57087D02*
X213784D01*
X213976Y56894D01*
Y56890D02*
Y56894D01*
X265194Y88583D02*
X267854D01*
X263714Y90063D02*
X265194Y88583D01*
X265481Y84822D02*
X267678D01*
X262811Y90063D02*
X263714D01*
X267678Y84822D02*
X267854Y84646D01*
X292502Y93128D02*
Y114053D01*
X293799Y31496D02*
Y36614D01*
D84*
X286886Y86614D02*
X286900Y86600D01*
X277421Y86614D02*
X286886D01*
X215606Y65704D02*
X217500Y67598D01*
X198228Y64173D02*
X214073D01*
X215604Y65704D01*
X215606D01*
X217500Y67598D02*
Y67600D01*
X220500Y100300D02*
X222500Y102300D01*
Y103700D01*
X190941Y100300D02*
X220500D01*
X186839Y96198D02*
X190941Y100300D01*
X186839Y93335D02*
Y96198D01*
X186811Y93307D02*
X186839Y93335D01*
X193337Y105100D02*
X198700D01*
X184871Y96634D02*
X193337Y105100D01*
X184871Y93335D02*
Y96634D01*
X184843Y93307D02*
X184871Y93335D01*
D85*
X321458Y22300D02*
D03*
X323215Y132100D02*
D03*
D86*
X341143Y22300D02*
D03*
X342900Y132100D02*
D03*
D87*
X11811Y11811D02*
D03*
Y137795D02*
D03*
X366142Y11811D02*
D03*
X366535Y138583D02*
D03*
D88*
X19685Y81181D02*
D03*
Y71181D02*
D03*
Y61181D02*
D03*
D89*
Y51181D02*
D03*
D90*
X107185Y129921D02*
D03*
X97185D02*
D03*
X87185D02*
D03*
X206437Y19488D02*
D03*
X293779Y31496D02*
D03*
X283780D02*
D03*
X273780D02*
D03*
X263779D02*
D03*
X243779D02*
D03*
X253780D02*
D03*
D91*
X77185Y129921D02*
D03*
X216437Y19488D02*
D03*
X233780Y31496D02*
D03*
D92*
X315860Y63020D02*
D03*
X278200Y116600D02*
D03*
X304900Y119500D02*
D03*
X205300Y68000D02*
D03*
X221260Y86319D02*
D03*
X281900Y98800D02*
D03*
X32677Y129921D02*
D03*
X92028Y27559D02*
D03*
X64961Y96850D02*
D03*
X283875Y82189D02*
D03*
X196063Y38976D02*
D03*
X170768Y41043D02*
D03*
X237697Y75787D02*
D03*
X191142Y79528D02*
D03*
X220571Y93602D02*
D03*
X135728Y129232D02*
D03*
X134055Y101476D02*
D03*
X152264Y92913D02*
D03*
X152165Y102461D02*
D03*
X169095Y87598D02*
D03*
X234744Y105217D02*
D03*
X212795Y105118D02*
D03*
X175591Y135827D02*
D03*
X71949Y64468D02*
D03*
X134153Y31791D02*
D03*
X160925Y62795D02*
D03*
X127657Y72244D02*
D03*
X96457Y43996D02*
D03*
X121949Y57874D02*
D03*
X136909Y20866D02*
D03*
X159843Y21654D02*
D03*
X143996Y33268D02*
D03*
X151575Y33957D02*
D03*
X92028Y12205D02*
D03*
X48130D02*
D03*
X284055Y75787D02*
D03*
X273622Y40059D02*
D03*
X283760Y40157D02*
D03*
X209055Y75984D02*
D03*
X207283Y37894D02*
D03*
X272638Y98130D02*
D03*
X259449Y93799D02*
D03*
X261811Y80709D02*
D03*
X107776Y101476D02*
D03*
X37697Y107874D02*
D03*
X42224Y43898D02*
D03*
X87894Y78347D02*
D03*
X83957Y73917D02*
D03*
X268602Y52264D02*
D03*
X211024Y67913D02*
D03*
X229232Y61811D02*
D03*
X169095Y57874D02*
D03*
X147539Y41535D02*
D03*
X162314Y34549D02*
D03*
X153543Y17717D02*
D03*
X191831Y70079D02*
D03*
X250590Y71653D02*
D03*
X304921Y105709D02*
D03*
M02*
