G04*
G04 #@! TF.GenerationSoftware,Altium Limited,Altium Designer,19.0.14 (431)*
G04*
G04 Layer_Color=32896*
%FSLAX25Y25*%
%MOIN*%
G70*
G01*
G75*
%ADD11C,0.01000*%
G36*
X190100Y121500D02*
X192500D01*
Y120700D01*
X194900D01*
Y121500D01*
X195700D01*
Y120700D01*
X198100D01*
Y121500D01*
X200500D01*
Y120700D01*
X201300D01*
Y121500D01*
X206900D01*
Y120700D01*
X210900D01*
Y121500D01*
X211700D01*
Y120700D01*
X214900D01*
Y119900D01*
X212500D01*
Y119100D01*
Y118300D01*
X211700D01*
Y117500D01*
X210100D01*
Y116700D01*
X207700D01*
Y115900D01*
X206100D01*
Y115100D01*
X205300D01*
Y114300D01*
X204500D01*
Y113500D01*
X201300D01*
Y112700D01*
X199700D01*
Y111900D01*
Y111100D01*
X198900D01*
Y111900D01*
X196500D01*
Y112700D01*
Y113500D01*
X195700D01*
Y114300D01*
Y115100D01*
X194900D01*
Y115900D01*
X191700D01*
Y116700D01*
X189300D01*
Y117500D01*
X186100D01*
Y118300D01*
X184500D01*
Y117500D01*
Y116700D01*
X183700D01*
Y117500D01*
X182100D01*
Y116700D01*
X181300D01*
Y115900D01*
X180500D01*
Y116700D01*
X178900D01*
Y115900D01*
X177300D01*
Y116700D01*
X174100D01*
Y115900D01*
X171700D01*
Y115100D01*
X170900D01*
Y115900D01*
X170100D01*
Y115100D01*
Y114300D01*
X169300D01*
Y115100D01*
X168500D01*
Y115900D01*
X167700D01*
Y115100D01*
Y114300D01*
X162100D01*
Y115100D01*
X160500D01*
Y114300D01*
X158100D01*
Y113500D01*
X157300D01*
Y112700D01*
X156500D01*
Y113500D01*
X154900D01*
Y114300D01*
Y115100D01*
Y115900D01*
X155700D01*
Y116700D01*
Y117500D01*
Y118300D01*
Y119100D01*
X156500D01*
Y119900D01*
Y120700D01*
Y121500D01*
X157300D01*
Y120700D01*
X158900D01*
Y121500D01*
X160500D01*
Y120700D01*
X164500D01*
Y121500D01*
X166100D01*
Y120700D01*
X167700D01*
Y121500D01*
X169300D01*
Y120700D01*
X170900D01*
Y121500D01*
X172500D01*
Y120700D01*
X174900D01*
Y121500D01*
X177300D01*
Y120700D01*
X178900D01*
Y121500D01*
X180500D01*
Y120700D01*
X182100D01*
Y121500D01*
X183700D01*
Y120700D01*
X187700D01*
Y121500D01*
X189300D01*
Y122300D01*
X190100D01*
Y121500D01*
D02*
G37*
G36*
X216500Y120700D02*
Y119900D01*
X215700D01*
Y120700D01*
Y121500D01*
X216500D01*
Y120700D01*
D02*
G37*
G36*
X150900Y113500D02*
X150100D01*
Y112700D01*
X148500D01*
Y111900D01*
X147700D01*
Y112700D01*
X146900D01*
Y111900D01*
X144500D01*
Y112700D01*
Y113500D01*
Y114300D01*
X145300D01*
Y113500D01*
X148500D01*
Y114300D01*
X150900D01*
Y113500D01*
D02*
G37*
G36*
X142100Y112700D02*
X143700D01*
Y111900D01*
X142900D01*
Y111100D01*
X138900D01*
Y110300D01*
X137300D01*
Y109500D01*
X132500D01*
Y110300D01*
X131700D01*
Y109500D01*
X129300D01*
Y108700D01*
X126900D01*
Y109500D01*
X126100D01*
Y108700D01*
X121300D01*
Y107900D01*
Y107100D01*
X120500D01*
Y107900D01*
X118900D01*
Y107100D01*
X118100D01*
Y107900D01*
X117300D01*
Y107100D01*
X114900D01*
Y107900D01*
X114100D01*
Y108700D01*
Y109500D01*
X114900D01*
Y108700D01*
X116500D01*
Y109500D01*
X118100D01*
Y108700D01*
X119700D01*
Y109500D01*
X122100D01*
Y110300D01*
X123700D01*
Y109500D01*
X124500D01*
Y110300D01*
X125300D01*
Y111100D01*
X126900D01*
Y110300D01*
X128500D01*
Y111100D01*
X129300D01*
Y111900D01*
X132500D01*
Y112700D01*
X133300D01*
Y111900D01*
X135700D01*
Y112700D01*
X137300D01*
Y113500D01*
X138900D01*
Y112700D01*
X140500D01*
Y113500D01*
X142100D01*
Y112700D01*
D02*
G37*
G36*
X153300Y108700D02*
Y107900D01*
X151700D01*
Y108700D01*
X152500D01*
Y109500D01*
X153300D01*
Y108700D01*
D02*
G37*
G36*
X113300Y107900D02*
X114100D01*
Y107100D01*
X113300D01*
Y106300D01*
X111700D01*
Y107100D01*
X110100D01*
Y106300D01*
X108500D01*
Y107100D01*
X107700D01*
Y106300D01*
X105300D01*
Y105500D01*
X103700D01*
Y104700D01*
X102900D01*
Y105500D01*
X101300D01*
Y104700D01*
X99700D01*
Y105500D01*
Y106300D01*
X104500D01*
Y107100D01*
X106100D01*
Y107900D01*
X108500D01*
Y108700D01*
X109300D01*
Y107900D01*
X111700D01*
Y108700D01*
X113300D01*
Y107900D01*
D02*
G37*
G36*
X129300Y104700D02*
Y103900D01*
X128500D01*
Y104700D01*
X126900D01*
Y105500D01*
X129300D01*
Y104700D01*
D02*
G37*
G36*
X98900Y105500D02*
Y104700D01*
X98100D01*
Y103900D01*
X97300D01*
Y104700D01*
X96500D01*
Y103900D01*
X94100D01*
Y104700D01*
X91700D01*
Y105500D01*
X96500D01*
Y106300D01*
X98900D01*
Y105500D01*
D02*
G37*
G36*
X123700Y103900D02*
X124500D01*
Y103100D01*
X122900D01*
Y103900D01*
Y104700D01*
X123700D01*
Y103900D01*
D02*
G37*
G36*
X87700Y102300D02*
X90100D01*
Y101500D01*
X90900D01*
Y100700D01*
Y99900D01*
X93300D01*
Y99100D01*
X94900D01*
Y98300D01*
X95700D01*
Y97500D01*
X97300D01*
Y96700D01*
X98100D01*
Y95900D01*
X98900D01*
Y95100D01*
X99700D01*
Y94300D01*
X101300D01*
Y93500D01*
X102100D01*
Y92700D01*
X103700D01*
Y91900D01*
Y91100D01*
X104500D01*
Y90300D01*
Y89500D01*
X105300D01*
Y88700D01*
X106900D01*
Y87900D01*
Y87100D01*
X107700D01*
Y86300D01*
Y85500D01*
X108500D01*
Y84700D01*
Y83900D01*
X109300D01*
Y83100D01*
X110100D01*
Y82300D01*
Y81500D01*
Y80700D01*
X110900D01*
Y79900D01*
X111700D01*
Y79100D01*
X112500D01*
Y78300D01*
X111700D01*
Y77500D01*
Y76700D01*
X112500D01*
Y75900D01*
X113300D01*
Y75100D01*
Y74300D01*
X114100D01*
Y73500D01*
Y72700D01*
X114900D01*
Y71900D01*
X114100D01*
Y71100D01*
X114900D01*
Y70300D01*
Y69500D01*
Y68700D01*
X115700D01*
Y67900D01*
Y67100D01*
X116500D01*
Y66300D01*
Y65500D01*
X115700D01*
Y64700D01*
X116500D01*
Y63900D01*
Y63100D01*
X117300D01*
Y62300D01*
Y61500D01*
Y60700D01*
X116500D01*
Y59900D01*
X117300D01*
Y59100D01*
Y58300D01*
Y57500D01*
X118100D01*
Y56700D01*
X117300D01*
Y55900D01*
Y55100D01*
X118900D01*
Y54300D01*
X118100D01*
Y53500D01*
X118900D01*
Y52700D01*
Y51900D01*
Y51100D01*
Y50300D01*
Y49500D01*
Y48700D01*
Y47900D01*
X118100D01*
Y47100D01*
Y46300D01*
X118900D01*
Y45500D01*
Y44700D01*
X118100D01*
Y43900D01*
X118900D01*
Y43100D01*
X119700D01*
Y42300D01*
X118900D01*
Y41500D01*
Y40700D01*
Y39900D01*
Y39100D01*
X118100D01*
Y38300D01*
Y37500D01*
X118900D01*
Y36700D01*
X118100D01*
Y35900D01*
Y35100D01*
Y34300D01*
Y33500D01*
X117300D01*
Y32700D01*
Y31900D01*
Y31100D01*
X116500D01*
Y30300D01*
Y29500D01*
Y28700D01*
Y27900D01*
X114900D01*
Y27100D01*
Y26300D01*
Y25500D01*
X114100D01*
Y24700D01*
Y23900D01*
X112500D01*
Y23100D01*
Y22300D01*
X110900D01*
Y21500D01*
Y20700D01*
X110100D01*
Y19900D01*
X109300D01*
Y19100D01*
X106900D01*
Y18300D01*
X106100D01*
Y19100D01*
X102900D01*
Y19900D01*
X100500D01*
Y20700D01*
X97300D01*
Y21500D01*
X94900D01*
Y22300D01*
X94100D01*
Y21500D01*
X93300D01*
Y20700D01*
X91700D01*
Y21500D01*
X88500D01*
Y22300D01*
X86100D01*
Y23100D01*
X82900D01*
Y23900D01*
X80500D01*
Y24700D01*
X77300D01*
Y25500D01*
X74900D01*
Y26300D01*
X71700D01*
Y27100D01*
X69300D01*
Y27900D01*
X66100D01*
Y28700D01*
X63700D01*
Y29500D01*
X60500D01*
Y30300D01*
X58100D01*
Y31100D01*
X54900D01*
Y31900D01*
X52500D01*
Y32700D01*
X49300D01*
Y33500D01*
X50100D01*
Y34300D01*
X49300D01*
Y35100D01*
X46900D01*
Y35900D01*
X42900D01*
Y36700D01*
Y37500D01*
X41300D01*
Y38300D01*
X38100D01*
Y39100D01*
Y39900D01*
X35700D01*
Y40700D01*
X34900D01*
Y41500D01*
Y42300D01*
Y43100D01*
Y43900D01*
Y44700D01*
X35700D01*
Y45500D01*
X37300D01*
Y46300D01*
Y47100D01*
X38100D01*
Y47900D01*
X37300D01*
Y48700D01*
X38100D01*
Y49500D01*
X39700D01*
Y50300D01*
Y51100D01*
Y51900D01*
Y52700D01*
X41300D01*
Y53500D01*
Y54300D01*
Y55100D01*
X42900D01*
Y55900D01*
Y56700D01*
X43700D01*
Y57500D01*
Y58300D01*
Y59100D01*
Y59900D01*
X44500D01*
Y59100D01*
X45300D01*
Y59900D01*
Y60700D01*
X46100D01*
Y61500D01*
X46900D01*
Y62300D01*
Y63100D01*
X48500D01*
Y63900D01*
Y64700D01*
Y65500D01*
X49300D01*
Y66300D01*
X50900D01*
Y67100D01*
Y67900D01*
Y68700D01*
X52500D01*
Y69500D01*
Y70300D01*
Y71100D01*
X53300D01*
Y71900D01*
X54100D01*
Y72700D01*
Y73500D01*
X54900D01*
Y72700D01*
X55700D01*
Y73500D01*
X56500D01*
Y74300D01*
Y75100D01*
X57300D01*
Y75900D01*
Y76700D01*
X58900D01*
Y77500D01*
Y78300D01*
X59700D01*
Y79100D01*
Y79900D01*
Y80700D01*
X61300D01*
Y81500D01*
X62100D01*
Y82300D01*
X62900D01*
Y83100D01*
Y83900D01*
X64500D01*
Y84700D01*
Y85500D01*
Y86300D01*
X65300D01*
Y85500D01*
X66100D01*
Y86300D01*
Y87100D01*
X66900D01*
Y87900D01*
X67700D01*
Y88700D01*
Y89500D01*
X68500D01*
Y90300D01*
X69300D01*
Y91100D01*
Y91900D01*
X70100D01*
Y92700D01*
X71700D01*
Y93500D01*
Y94300D01*
X72500D01*
Y95100D01*
X74100D01*
Y95900D01*
Y96700D01*
Y97500D01*
X74900D01*
Y98300D01*
X76500D01*
Y99100D01*
Y99900D01*
X77300D01*
Y100700D01*
X78100D01*
Y101500D01*
Y102300D01*
Y103100D01*
X82100D01*
Y102300D01*
X85300D01*
Y103100D01*
X87700D01*
Y102300D01*
D02*
G37*
G36*
X105300Y101500D02*
X106100D01*
Y100700D01*
X105300D01*
Y101500D01*
X104500D01*
Y100700D01*
X102100D01*
Y101500D01*
X101300D01*
Y102300D01*
X102100D01*
Y101500D01*
X102900D01*
Y102300D01*
X105300D01*
Y101500D01*
D02*
G37*
G36*
X231700Y105500D02*
X234100D01*
Y104700D01*
X237300D01*
Y103900D01*
X234900D01*
Y103100D01*
X233300D01*
Y102300D01*
Y101500D01*
Y100700D01*
X232500D01*
Y101500D01*
X231700D01*
Y100700D01*
X230900D01*
Y101500D01*
X226900D01*
Y102300D01*
X227700D01*
Y103100D01*
X229300D01*
Y103900D01*
X230100D01*
Y104700D01*
X230900D01*
Y105500D01*
Y106300D01*
X231700D01*
Y105500D01*
D02*
G37*
G36*
X251700Y101500D02*
X254100D01*
Y100700D01*
X251700D01*
Y99900D01*
X252500D01*
Y99100D01*
X250900D01*
Y98300D01*
X249300D01*
Y97500D01*
X247700D01*
Y98300D01*
X246100D01*
Y99100D01*
X246900D01*
Y99900D01*
X248500D01*
Y100700D01*
X250100D01*
Y101500D01*
X250900D01*
Y102300D01*
X251700D01*
Y101500D01*
D02*
G37*
G36*
X214900Y93500D02*
X216500D01*
Y92700D01*
X214900D01*
Y91900D01*
Y91100D01*
X213300D01*
Y90300D01*
X211700D01*
Y91100D01*
X210900D01*
Y90300D01*
Y89500D01*
X210100D01*
Y88700D01*
X206900D01*
Y87900D01*
X206100D01*
Y87100D01*
Y86300D01*
X205300D01*
Y87100D01*
X204500D01*
Y86300D01*
X202900D01*
Y85500D01*
X202100D01*
Y84700D01*
X201300D01*
Y83900D01*
X197300D01*
Y83100D01*
X196500D01*
Y82300D01*
X194900D01*
Y81500D01*
X193300D01*
Y80700D01*
X191700D01*
Y79900D01*
X190100D01*
Y79100D01*
X189300D01*
Y78300D01*
X188500D01*
Y79100D01*
Y79900D01*
X187700D01*
Y80700D01*
X186900D01*
Y81500D01*
Y82300D01*
Y83100D01*
Y83900D01*
Y84700D01*
Y85500D01*
X185300D01*
Y86300D01*
X186100D01*
Y87100D01*
X185300D01*
Y87900D01*
Y88700D01*
Y89500D01*
Y90300D01*
Y91100D01*
X186100D01*
Y90300D01*
X188500D01*
Y91100D01*
X190900D01*
Y91900D01*
X191700D01*
Y91100D01*
X194100D01*
Y91900D01*
X195700D01*
Y92700D01*
X197300D01*
Y91900D01*
X198100D01*
Y92700D01*
X200500D01*
Y91900D01*
X202900D01*
Y92700D01*
X203700D01*
Y91900D01*
X205300D01*
Y92700D01*
Y93500D01*
X206100D01*
Y92700D01*
X208500D01*
Y93500D01*
X209300D01*
Y92700D01*
X210900D01*
Y93500D01*
X212500D01*
Y92700D01*
X214100D01*
Y93500D01*
Y94300D01*
X214900D01*
Y93500D01*
D02*
G37*
G36*
X232500Y89500D02*
X234900D01*
Y88700D01*
X238100D01*
Y87900D01*
X236500D01*
Y87100D01*
X235700D01*
Y86300D01*
X234100D01*
Y85500D01*
X232500D01*
Y84700D01*
X231700D01*
Y83900D01*
X230100D01*
Y83100D01*
X228500D01*
Y83900D01*
X225300D01*
Y84700D01*
X222900D01*
Y85500D01*
Y86300D01*
X223700D01*
Y85500D01*
X224500D01*
Y86300D01*
X225300D01*
Y87100D01*
X226900D01*
Y87900D01*
Y88700D01*
X228500D01*
Y89500D01*
X230900D01*
Y90300D01*
X232500D01*
Y89500D01*
D02*
G37*
G36*
X210900Y82300D02*
Y81500D01*
X210100D01*
Y82300D01*
Y83100D01*
X210900D01*
Y82300D01*
D02*
G37*
G36*
X173300Y77500D02*
Y76700D01*
Y75900D01*
Y75100D01*
Y74300D01*
Y73500D01*
X174900D01*
Y72700D01*
X174100D01*
Y71900D01*
Y71100D01*
X174900D01*
Y70300D01*
X174100D01*
Y69500D01*
Y68700D01*
X174900D01*
Y67900D01*
Y67100D01*
X174100D01*
Y66300D01*
Y65500D01*
X175700D01*
Y64700D01*
X174900D01*
Y63900D01*
Y63100D01*
Y62300D01*
X174100D01*
Y61500D01*
X173300D01*
Y60700D01*
X174100D01*
Y59900D01*
Y59100D01*
X173300D01*
Y58300D01*
X174100D01*
Y57500D01*
Y56700D01*
Y55900D01*
Y55100D01*
X173300D01*
Y54300D01*
Y53500D01*
X171700D01*
Y52700D01*
Y51900D01*
Y51100D01*
X170900D01*
Y51900D01*
X170100D01*
Y51100D01*
X169300D01*
Y50300D01*
X166100D01*
Y49500D01*
X165300D01*
Y50300D01*
X164500D01*
Y49500D01*
X162900D01*
Y48700D01*
Y47900D01*
X160500D01*
Y47100D01*
X158900D01*
Y47900D01*
X158100D01*
Y47100D01*
Y46300D01*
X156500D01*
Y45500D01*
X154100D01*
Y44700D01*
Y43900D01*
X151700D01*
Y44700D01*
X150900D01*
Y45500D01*
X151700D01*
Y46300D01*
Y47100D01*
X152500D01*
Y47900D01*
Y48700D01*
Y49500D01*
X153300D01*
Y50300D01*
X152500D01*
Y51100D01*
X153300D01*
Y51900D01*
Y52700D01*
Y53500D01*
X152500D01*
Y54300D01*
Y55100D01*
X153300D01*
Y55900D01*
Y56700D01*
Y57500D01*
Y58300D01*
X154100D01*
Y59100D01*
Y59900D01*
X153300D01*
Y60700D01*
X154100D01*
Y61500D01*
Y62300D01*
Y63100D01*
X152500D01*
Y63900D01*
X154100D01*
Y64700D01*
X153300D01*
Y65500D01*
X152500D01*
Y66300D01*
Y67100D01*
Y67900D01*
Y68700D01*
X151700D01*
Y69500D01*
Y70300D01*
Y71100D01*
X153300D01*
Y71900D01*
X156500D01*
Y72700D01*
X158100D01*
Y73500D01*
X159700D01*
Y72700D01*
X160500D01*
Y73500D01*
X161300D01*
Y74300D01*
X162100D01*
Y75100D01*
X162900D01*
Y75900D01*
X163700D01*
Y75100D01*
X164500D01*
Y75900D01*
X166100D01*
Y75100D01*
X167700D01*
Y75900D01*
Y76700D01*
X171700D01*
Y77500D01*
X172500D01*
Y78300D01*
X173300D01*
Y77500D01*
D02*
G37*
G36*
X217300Y71900D02*
X219700D01*
Y71100D01*
X222900D01*
Y70300D01*
X223700D01*
Y71100D01*
X226900D01*
Y70300D01*
X227700D01*
Y71100D01*
X229300D01*
Y70300D01*
X231700D01*
Y69500D01*
X230900D01*
Y68700D01*
X227700D01*
Y67900D01*
Y67100D01*
X226900D01*
Y66300D01*
X226100D01*
Y67100D01*
X225300D01*
Y66300D01*
X223700D01*
Y65500D01*
Y64700D01*
X222900D01*
Y63900D01*
X220500D01*
Y63100D01*
Y62300D01*
X219700D01*
Y61500D01*
X216500D01*
Y60700D01*
X215700D01*
Y59900D01*
Y59100D01*
X214100D01*
Y58300D01*
X212500D01*
Y57500D01*
X211700D01*
Y56700D01*
X210100D01*
Y55900D01*
Y55100D01*
Y54300D01*
X209300D01*
Y55100D01*
X208500D01*
Y54300D01*
X206900D01*
Y53500D01*
X206100D01*
Y52700D01*
X204500D01*
Y51900D01*
X202900D01*
Y51100D01*
X202100D01*
Y50300D01*
Y49500D01*
X199700D01*
Y48700D01*
X198900D01*
Y47900D01*
X198100D01*
Y47100D01*
X195700D01*
Y46300D01*
X194900D01*
Y45500D01*
Y44700D01*
X194100D01*
Y43900D01*
X193300D01*
Y44700D01*
X192500D01*
Y43900D01*
X191700D01*
Y43100D01*
X190900D01*
Y42300D01*
X188500D01*
Y41500D01*
X187700D01*
Y42300D01*
Y43100D01*
X186100D01*
Y43900D01*
X185300D01*
Y44700D01*
X182900D01*
Y45500D01*
Y46300D01*
X179700D01*
Y47100D01*
Y47900D01*
Y48700D01*
X181300D01*
Y49500D01*
X182100D01*
Y50300D01*
X185300D01*
Y51100D01*
X186100D01*
Y51900D01*
X188500D01*
Y52700D01*
X189300D01*
Y53500D01*
X192500D01*
Y54300D01*
X193300D01*
Y55100D01*
X194900D01*
Y55900D01*
X197300D01*
Y56700D01*
X198900D01*
Y55900D01*
X199700D01*
Y56700D01*
Y57500D01*
X201300D01*
Y58300D01*
X203700D01*
Y59100D01*
Y59900D01*
X206100D01*
Y60700D01*
X207700D01*
Y61500D01*
Y62300D01*
X208500D01*
Y63100D01*
Y63900D01*
X209300D01*
Y64700D01*
Y65500D01*
X210100D01*
Y66300D01*
Y67100D01*
Y67900D01*
X210900D01*
Y68700D01*
Y69500D01*
Y70300D01*
Y71100D01*
X211700D01*
Y71900D01*
Y72700D01*
X212500D01*
Y71900D01*
X214900D01*
Y71100D01*
X215700D01*
Y71900D01*
Y72700D01*
X217300D01*
Y71900D01*
D02*
G37*
G36*
X144500Y67100D02*
Y66300D01*
X146100D01*
Y65500D01*
Y64700D01*
X145300D01*
Y63900D01*
X146100D01*
Y63100D01*
Y62300D01*
Y61500D01*
Y60700D01*
Y59900D01*
Y59100D01*
X146900D01*
Y58300D01*
Y57500D01*
Y56700D01*
Y55900D01*
X146100D01*
Y55100D01*
X146900D01*
Y54300D01*
Y53500D01*
X146100D01*
Y52700D01*
Y51900D01*
X146900D01*
Y51100D01*
Y50300D01*
X146100D01*
Y49500D01*
Y48700D01*
Y47900D01*
Y47100D01*
X145300D01*
Y46300D01*
X146900D01*
Y45500D01*
Y44700D01*
X146100D01*
Y43900D01*
Y43100D01*
Y42300D01*
Y41500D01*
X145300D01*
Y40700D01*
Y39900D01*
X144500D01*
Y40700D01*
X142900D01*
Y39900D01*
Y39100D01*
X139700D01*
Y38300D01*
X138900D01*
Y37500D01*
X135700D01*
Y36700D01*
X134100D01*
Y35900D01*
X133300D01*
Y35100D01*
X131700D01*
Y34300D01*
X130900D01*
Y35100D01*
X129300D01*
Y34300D01*
Y33500D01*
X126900D01*
Y32700D01*
X125300D01*
Y31900D01*
X123700D01*
Y31100D01*
X122900D01*
Y31900D01*
Y32700D01*
X123700D01*
Y33500D01*
Y34300D01*
Y35100D01*
Y35900D01*
X124500D01*
Y36700D01*
Y37500D01*
Y38300D01*
X125300D01*
Y39100D01*
Y39900D01*
Y40700D01*
Y41500D01*
Y42300D01*
Y43100D01*
Y43900D01*
X126100D01*
Y44700D01*
Y45500D01*
X125300D01*
Y46300D01*
Y47100D01*
X126100D01*
Y47900D01*
Y48700D01*
X124500D01*
Y49500D01*
Y50300D01*
X125300D01*
Y51100D01*
Y51900D01*
Y52700D01*
X126100D01*
Y53500D01*
X125300D01*
Y54300D01*
Y55100D01*
Y55900D01*
Y56700D01*
Y57500D01*
Y58300D01*
X123700D01*
Y59100D01*
X124500D01*
Y59900D01*
Y60700D01*
X123700D01*
Y61500D01*
Y62300D01*
X127700D01*
Y63100D01*
Y63900D01*
X131700D01*
Y64700D01*
X132500D01*
Y63900D01*
X133300D01*
Y64700D01*
X134900D01*
Y65500D01*
Y66300D01*
X138900D01*
Y67100D01*
X139700D01*
Y67900D01*
X141300D01*
Y67100D01*
X142100D01*
Y67900D01*
X144500D01*
Y67100D01*
D02*
G37*
G36*
X175700Y47100D02*
Y46300D01*
X174100D01*
Y45500D01*
Y44700D01*
X170900D01*
Y43900D01*
X170100D01*
Y44700D01*
X169300D01*
Y45500D01*
X170100D01*
Y46300D01*
X170900D01*
Y47100D01*
X171700D01*
Y46300D01*
X172500D01*
Y47100D01*
X174100D01*
Y47900D01*
X175700D01*
Y47100D01*
D02*
G37*
G36*
X169300Y43900D02*
Y43100D01*
X167700D01*
Y42300D01*
X165300D01*
Y43100D01*
X166100D01*
Y43900D01*
X166900D01*
Y44700D01*
X167700D01*
Y43900D01*
X168500D01*
Y44700D01*
X169300D01*
Y43900D01*
D02*
G37*
G36*
X162900Y40700D02*
X162100D01*
Y39900D01*
X161300D01*
Y40700D01*
X160500D01*
Y39900D01*
X159700D01*
Y40700D01*
Y41500D01*
X162900D01*
Y40700D01*
D02*
G37*
G36*
X159700Y39100D02*
X158900D01*
Y38300D01*
X158100D01*
Y39100D01*
X156500D01*
Y38300D01*
X155700D01*
Y37500D01*
X154100D01*
Y38300D01*
X154900D01*
Y39100D01*
Y39900D01*
X159700D01*
Y39100D01*
D02*
G37*
G36*
X154100Y36700D02*
X152500D01*
Y35900D01*
X151700D01*
Y35100D01*
X150100D01*
Y35900D01*
Y36700D01*
Y37500D01*
X154100D01*
Y36700D01*
D02*
G37*
G36*
X149300Y35100D02*
X147700D01*
Y34300D01*
X146900D01*
Y33500D01*
X144500D01*
Y34300D01*
X146100D01*
Y35100D01*
X146900D01*
Y35900D01*
X149300D01*
Y35100D01*
D02*
G37*
G36*
X140500Y31900D02*
Y31100D01*
X138100D01*
Y30300D01*
X136500D01*
Y29500D01*
X135700D01*
Y28700D01*
X133300D01*
Y27900D01*
X132500D01*
Y27100D01*
X131700D01*
Y26300D01*
X128500D01*
Y27100D01*
X129300D01*
Y27900D01*
X130900D01*
Y28700D01*
X132500D01*
Y29500D01*
X133300D01*
Y30300D01*
X134100D01*
Y29500D01*
X134900D01*
Y30300D01*
X135700D01*
Y31100D01*
X136500D01*
Y31900D01*
X139700D01*
Y32700D01*
X140500D01*
Y31900D01*
D02*
G37*
G36*
X128500Y25500D02*
X126100D01*
Y24700D01*
X125300D01*
Y23900D01*
X123700D01*
Y23100D01*
X122100D01*
Y22300D01*
X121300D01*
Y21500D01*
X120500D01*
Y22300D01*
X118900D01*
Y23100D01*
X119700D01*
Y23900D01*
X122900D01*
Y24700D01*
X123700D01*
Y25500D01*
X124500D01*
Y26300D01*
X128500D01*
Y25500D01*
D02*
G37*
D11*
X327600Y8798D02*
Y3800D01*
X326600Y2800D01*
X324601D01*
X323601Y3800D01*
Y8798D01*
X321602Y2800D02*
Y8798D01*
X319603Y6799D01*
X317603Y8798D01*
Y2800D01*
X311605Y7798D02*
X312605Y8798D01*
X314604D01*
X315604Y7798D01*
Y6799D01*
X314604Y5799D01*
X312605D01*
X311605Y4799D01*
Y3800D01*
X312605Y2800D01*
X314604D01*
X315604Y3800D01*
X309606Y2800D02*
Y6799D01*
X307607Y8798D01*
X305607Y6799D01*
Y2800D01*
Y5799D01*
X309606D01*
X303608Y8798D02*
X299609D01*
X301608D01*
Y2800D01*
X293611Y7798D02*
X294611Y8798D01*
X296610D01*
X297610Y7798D01*
Y6799D01*
X296610Y5799D01*
X294611D01*
X293611Y4799D01*
Y3800D01*
X294611Y2800D01*
X296610D01*
X297610Y3800D01*
X285614Y2800D02*
Y8798D01*
X282615D01*
X281615Y7798D01*
Y5799D01*
X282615Y4799D01*
X285614D01*
X283614D02*
X281615Y2800D01*
X278616D02*
X276617D01*
X275617Y3800D01*
Y5799D01*
X276617Y6799D01*
X278616D01*
X279615Y5799D01*
Y3800D01*
X278616Y2800D01*
X269619Y6799D02*
X272618D01*
X273618Y5799D01*
Y3800D01*
X272618Y2800D01*
X269619D01*
X267619D02*
Y8798D01*
Y4799D02*
X264620Y6799D01*
X267619Y4799D02*
X264620Y2800D01*
X258622D02*
X260622D01*
X261621Y3800D01*
Y5799D01*
X260622Y6799D01*
X258622D01*
X257623Y5799D01*
Y4799D01*
X261621D01*
X254624Y7798D02*
Y6799D01*
X255623D01*
X253624D01*
X254624D01*
Y3800D01*
X253624Y2800D01*
X250625Y6799D02*
Y2800D01*
Y4799D01*
X249625Y5799D01*
X248626Y6799D01*
X247626D01*
X244627D02*
Y3800D01*
X243627Y2800D01*
X240628D01*
Y1800D01*
X241628Y801D01*
X242628D01*
X240628Y2800D02*
Y6799D01*
X228632Y8798D02*
X232631D01*
Y5799D01*
X230631D01*
X232631D01*
Y2800D01*
X226633D02*
X224633D01*
X225633D01*
Y8798D01*
X226633D01*
X221634Y2800D02*
X219635D01*
X220635D01*
Y6799D01*
X221634D01*
X214636Y801D02*
X213637D01*
X212637Y1800D01*
Y6799D01*
X215636D01*
X216636Y5799D01*
Y3800D01*
X215636Y2800D01*
X212637D01*
X210638Y8798D02*
Y2800D01*
Y5799D01*
X209638Y6799D01*
X207639D01*
X206639Y5799D01*
Y2800D01*
X203640Y7798D02*
Y6799D01*
X204640D01*
X202640D01*
X203640D01*
Y3800D01*
X202640Y2800D01*
X189645Y7798D02*
X190644Y8798D01*
X192644D01*
X193643Y7798D01*
Y3800D01*
X192644Y2800D01*
X190644D01*
X189645Y3800D01*
X186646Y2800D02*
X184646D01*
X183647Y3800D01*
Y5799D01*
X184646Y6799D01*
X186646D01*
X187645Y5799D01*
Y3800D01*
X186646Y2800D01*
X181647D02*
Y6799D01*
X180648D01*
X179648Y5799D01*
Y2800D01*
Y5799D01*
X178648Y6799D01*
X177648Y5799D01*
Y2800D01*
X175649Y801D02*
Y6799D01*
X172650D01*
X171651Y5799D01*
Y3800D01*
X172650Y2800D01*
X175649D01*
X169651Y6799D02*
Y3800D01*
X168651Y2800D01*
X165652D01*
Y6799D01*
X162653Y7798D02*
Y6799D01*
X163653D01*
X161654D01*
X162653D01*
Y3800D01*
X161654Y2800D01*
X155656D02*
X157655D01*
X158655Y3800D01*
Y5799D01*
X157655Y6799D01*
X155656D01*
X154656Y5799D01*
Y4799D01*
X158655D01*
X152657Y6799D02*
Y2800D01*
Y4799D01*
X151657Y5799D01*
X150657Y6799D01*
X149658D01*
X140661Y2800D02*
Y8798D01*
X137661D01*
X136662Y7798D01*
Y5799D01*
X137661Y4799D01*
X140661D01*
X134662Y6799D02*
Y2800D01*
Y4799D01*
X133663Y5799D01*
X132663Y6799D01*
X131663D01*
X127665Y2800D02*
X125665D01*
X124666Y3800D01*
Y5799D01*
X125665Y6799D01*
X127665D01*
X128664Y5799D01*
Y3800D01*
X127665Y2800D01*
X121667Y7798D02*
Y6799D01*
X122666D01*
X120667D01*
X121667D01*
Y3800D01*
X120667Y2800D01*
X116668D02*
X114669D01*
X113669Y3800D01*
Y5799D01*
X114669Y6799D01*
X116668D01*
X117668Y5799D01*
Y3800D01*
X116668Y2800D01*
X110670Y7798D02*
Y6799D01*
X111670D01*
X109670D01*
X110670D01*
Y3800D01*
X109670Y2800D01*
X106672Y6799D02*
Y3800D01*
X105672Y2800D01*
X102673D01*
Y1800D01*
X103673Y801D01*
X104672D01*
X102673Y2800D02*
Y6799D01*
X100673Y801D02*
Y6799D01*
X97674D01*
X96675Y5799D01*
Y3800D01*
X97674Y2800D01*
X100673D01*
X91676D02*
X93676D01*
X94675Y3800D01*
Y5799D01*
X93676Y6799D01*
X91676D01*
X90677Y5799D01*
Y4799D01*
X94675D01*
X78680Y2800D02*
X82679D01*
X78680Y6799D01*
Y7798D01*
X79680Y8798D01*
X81680D01*
X82679Y7798D01*
X76681D02*
X75682Y8798D01*
X73682D01*
X72682Y7798D01*
Y3800D01*
X73682Y2800D01*
X75682D01*
X76681Y3800D01*
Y7798D01*
X70683Y2800D02*
X68684D01*
X69683D01*
Y8798D01*
X70683Y7798D01*
X65685Y3800D02*
X64685Y2800D01*
X62686D01*
X61686Y3800D01*
Y7798D01*
X62686Y8798D01*
X64685D01*
X65685Y7798D01*
Y6799D01*
X64685Y5799D01*
X61686D01*
X276400Y79600D02*
Y85598D01*
X273401D01*
X272401Y84598D01*
Y82599D01*
X273401Y81599D01*
X276400D01*
X274401D02*
X272401Y79600D01*
X270402D02*
X268403D01*
X269402D01*
Y85598D01*
X270402Y84598D01*
X265404D02*
X264404Y85598D01*
X262404D01*
X261405Y84598D01*
Y80600D01*
X262404Y79600D01*
X264404D01*
X265404Y80600D01*
Y84598D01*
M02*
