G04*
G04 #@! TF.GenerationSoftware,Altium Limited,Altium Designer,19.0.14 (431)*
G04*
G04 Layer_Physical_Order=2*
G04 Layer_Color=16711680*
%FSLAX25Y25*%
%MOIN*%
G70*
G01*
G75*
%ADD11C,0.01000*%
%ADD20R,0.03937X0.04528*%
%ADD83C,0.00600*%
%ADD85C,0.06299*%
%ADD86R,0.06299X0.06299*%
%ADD87C,0.06000*%
%ADD88C,0.06693*%
%ADD89R,0.06693X0.06693*%
%ADD90C,0.05906*%
%ADD91R,0.05906X0.05906*%
%ADD92C,0.02550*%
G36*
X378282Y149579D02*
X378282Y-27D01*
X329D01*
Y149579D01*
X378282Y149579D01*
D02*
G37*
%LPC*%
G36*
X366535Y143959D02*
X365144Y143776D01*
X363847Y143239D01*
X362734Y142385D01*
X361879Y141271D01*
X361342Y139974D01*
X361159Y138583D01*
X361342Y137191D01*
X361879Y135894D01*
X362734Y134781D01*
X363847Y133926D01*
X365144Y133389D01*
X366535Y133206D01*
X367927Y133389D01*
X369224Y133926D01*
X370337Y134781D01*
X371192Y135894D01*
X371729Y137191D01*
X371912Y138583D01*
X371729Y139974D01*
X371192Y141271D01*
X370337Y142385D01*
X369224Y143239D01*
X367927Y143776D01*
X366535Y143959D01*
D02*
G37*
G36*
X323715Y136220D02*
Y132600D01*
X327334D01*
X327258Y133183D01*
X326840Y134193D01*
X326174Y135059D01*
X325308Y135725D01*
X324298Y136143D01*
X323715Y136220D01*
D02*
G37*
G36*
X322715D02*
X322132Y136143D01*
X321122Y135725D01*
X320255Y135059D01*
X319590Y134193D01*
X319172Y133183D01*
X319095Y132600D01*
X322715D01*
Y136220D01*
D02*
G37*
G36*
X11811Y143172D02*
X10419Y142989D01*
X9123Y142452D01*
X8009Y141597D01*
X7155Y140484D01*
X6617Y139187D01*
X6434Y137795D01*
X6617Y136404D01*
X7155Y135107D01*
X8009Y133993D01*
X9123Y133139D01*
X10419Y132602D01*
X11811Y132419D01*
X13203Y132602D01*
X14499Y133139D01*
X15613Y133993D01*
X16467Y135107D01*
X17005Y136404D01*
X17188Y137795D01*
X17005Y139187D01*
X16467Y140484D01*
X15613Y141597D01*
X14499Y142452D01*
X13203Y142989D01*
X11811Y143172D01*
D02*
G37*
G36*
X81138Y133874D02*
X77685D01*
Y130421D01*
X81138D01*
Y133874D01*
D02*
G37*
G36*
X76685D02*
X73232D01*
Y130421D01*
X76685D01*
Y133874D01*
D02*
G37*
G36*
X327334Y131600D02*
X323715D01*
Y127980D01*
X324298Y128057D01*
X325308Y128475D01*
X326174Y129140D01*
X326840Y130007D01*
X327258Y131017D01*
X327334Y131600D01*
D02*
G37*
G36*
X322715D02*
X319095D01*
X319172Y131017D01*
X319590Y130007D01*
X320255Y129140D01*
X321122Y128475D01*
X322132Y128057D01*
X322715Y127980D01*
Y131600D01*
D02*
G37*
G36*
X347050Y136250D02*
X338750D01*
Y127950D01*
X347050D01*
Y136250D01*
D02*
G37*
G36*
X81138Y129421D02*
X77685D01*
Y125969D01*
X81138D01*
Y129421D01*
D02*
G37*
G36*
X76685D02*
X73232D01*
Y125969D01*
X76685D01*
Y129421D01*
D02*
G37*
G36*
X107185Y133908D02*
X106153Y133772D01*
X105192Y133374D01*
X104366Y132740D01*
X103732Y131915D01*
X103334Y130953D01*
X103198Y129921D01*
X103334Y128889D01*
X103732Y127928D01*
X104366Y127102D01*
X105192Y126469D01*
X106153Y126070D01*
X107185Y125934D01*
X108217Y126070D01*
X109178Y126469D01*
X110004Y127102D01*
X110638Y127928D01*
X111036Y128889D01*
X111172Y129921D01*
X111036Y130953D01*
X110638Y131915D01*
X110004Y132740D01*
X109178Y133374D01*
X108217Y133772D01*
X107185Y133908D01*
D02*
G37*
G36*
X97185D02*
X96153Y133772D01*
X95192Y133374D01*
X94366Y132740D01*
X93732Y131915D01*
X93334Y130953D01*
X93198Y129921D01*
X93334Y128889D01*
X93732Y127928D01*
X94366Y127102D01*
X95192Y126469D01*
X96153Y126070D01*
X97185Y125934D01*
X98217Y126070D01*
X99178Y126469D01*
X100004Y127102D01*
X100638Y127928D01*
X101036Y128889D01*
X101172Y129921D01*
X101036Y130953D01*
X100638Y131915D01*
X100004Y132740D01*
X99178Y133374D01*
X98217Y133772D01*
X97185Y133908D01*
D02*
G37*
G36*
X87185D02*
X86153Y133772D01*
X85192Y133374D01*
X84366Y132740D01*
X83732Y131915D01*
X83334Y130953D01*
X83198Y129921D01*
X83334Y128889D01*
X83732Y127928D01*
X84366Y127102D01*
X85192Y126469D01*
X86153Y126070D01*
X87185Y125934D01*
X88217Y126070D01*
X89179Y126469D01*
X90004Y127102D01*
X90638Y127928D01*
X91036Y128889D01*
X91172Y129921D01*
X91036Y130953D01*
X90638Y131915D01*
X90004Y132740D01*
X89179Y133374D01*
X88217Y133772D01*
X87185Y133908D01*
D02*
G37*
G36*
X272638Y100450D02*
X271750Y100273D01*
X270998Y99770D01*
X270787Y99455D01*
X250197D01*
X249690Y99354D01*
X249260Y99067D01*
X227502Y77310D01*
X210906D01*
X210695Y77624D01*
X209943Y78127D01*
X209055Y78304D01*
X208168Y78127D01*
X207415Y77624D01*
X206912Y76872D01*
X206735Y75984D01*
X206912Y75097D01*
X207415Y74344D01*
X208168Y73841D01*
X209055Y73665D01*
X209943Y73841D01*
X210695Y74344D01*
X210906Y74659D01*
X228051D01*
X228558Y74760D01*
X228988Y75047D01*
X250746Y96804D01*
X270787D01*
X270998Y96490D01*
X271750Y95987D01*
X272638Y95810D01*
X273526Y95987D01*
X274278Y96490D01*
X274781Y97242D01*
X274957Y98130D01*
X274781Y99018D01*
X274278Y99770D01*
X273526Y100273D01*
X272638Y100450D01*
D02*
G37*
G36*
X283875Y84508D02*
X282987Y84332D01*
X282234Y83829D01*
X281732Y83076D01*
X281555Y82189D01*
X281594Y81992D01*
X272581Y72979D01*
X252441D01*
X252231Y73294D01*
X251478Y73796D01*
X250590Y73973D01*
X249703Y73796D01*
X248950Y73294D01*
X248447Y72541D01*
X248271Y71653D01*
X248447Y70766D01*
X248950Y70013D01*
X249703Y69511D01*
X250590Y69334D01*
X251478Y69511D01*
X252231Y70013D01*
X252441Y70328D01*
X273130D01*
X273637Y70429D01*
X274067Y70716D01*
X283329Y79978D01*
X283875Y79869D01*
X284762Y80046D01*
X285515Y80548D01*
X286018Y81301D01*
X286194Y82189D01*
X286018Y83076D01*
X285515Y83829D01*
X284762Y84332D01*
X283875Y84508D01*
D02*
G37*
G36*
X259449Y96119D02*
X258561Y95942D01*
X257809Y95439D01*
X257306Y94687D01*
X257129Y93799D01*
X257306Y92911D01*
X257809Y92159D01*
X258123Y91949D01*
Y89919D01*
X256833Y88629D01*
X255020D01*
X254868Y88598D01*
X251165D01*
Y82071D01*
Y78594D01*
X250005D01*
X249498Y78493D01*
X249067Y78206D01*
X233998Y63137D01*
X231083D01*
X230873Y63451D01*
X230120Y63954D01*
X229232Y64131D01*
X228345Y63954D01*
X227592Y63451D01*
X227089Y62699D01*
X226913Y61811D01*
X227089Y60923D01*
X227592Y60171D01*
X228345Y59668D01*
X229232Y59491D01*
X230120Y59668D01*
X230873Y60171D01*
X231083Y60486D01*
X234547D01*
X235054Y60587D01*
X235485Y60874D01*
X250554Y75943D01*
X251165D01*
Y75575D01*
X257102D01*
Y82045D01*
X258600D01*
X259565Y81080D01*
X259491Y80709D01*
X259668Y79821D01*
X260171Y79068D01*
X260923Y78566D01*
X261811Y78389D01*
X262699Y78566D01*
X263451Y79068D01*
X263954Y79821D01*
X264131Y80709D01*
X263954Y81596D01*
X263451Y82349D01*
X262699Y82852D01*
X261811Y83028D01*
X261440Y82954D01*
X260086Y84308D01*
X259656Y84595D01*
X259149Y84696D01*
X257102D01*
Y85978D01*
X257382D01*
X257889Y86079D01*
X258319Y86366D01*
X260386Y88433D01*
X260673Y88863D01*
X260774Y89370D01*
Y91949D01*
X261089Y92159D01*
X261592Y92911D01*
X261768Y93799D01*
X261592Y94687D01*
X261089Y95439D01*
X260336Y95942D01*
X259449Y96119D01*
D02*
G37*
G36*
X19685Y85565D02*
X18550Y85416D01*
X17493Y84978D01*
X16585Y84281D01*
X15888Y83373D01*
X15450Y82316D01*
X15301Y81181D01*
X15450Y80046D01*
X15888Y78989D01*
X16585Y78081D01*
X17493Y77385D01*
X18550Y76947D01*
X19685Y76797D01*
X20820Y76947D01*
X21877Y77385D01*
X22785Y78081D01*
X23482Y78989D01*
X23920Y80046D01*
X24069Y81181D01*
X23920Y82316D01*
X23482Y83373D01*
X22785Y84281D01*
X21877Y84978D01*
X20820Y85416D01*
X19685Y85565D01*
D02*
G37*
G36*
X87894Y80666D02*
X87006Y80489D01*
X86253Y79987D01*
X85751Y79234D01*
X85574Y78347D01*
X85751Y77459D01*
X86253Y76706D01*
X87006Y76204D01*
X87894Y76027D01*
X88781Y76204D01*
X89534Y76706D01*
X89608Y76817D01*
X90311D01*
X95669Y71459D01*
X95867Y71163D01*
X96364Y70831D01*
X96949Y70715D01*
X125943D01*
X126017Y70604D01*
X126770Y70101D01*
X127657Y69924D01*
X128545Y70101D01*
X129298Y70604D01*
X129800Y71356D01*
X129977Y72244D01*
X129800Y73132D01*
X129298Y73884D01*
X128545Y74387D01*
X127657Y74564D01*
X126770Y74387D01*
X126017Y73884D01*
X125943Y73773D01*
X97681D01*
X92026Y79428D01*
X91530Y79759D01*
X90945Y79876D01*
X89608D01*
X89534Y79987D01*
X88781Y80489D01*
X87894Y80666D01*
D02*
G37*
G36*
X19685Y75565D02*
X18550Y75416D01*
X17493Y74978D01*
X16585Y74281D01*
X15888Y73373D01*
X15450Y72316D01*
X15301Y71181D01*
X15450Y70047D01*
X15888Y68989D01*
X16585Y68081D01*
X17493Y67384D01*
X18550Y66947D01*
X19685Y66797D01*
X20820Y66947D01*
X21877Y67384D01*
X22785Y68081D01*
X23482Y68989D01*
X23920Y70047D01*
X24069Y71181D01*
X23920Y72316D01*
X23482Y73373D01*
X22785Y74281D01*
X21877Y74978D01*
X20820Y75416D01*
X19685Y75565D01*
D02*
G37*
G36*
X20185Y65499D02*
Y61681D01*
X24003D01*
X23920Y62316D01*
X23482Y63373D01*
X22785Y64281D01*
X21877Y64978D01*
X20820Y65416D01*
X20185Y65499D01*
D02*
G37*
G36*
X19185D02*
X18550Y65416D01*
X17493Y64978D01*
X16585Y64281D01*
X15888Y63373D01*
X15450Y62316D01*
X15367Y61681D01*
X19185D01*
Y65499D01*
D02*
G37*
G36*
X24003Y60681D02*
X20185D01*
Y56863D01*
X20820Y56946D01*
X21877Y57385D01*
X22785Y58081D01*
X23482Y58989D01*
X23920Y60046D01*
X24003Y60681D01*
D02*
G37*
G36*
X19185D02*
X15367D01*
X15450Y60046D01*
X15888Y58989D01*
X16585Y58081D01*
X17493Y57385D01*
X18550Y56946D01*
X19185Y56863D01*
Y60681D01*
D02*
G37*
G36*
X83957Y76237D02*
X83069Y76060D01*
X82316Y75558D01*
X81814Y74805D01*
X81637Y73917D01*
X81814Y73030D01*
X82316Y72277D01*
X83069Y71774D01*
X83957Y71598D01*
X84844Y71774D01*
X85294Y72075D01*
X86792D01*
X102074Y56793D01*
X102570Y56461D01*
X103156Y56345D01*
X120235D01*
X120309Y56234D01*
X121061Y55731D01*
X121949Y55554D01*
X122836Y55731D01*
X123589Y56234D01*
X124092Y56986D01*
X124268Y57874D01*
X124092Y58762D01*
X123589Y59514D01*
X122836Y60017D01*
X121949Y60194D01*
X121061Y60017D01*
X120309Y59514D01*
X120235Y59403D01*
X103789D01*
X88507Y74686D01*
X88011Y75017D01*
X87425Y75134D01*
X85880D01*
X85597Y75558D01*
X84844Y76060D01*
X83957Y76237D01*
D02*
G37*
G36*
X24032Y55528D02*
X20185D01*
Y51681D01*
X24032D01*
Y55528D01*
D02*
G37*
G36*
X19185D02*
X15339D01*
Y51681D01*
X19185D01*
Y55528D01*
D02*
G37*
G36*
X211024Y70233D02*
X210136Y70056D01*
X209383Y69554D01*
X208881Y68801D01*
X208704Y67913D01*
X208881Y67026D01*
X209383Y66273D01*
X210136Y65770D01*
X211024Y65594D01*
X211395Y65668D01*
X225539Y51523D01*
X225969Y51236D01*
X226476Y51135D01*
X266620D01*
X266962Y50624D01*
X267715Y50121D01*
X268602Y49944D01*
X269490Y50121D01*
X270243Y50624D01*
X270745Y51376D01*
X270922Y52264D01*
X270745Y53151D01*
X270243Y53904D01*
X269490Y54407D01*
X268602Y54583D01*
X267715Y54407D01*
X266962Y53904D01*
X266883Y53786D01*
X227025D01*
X213269Y67542D01*
X213343Y67913D01*
X213167Y68801D01*
X212664Y69554D01*
X211911Y70056D01*
X211024Y70233D01*
D02*
G37*
G36*
X24032Y50681D02*
X20185D01*
Y46835D01*
X24032D01*
Y50681D01*
D02*
G37*
G36*
X19185D02*
X15339D01*
Y46835D01*
X19185D01*
Y50681D01*
D02*
G37*
G36*
X96457Y46316D02*
X95569Y46139D01*
X94816Y45636D01*
X94677Y45427D01*
X43939D01*
X43865Y45538D01*
X43112Y46041D01*
X42224Y46217D01*
X41337Y46041D01*
X40584Y45538D01*
X40081Y44785D01*
X39905Y43898D01*
X40081Y43010D01*
X40584Y42257D01*
X41337Y41755D01*
X42224Y41578D01*
X43112Y41755D01*
X43865Y42257D01*
X43939Y42368D01*
X94808D01*
X94816Y42356D01*
X95569Y41853D01*
X96457Y41677D01*
X97344Y41853D01*
X98097Y42356D01*
X98600Y43108D01*
X98776Y43996D01*
X98600Y44884D01*
X98097Y45636D01*
X97344Y46139D01*
X96457Y46316D01*
D02*
G37*
G36*
X170768Y43363D02*
X169880Y43186D01*
X169128Y42684D01*
X168625Y41931D01*
X168448Y41043D01*
X168501Y40776D01*
X165251Y37525D01*
X163965D01*
X163458Y37425D01*
X163028Y37137D01*
X162685Y36794D01*
X162314Y36868D01*
X161426Y36692D01*
X160673Y36189D01*
X160171Y35436D01*
X159994Y34549D01*
X160171Y33661D01*
X160673Y32909D01*
X161426Y32406D01*
X162314Y32229D01*
X163201Y32406D01*
X163954Y32909D01*
X164457Y33661D01*
X164633Y34549D01*
X164584Y34797D01*
X164647Y34874D01*
X165800D01*
X166307Y34975D01*
X166737Y35263D01*
X170293Y38818D01*
X170768Y38724D01*
X171655Y38900D01*
X172408Y39403D01*
X172911Y40156D01*
X173087Y41043D01*
X172911Y41931D01*
X172408Y42684D01*
X171655Y43186D01*
X170768Y43363D01*
D02*
G37*
G36*
X205300Y70320D02*
X204412Y70143D01*
X203660Y69640D01*
X203157Y68888D01*
X202980Y68000D01*
X203157Y67112D01*
X203660Y66360D01*
X204412Y65857D01*
X205300Y65680D01*
X205671Y65754D01*
X225611Y45815D01*
X226041Y45527D01*
X226548Y45426D01*
X276026D01*
X281476Y39976D01*
X281617Y39270D01*
X282120Y38517D01*
X282872Y38015D01*
X283760Y37838D01*
X284647Y38015D01*
X285400Y38517D01*
X285903Y39270D01*
X286079Y40157D01*
X285903Y41045D01*
X285400Y41798D01*
X284647Y42301D01*
X283760Y42477D01*
X282896Y42305D01*
X277512Y47689D01*
X277082Y47976D01*
X276575Y48077D01*
X227097D01*
X207546Y67629D01*
X207620Y68000D01*
X207443Y68888D01*
X206940Y69640D01*
X206188Y70143D01*
X205300Y70320D01*
D02*
G37*
G36*
X191831Y72398D02*
X190943Y72222D01*
X190190Y71719D01*
X189688Y70966D01*
X189511Y70079D01*
X189688Y69191D01*
X190190Y68439D01*
X190505Y68228D01*
Y65748D01*
X190606Y65241D01*
X190893Y64811D01*
X216582Y39122D01*
X217012Y38835D01*
X217520Y38734D01*
X271772D01*
X271982Y38419D01*
X272734Y37916D01*
X273622Y37740D01*
X274510Y37916D01*
X275262Y38419D01*
X275765Y39171D01*
X275942Y40059D01*
X275765Y40947D01*
X275262Y41699D01*
X274510Y42202D01*
X273622Y42379D01*
X272734Y42202D01*
X271982Y41699D01*
X271772Y41385D01*
X218069D01*
X193156Y66297D01*
Y68228D01*
X193471Y68439D01*
X193974Y69191D01*
X194150Y70079D01*
X193974Y70966D01*
X193471Y71719D01*
X192718Y72222D01*
X191831Y72398D01*
D02*
G37*
G36*
X169095Y60194D02*
X168207Y60017D01*
X167454Y59514D01*
X166952Y58762D01*
X166775Y57874D01*
X166952Y56986D01*
X167454Y56234D01*
X167774Y56020D01*
Y52031D01*
X151946Y36202D01*
X151575Y36276D01*
X150687Y36100D01*
X149935Y35597D01*
X149432Y34844D01*
X149255Y33957D01*
X149432Y33069D01*
X149935Y32316D01*
X150687Y31814D01*
X151575Y31637D01*
X152462Y31814D01*
X153215Y32316D01*
X153718Y33069D01*
X153894Y33957D01*
X153821Y34328D01*
X170037Y50545D01*
X170325Y50975D01*
X170425Y51482D01*
Y56027D01*
X170735Y56234D01*
X171238Y56986D01*
X171414Y57874D01*
X171238Y58762D01*
X170735Y59514D01*
X169982Y60017D01*
X169095Y60194D01*
D02*
G37*
G36*
X254279Y35417D02*
Y31996D01*
X257701D01*
X257630Y32528D01*
X257232Y33490D01*
X256599Y34315D01*
X255773Y34949D01*
X254811Y35347D01*
X254279Y35417D01*
D02*
G37*
G36*
X253279D02*
X252748Y35347D01*
X251786Y34949D01*
X250960Y34315D01*
X250327Y33490D01*
X249928Y32528D01*
X249858Y31996D01*
X253279D01*
Y35417D01*
D02*
G37*
G36*
X257701Y30996D02*
X254279D01*
Y27575D01*
X254811Y27645D01*
X255773Y28043D01*
X256599Y28677D01*
X257232Y29503D01*
X257630Y30464D01*
X257701Y30996D01*
D02*
G37*
G36*
X253279D02*
X249858D01*
X249928Y30464D01*
X250327Y29503D01*
X250960Y28677D01*
X251786Y28043D01*
X252748Y27645D01*
X253279Y27575D01*
Y30996D01*
D02*
G37*
G36*
X237732Y35449D02*
X229827D01*
Y27543D01*
X237732D01*
Y35449D01*
D02*
G37*
G36*
X293779Y35483D02*
X292748Y35347D01*
X291786Y34949D01*
X290960Y34315D01*
X290327Y33490D01*
X289929Y32528D01*
X289793Y31496D01*
X289929Y30464D01*
X290327Y29503D01*
X290960Y28677D01*
X291786Y28043D01*
X292748Y27645D01*
X293779Y27509D01*
X294811Y27645D01*
X295773Y28043D01*
X296599Y28677D01*
X297232Y29503D01*
X297631Y30464D01*
X297766Y31496D01*
X297631Y32528D01*
X297232Y33490D01*
X296599Y34315D01*
X295773Y34949D01*
X294811Y35347D01*
X293779Y35483D01*
D02*
G37*
G36*
X283780D02*
X282748Y35347D01*
X281786Y34949D01*
X280960Y34315D01*
X280327Y33490D01*
X279928Y32528D01*
X279793Y31496D01*
X279928Y30464D01*
X280327Y29503D01*
X280960Y28677D01*
X281786Y28043D01*
X282748Y27645D01*
X283780Y27509D01*
X284811Y27645D01*
X285773Y28043D01*
X286599Y28677D01*
X287232Y29503D01*
X287631Y30464D01*
X287766Y31496D01*
X287631Y32528D01*
X287232Y33490D01*
X286599Y34315D01*
X285773Y34949D01*
X284811Y35347D01*
X283780Y35483D01*
D02*
G37*
G36*
X273780D02*
X272748Y35347D01*
X271786Y34949D01*
X270960Y34315D01*
X270327Y33490D01*
X269929Y32528D01*
X269793Y31496D01*
X269929Y30464D01*
X270327Y29503D01*
X270960Y28677D01*
X271786Y28043D01*
X272748Y27645D01*
X273780Y27509D01*
X274811Y27645D01*
X275773Y28043D01*
X276599Y28677D01*
X277232Y29503D01*
X277630Y30464D01*
X277766Y31496D01*
X277630Y32528D01*
X277232Y33490D01*
X276599Y34315D01*
X275773Y34949D01*
X274811Y35347D01*
X273780Y35483D01*
D02*
G37*
G36*
X263779D02*
X262748Y35347D01*
X261786Y34949D01*
X260960Y34315D01*
X260327Y33490D01*
X259928Y32528D01*
X259793Y31496D01*
X259928Y30464D01*
X260327Y29503D01*
X260960Y28677D01*
X261786Y28043D01*
X262748Y27645D01*
X263779Y27509D01*
X264811Y27645D01*
X265773Y28043D01*
X266599Y28677D01*
X267232Y29503D01*
X267631Y30464D01*
X267766Y31496D01*
X267631Y32528D01*
X267232Y33490D01*
X266599Y34315D01*
X265773Y34949D01*
X264811Y35347D01*
X263779Y35483D01*
D02*
G37*
G36*
X243779D02*
X242748Y35347D01*
X241786Y34949D01*
X240960Y34315D01*
X240327Y33490D01*
X239929Y32528D01*
X239793Y31496D01*
X239929Y30464D01*
X240327Y29503D01*
X240960Y28677D01*
X241786Y28043D01*
X242748Y27645D01*
X243779Y27509D01*
X244811Y27645D01*
X245773Y28043D01*
X246599Y28677D01*
X247232Y29503D01*
X247631Y30464D01*
X247766Y31496D01*
X247631Y32528D01*
X247232Y33490D01*
X246599Y34315D01*
X245773Y34949D01*
X244811Y35347D01*
X243779Y35483D01*
D02*
G37*
G36*
X321957Y26420D02*
Y22800D01*
X325577D01*
X325500Y23383D01*
X325082Y24393D01*
X324417Y25260D01*
X323550Y25925D01*
X322541Y26343D01*
X321957Y26420D01*
D02*
G37*
G36*
X320957D02*
X320374Y26343D01*
X319365Y25925D01*
X318498Y25260D01*
X317833Y24393D01*
X317415Y23383D01*
X317338Y22800D01*
X320957D01*
Y26420D01*
D02*
G37*
G36*
X325577Y21800D02*
X321957D01*
Y18180D01*
X322541Y18257D01*
X323550Y18675D01*
X324417Y19341D01*
X325082Y20207D01*
X325500Y21217D01*
X325577Y21800D01*
D02*
G37*
G36*
X320957D02*
X317338D01*
X317415Y21217D01*
X317833Y20207D01*
X318498Y19341D01*
X319365Y18675D01*
X320374Y18257D01*
X320957Y18180D01*
Y21800D01*
D02*
G37*
G36*
X345292Y26450D02*
X336993D01*
Y18150D01*
X345292D01*
Y26450D01*
D02*
G37*
G36*
X220390Y23441D02*
X212484D01*
Y15535D01*
X220390D01*
Y23441D01*
D02*
G37*
G36*
X206437Y23475D02*
X205405Y23339D01*
X204444Y22941D01*
X203618Y22307D01*
X202984Y21482D01*
X202586Y20520D01*
X202450Y19488D01*
X202586Y18456D01*
X202984Y17495D01*
X203618Y16669D01*
X204444Y16036D01*
X205405Y15637D01*
X206437Y15501D01*
X207469Y15637D01*
X208430Y16036D01*
X209256Y16669D01*
X209890Y17495D01*
X210288Y18456D01*
X210424Y19488D01*
X210288Y20520D01*
X209890Y21482D01*
X209256Y22307D01*
X208430Y22941D01*
X207469Y23339D01*
X206437Y23475D01*
D02*
G37*
G36*
X147539Y43855D02*
X146652Y43678D01*
X145899Y43176D01*
X145396Y42423D01*
X145220Y41535D01*
X145396Y40648D01*
X145899Y39895D01*
X146214Y39685D01*
Y23720D01*
X146315Y23213D01*
X146602Y22783D01*
X151298Y18088D01*
X151224Y17717D01*
X151400Y16829D01*
X151903Y16076D01*
X152656Y15574D01*
X153543Y15397D01*
X154431Y15574D01*
X155183Y16076D01*
X155686Y16829D01*
X155863Y17717D01*
X155686Y18604D01*
X155183Y19357D01*
X154431Y19860D01*
X153543Y20036D01*
X153172Y19962D01*
X148865Y24270D01*
Y39685D01*
X149179Y39895D01*
X149682Y40648D01*
X149859Y41535D01*
X149682Y42423D01*
X149179Y43176D01*
X148427Y43678D01*
X147539Y43855D01*
D02*
G37*
G36*
X366142Y17188D02*
X364750Y17005D01*
X363453Y16467D01*
X362340Y15613D01*
X361485Y14499D01*
X360948Y13203D01*
X360765Y11811D01*
X360948Y10419D01*
X361485Y9123D01*
X362340Y8009D01*
X363453Y7155D01*
X364750Y6617D01*
X366142Y6434D01*
X367533Y6617D01*
X368830Y7155D01*
X369944Y8009D01*
X370798Y9123D01*
X371335Y10419D01*
X371518Y11811D01*
X371335Y13203D01*
X370798Y14499D01*
X369944Y15613D01*
X368830Y16467D01*
X367533Y17005D01*
X366142Y17188D01*
D02*
G37*
G36*
X11811D02*
X10419Y17005D01*
X9123Y16467D01*
X8009Y15613D01*
X7155Y14499D01*
X6617Y13203D01*
X6434Y11811D01*
X6617Y10419D01*
X7155Y9123D01*
X8009Y8009D01*
X9123Y7155D01*
X10419Y6617D01*
X11811Y6434D01*
X13203Y6617D01*
X14499Y7155D01*
X15613Y8009D01*
X16467Y9123D01*
X17005Y10419D01*
X17188Y11811D01*
X17005Y13203D01*
X16467Y14499D01*
X15613Y15613D01*
X14499Y16467D01*
X13203Y17005D01*
X11811Y17188D01*
D02*
G37*
%LPD*%
D11*
X103156Y57874D02*
X121949D01*
X87425Y73604D02*
X103156Y57874D01*
X96358Y43898D02*
X96457Y43996D01*
X42224Y43898D02*
X96358D01*
X96949Y72244D02*
X127657D01*
X84270Y73604D02*
X87425D01*
X84153Y73721D02*
X84270Y73604D01*
X96949Y72244D02*
X96998Y72293D01*
X90945Y78347D02*
X96998Y72293D01*
X87894Y78347D02*
X90945D01*
D20*
X254134Y85335D02*
D03*
Y78839D02*
D03*
D83*
X165800Y36200D02*
X170700Y41100D01*
X163965Y36200D02*
X165800D01*
X162314Y34549D02*
X163965Y36200D01*
X226548Y46752D02*
X276575D01*
X205300Y68000D02*
X226548Y46752D01*
X169095Y56791D02*
X169100Y56786D01*
Y51482D02*
Y56786D01*
X151575Y33957D02*
X169100Y51482D01*
X226476Y52461D02*
X269291D01*
X283665Y82189D02*
X283875D01*
X147539Y23720D02*
Y41535D01*
Y23720D02*
X153543Y17717D01*
X273130Y71653D02*
X283665Y82189D01*
X250590Y71653D02*
X273130D01*
X191831Y65748D02*
X217520Y40059D01*
X273622D01*
X276575Y46752D02*
X283169Y40157D01*
X283760D01*
X191831Y65748D02*
Y70079D01*
X209055Y75984D02*
X228051D01*
X259449Y89370D02*
Y93799D01*
X259149Y83371D02*
X261811Y80709D01*
X211024Y67913D02*
X226476Y52461D01*
X234547Y61811D02*
X250005Y77268D01*
X229232Y61811D02*
X234547D01*
X228051Y75984D02*
X250197Y98130D01*
X272638D01*
X169095Y56791D02*
Y57874D01*
X250005Y77268D02*
X252465D01*
X254035Y78839D01*
X255610Y83563D02*
Y84547D01*
X257382Y87303D02*
X259449Y89370D01*
X255020Y87303D02*
X257382D01*
X255802Y83371D02*
X259149D01*
X255610Y83563D02*
X255802Y83371D01*
D85*
X321458Y22300D02*
D03*
X323215Y132100D02*
D03*
D86*
X341143Y22300D02*
D03*
X342900Y132100D02*
D03*
D87*
X11811Y11811D02*
D03*
Y137795D02*
D03*
X366142Y11811D02*
D03*
X366535Y138583D02*
D03*
D88*
X19685Y81181D02*
D03*
Y71181D02*
D03*
Y61181D02*
D03*
D89*
Y51181D02*
D03*
D90*
X107185Y129921D02*
D03*
X97185D02*
D03*
X87185D02*
D03*
X206437Y19488D02*
D03*
X293779Y31496D02*
D03*
X283780D02*
D03*
X273780D02*
D03*
X263779D02*
D03*
X243779D02*
D03*
X253780D02*
D03*
D91*
X77185Y129921D02*
D03*
X216437Y19488D02*
D03*
X233780Y31496D02*
D03*
D92*
X315860Y63020D02*
D03*
X278200Y116600D02*
D03*
X304900Y119500D02*
D03*
X205300Y68000D02*
D03*
X221260Y86319D02*
D03*
X281900Y98800D02*
D03*
X32677Y129921D02*
D03*
X92028Y27559D02*
D03*
X64961Y96850D02*
D03*
X283875Y82189D02*
D03*
X196063Y38976D02*
D03*
X170768Y41043D02*
D03*
X237697Y75787D02*
D03*
X191142Y79528D02*
D03*
X220571Y93602D02*
D03*
X135728Y129232D02*
D03*
X134055Y101476D02*
D03*
X152264Y92913D02*
D03*
X152165Y102461D02*
D03*
X169095Y87598D02*
D03*
X234744Y105217D02*
D03*
X212795Y105118D02*
D03*
X175591Y135827D02*
D03*
X71949Y64468D02*
D03*
X134153Y31791D02*
D03*
X160925Y62795D02*
D03*
X127657Y72244D02*
D03*
X96457Y43996D02*
D03*
X121949Y57874D02*
D03*
X136909Y20866D02*
D03*
X159843Y21654D02*
D03*
X143996Y33268D02*
D03*
X151575Y33957D02*
D03*
X92028Y12205D02*
D03*
X48130D02*
D03*
X284055Y75787D02*
D03*
X273622Y40059D02*
D03*
X283760Y40157D02*
D03*
X209055Y75984D02*
D03*
X207283Y37894D02*
D03*
X272638Y98130D02*
D03*
X259449Y93799D02*
D03*
X261811Y80709D02*
D03*
X107776Y101476D02*
D03*
X37697Y107874D02*
D03*
X42224Y43898D02*
D03*
X87894Y78347D02*
D03*
X83957Y73917D02*
D03*
X268602Y52264D02*
D03*
X211024Y67913D02*
D03*
X229232Y61811D02*
D03*
X169095Y57874D02*
D03*
X147539Y41535D02*
D03*
X162314Y34549D02*
D03*
X153543Y17717D02*
D03*
X191831Y70079D02*
D03*
X250590Y71653D02*
D03*
X304921Y105709D02*
D03*
M02*
