G04*
G04 #@! TF.GenerationSoftware,Altium Limited,Altium Designer,19.0.14 (431)*
G04*
G04 Layer_Color=8388736*
%FSLAX25Y25*%
%MOIN*%
G70*
G01*
G75*
%ADD47R,0.03556X0.06706*%
%ADD48R,0.04737X0.05328*%
%ADD49O,0.09461X0.03162*%
%ADD50R,0.08280X0.05918*%
%ADD51R,0.22847X0.09068*%
%ADD52R,0.03084X0.08832*%
%ADD53R,0.01772X0.01575*%
%ADD54R,0.01575X0.01772*%
%ADD55R,0.03642X0.01575*%
%ADD56R,0.01772X0.03839*%
%ADD57R,0.05564X0.03123*%
%ADD58O,0.05918X0.01981*%
%ADD59O,0.01981X0.05918*%
%ADD60R,0.04343X0.04737*%
%ADD61R,0.04737X0.04343*%
%ADD62R,0.05328X0.04737*%
%ADD63R,0.04343X0.04934*%
%ADD64R,0.04934X0.04343*%
%ADD65R,0.04934X0.07493*%
%ADD66R,0.07493X0.04934*%
%ADD67R,0.05403X0.04202*%
%ADD68R,0.04934X0.05524*%
%ADD69R,0.05524X0.04934*%
%ADD70R,0.08280X0.06902*%
%ADD71R,0.05721X0.05131*%
%ADD72R,0.08674X0.06902*%
%ADD73R,0.03359X0.05524*%
%ADD74R,0.13989X0.05721*%
%ADD75C,0.07099*%
%ADD76R,0.07099X0.07099*%
%ADD77C,0.06800*%
%ADD78C,0.07493*%
%ADD79R,0.07493X0.07493*%
%ADD80C,0.06706*%
%ADD81R,0.06706X0.06706*%
D47*
X352200Y74125D02*
D03*
X347200D02*
D03*
X342200D02*
D03*
X337200D02*
D03*
Y52275D02*
D03*
X342200D02*
D03*
X347200D02*
D03*
X352200D02*
D03*
D48*
X266200Y110855D02*
D03*
Y117745D02*
D03*
X255900Y110555D02*
D03*
Y117445D02*
D03*
X177165Y17224D02*
D03*
Y10335D02*
D03*
X87598Y42717D02*
D03*
Y36220D02*
D03*
X175984Y26969D02*
D03*
Y33465D02*
D03*
X367700Y66800D02*
D03*
Y59910D02*
D03*
X327866Y106398D02*
D03*
Y99508D02*
D03*
X324900Y46755D02*
D03*
Y53645D02*
D03*
X366929Y86910D02*
D03*
Y80020D02*
D03*
X304823Y96850D02*
D03*
Y89961D02*
D03*
D49*
X291579Y127015D02*
D03*
Y132015D02*
D03*
Y137015D02*
D03*
Y142015D02*
D03*
X272682Y127015D02*
D03*
Y132015D02*
D03*
Y137015D02*
D03*
Y142015D02*
D03*
D50*
X229134Y115748D02*
D03*
Y137402D02*
D03*
X216535D02*
D03*
Y115748D02*
D03*
D51*
X193996Y120669D02*
D03*
X156595D02*
D03*
D52*
X42047Y72067D02*
D03*
X47047D02*
D03*
X52047D02*
D03*
X57047D02*
D03*
X62047D02*
D03*
X67047D02*
D03*
X72047D02*
D03*
X77047D02*
D03*
Y35413D02*
D03*
X72047D02*
D03*
X67047D02*
D03*
X62047D02*
D03*
X57047D02*
D03*
X52047D02*
D03*
X47047D02*
D03*
X42047D02*
D03*
D53*
X149488Y23622D02*
D03*
Y25591D02*
D03*
Y27559D02*
D03*
X155512D02*
D03*
Y25591D02*
D03*
Y23622D02*
D03*
D54*
X151516Y28602D02*
D03*
X153484D02*
D03*
Y22579D02*
D03*
X151516D02*
D03*
D55*
X277421Y78740D02*
D03*
Y80709D02*
D03*
Y82677D02*
D03*
Y84646D02*
D03*
Y86614D02*
D03*
Y88583D02*
D03*
X267854Y78740D02*
D03*
Y80709D02*
D03*
Y82677D02*
D03*
Y84646D02*
D03*
Y86614D02*
D03*
Y88583D02*
D03*
X277421Y90551D02*
D03*
X267854D02*
D03*
D56*
X272638Y76910D02*
D03*
Y92382D02*
D03*
D57*
X53917Y111417D02*
D03*
Y103937D02*
D03*
X44035D02*
D03*
Y107677D02*
D03*
Y111417D02*
D03*
D58*
X198228Y85827D02*
D03*
Y83858D02*
D03*
Y81890D02*
D03*
Y79921D02*
D03*
Y77953D02*
D03*
Y75984D02*
D03*
Y74016D02*
D03*
Y72047D02*
D03*
Y70079D02*
D03*
Y68110D02*
D03*
Y66142D02*
D03*
Y64173D02*
D03*
Y62205D02*
D03*
Y60236D02*
D03*
Y58268D02*
D03*
Y56299D02*
D03*
X153740D02*
D03*
Y58268D02*
D03*
Y60236D02*
D03*
Y62205D02*
D03*
Y64173D02*
D03*
Y66142D02*
D03*
Y68110D02*
D03*
Y70079D02*
D03*
Y72047D02*
D03*
Y74016D02*
D03*
Y75984D02*
D03*
Y77953D02*
D03*
Y79921D02*
D03*
Y81890D02*
D03*
Y83858D02*
D03*
Y85827D02*
D03*
D59*
X190748Y48819D02*
D03*
X188779D02*
D03*
X186811D02*
D03*
X184843D02*
D03*
X182874D02*
D03*
X180905D02*
D03*
X178937D02*
D03*
X176969D02*
D03*
X175000D02*
D03*
X173031D02*
D03*
X171063D02*
D03*
X169095D02*
D03*
X167126D02*
D03*
X165157D02*
D03*
X163189D02*
D03*
X161221D02*
D03*
Y93307D02*
D03*
X163189D02*
D03*
X165157D02*
D03*
X167126D02*
D03*
X169095D02*
D03*
X171063D02*
D03*
X173031D02*
D03*
X175000D02*
D03*
X176969D02*
D03*
X178937D02*
D03*
X180905D02*
D03*
X182874D02*
D03*
X184843D02*
D03*
X186811D02*
D03*
X188779D02*
D03*
X190748D02*
D03*
D60*
X112992Y101476D02*
D03*
Y116634D02*
D03*
X128347D02*
D03*
Y101476D02*
D03*
D61*
X97047Y12205D02*
D03*
X112205D02*
D03*
Y27559D02*
D03*
X97047D02*
D03*
D62*
X63779Y22638D02*
D03*
X70669D02*
D03*
X162402Y29528D02*
D03*
X168898D02*
D03*
X217520Y67323D02*
D03*
X224016D02*
D03*
X215748Y56496D02*
D03*
X222244D02*
D03*
X223721Y75787D02*
D03*
X216831D02*
D03*
X153937Y41339D02*
D03*
X160433D02*
D03*
X143405Y72933D02*
D03*
X136909D02*
D03*
X137303Y83268D02*
D03*
X130807D02*
D03*
X308610Y69300D02*
D03*
X315500D02*
D03*
D63*
X277165Y52756D02*
D03*
X282677D02*
D03*
D64*
X62992Y131496D02*
D03*
Y125984D02*
D03*
D65*
X288189Y61319D02*
D03*
Y70177D02*
D03*
D66*
X51181Y129921D02*
D03*
X42323D02*
D03*
D67*
X15748Y103789D02*
D03*
Y116683D02*
D03*
D68*
X48130Y17717D02*
D03*
Y24409D02*
D03*
X286900Y94893D02*
D03*
Y88200D02*
D03*
X145866Y90650D02*
D03*
Y83957D02*
D03*
X143602Y56398D02*
D03*
Y49705D02*
D03*
X31791Y107579D02*
D03*
Y114272D02*
D03*
X65059Y110728D02*
D03*
Y104035D02*
D03*
X304035Y134507D02*
D03*
Y141200D02*
D03*
D69*
X134153Y26476D02*
D03*
X140847D02*
D03*
X136909Y15748D02*
D03*
X143602D02*
D03*
X249016Y84153D02*
D03*
X255709D02*
D03*
X146063Y101673D02*
D03*
X139370D02*
D03*
X164173Y102362D02*
D03*
X157480D02*
D03*
X213779Y93110D02*
D03*
X207087D02*
D03*
X213287Y85827D02*
D03*
X206594D02*
D03*
X208071Y43307D02*
D03*
X201378D02*
D03*
X128839Y123425D02*
D03*
X135531D02*
D03*
X161811Y135728D02*
D03*
X168504D02*
D03*
X189665Y135925D02*
D03*
X182972D02*
D03*
D70*
X94488Y104331D02*
D03*
Y92716D02*
D03*
D71*
X198721Y105020D02*
D03*
X205413D02*
D03*
X229528Y105217D02*
D03*
X222835D02*
D03*
D72*
X134153Y39075D02*
D03*
Y51083D02*
D03*
D73*
X316100Y45686D02*
D03*
X308620D02*
D03*
Y57300D02*
D03*
X312360D02*
D03*
X316100D02*
D03*
D74*
X348600Y87389D02*
D03*
Y111011D02*
D03*
D75*
X321458Y22300D02*
D03*
X323215Y132100D02*
D03*
D76*
X341143Y22300D02*
D03*
X342900Y132100D02*
D03*
D77*
X11811Y11811D02*
D03*
Y137795D02*
D03*
X366142Y11811D02*
D03*
X366535Y138583D02*
D03*
D78*
X19685Y81181D02*
D03*
Y71181D02*
D03*
Y61181D02*
D03*
D79*
Y51181D02*
D03*
D80*
X107185Y129921D02*
D03*
X97185D02*
D03*
X87185D02*
D03*
X206437Y19488D02*
D03*
X293779Y31496D02*
D03*
X283780D02*
D03*
X273780D02*
D03*
X263779D02*
D03*
X243779D02*
D03*
X253780D02*
D03*
D81*
X77185Y129921D02*
D03*
X216437Y19488D02*
D03*
X233780Y31496D02*
D03*
M02*
