G04*
G04 #@! TF.GenerationSoftware,Altium Limited,Altium Designer,19.0.14 (431)*
G04*
G04 Layer_Color=8421504*
%FSLAX25Y25*%
%MOIN*%
G70*
G01*
G75*
%ADD19R,0.02756X0.05906*%
%ADD20R,0.03937X0.04528*%
%ADD21O,0.08661X0.02362*%
%ADD22R,0.07480X0.05118*%
%ADD23R,0.22047X0.08268*%
%ADD24R,0.02284X0.08032*%
%ADD25R,0.01378X0.01181*%
%ADD26R,0.01181X0.01378*%
%ADD27R,0.03051X0.00984*%
%ADD28R,0.00984X0.03051*%
%ADD29R,0.04764X0.02323*%
%ADD30O,0.05118X0.01181*%
%ADD31O,0.01181X0.05118*%
%ADD32R,0.03543X0.03937*%
%ADD33R,0.03937X0.03543*%
%ADD34R,0.04528X0.03937*%
%ADD35R,0.03543X0.04134*%
%ADD36R,0.04134X0.03543*%
%ADD37R,0.04134X0.06693*%
%ADD38R,0.06693X0.04134*%
%ADD39R,0.04803X0.03602*%
%ADD40R,0.04134X0.04724*%
%ADD41R,0.04724X0.04134*%
%ADD42R,0.07480X0.06102*%
%ADD43R,0.04921X0.04331*%
%ADD44R,0.07874X0.06102*%
%ADD45R,0.02559X0.04724*%
%ADD46R,0.13189X0.04921*%
D19*
X352200Y74125D02*
D03*
X347200D02*
D03*
X342200D02*
D03*
X337200D02*
D03*
Y52275D02*
D03*
X342200D02*
D03*
X347200D02*
D03*
X352200D02*
D03*
D20*
X266200Y110855D02*
D03*
Y117745D02*
D03*
X255900Y110555D02*
D03*
Y117445D02*
D03*
X177165Y17224D02*
D03*
Y10335D02*
D03*
X87598Y42717D02*
D03*
Y36220D02*
D03*
X175984Y26969D02*
D03*
Y33465D02*
D03*
X367700Y66800D02*
D03*
Y59910D02*
D03*
X327866Y106398D02*
D03*
Y99508D02*
D03*
X324900Y46755D02*
D03*
Y53645D02*
D03*
X366929Y86910D02*
D03*
Y80020D02*
D03*
X304823Y96850D02*
D03*
Y89961D02*
D03*
D21*
X291579Y127015D02*
D03*
Y132015D02*
D03*
Y137015D02*
D03*
Y142015D02*
D03*
X272682Y127015D02*
D03*
Y132015D02*
D03*
Y137015D02*
D03*
Y142015D02*
D03*
D22*
X229134Y115748D02*
D03*
Y137402D02*
D03*
X216535D02*
D03*
Y115748D02*
D03*
D23*
X193996Y120669D02*
D03*
X156595D02*
D03*
D24*
X42047Y72067D02*
D03*
X47047D02*
D03*
X52047D02*
D03*
X57047D02*
D03*
X62047D02*
D03*
X67047D02*
D03*
X72047D02*
D03*
X77047D02*
D03*
Y35413D02*
D03*
X72047D02*
D03*
X67047D02*
D03*
X62047D02*
D03*
X57047D02*
D03*
X52047D02*
D03*
X47047D02*
D03*
X42047D02*
D03*
D25*
X149488Y23622D02*
D03*
Y25591D02*
D03*
Y27559D02*
D03*
X155512D02*
D03*
Y25591D02*
D03*
Y23622D02*
D03*
D26*
X151516Y28602D02*
D03*
X153484D02*
D03*
Y22579D02*
D03*
X151516D02*
D03*
D27*
X277421Y78740D02*
D03*
Y80709D02*
D03*
Y82677D02*
D03*
Y84646D02*
D03*
Y86614D02*
D03*
Y88583D02*
D03*
X267854Y78740D02*
D03*
Y80709D02*
D03*
Y82677D02*
D03*
Y84646D02*
D03*
Y86614D02*
D03*
Y88583D02*
D03*
X277421Y90551D02*
D03*
X267854D02*
D03*
D28*
X272638Y76910D02*
D03*
Y92382D02*
D03*
D29*
X53917Y111417D02*
D03*
Y103937D02*
D03*
X44035D02*
D03*
Y107677D02*
D03*
Y111417D02*
D03*
D30*
X198228Y85827D02*
D03*
Y83858D02*
D03*
Y81890D02*
D03*
Y79921D02*
D03*
Y77953D02*
D03*
Y75984D02*
D03*
Y74016D02*
D03*
Y72047D02*
D03*
Y70079D02*
D03*
Y68110D02*
D03*
Y66142D02*
D03*
Y64173D02*
D03*
Y62205D02*
D03*
Y60236D02*
D03*
Y58268D02*
D03*
Y56299D02*
D03*
X153740D02*
D03*
Y58268D02*
D03*
Y60236D02*
D03*
Y62205D02*
D03*
Y64173D02*
D03*
Y66142D02*
D03*
Y68110D02*
D03*
Y70079D02*
D03*
Y72047D02*
D03*
Y74016D02*
D03*
Y75984D02*
D03*
Y77953D02*
D03*
Y79921D02*
D03*
Y81890D02*
D03*
Y83858D02*
D03*
Y85827D02*
D03*
D31*
X190748Y48819D02*
D03*
X188779D02*
D03*
X186811D02*
D03*
X184843D02*
D03*
X182874D02*
D03*
X180905D02*
D03*
X178937D02*
D03*
X176969D02*
D03*
X175000D02*
D03*
X173031D02*
D03*
X171063D02*
D03*
X169095D02*
D03*
X167126D02*
D03*
X165157D02*
D03*
X163189D02*
D03*
X161221D02*
D03*
Y93307D02*
D03*
X163189D02*
D03*
X165157D02*
D03*
X167126D02*
D03*
X169095D02*
D03*
X171063D02*
D03*
X173031D02*
D03*
X175000D02*
D03*
X176969D02*
D03*
X178937D02*
D03*
X180905D02*
D03*
X182874D02*
D03*
X184843D02*
D03*
X186811D02*
D03*
X188779D02*
D03*
X190748D02*
D03*
D32*
X112992Y101476D02*
D03*
Y116634D02*
D03*
X128347D02*
D03*
Y101476D02*
D03*
D33*
X97047Y12205D02*
D03*
X112205D02*
D03*
Y27559D02*
D03*
X97047D02*
D03*
D34*
X63779Y22638D02*
D03*
X70669D02*
D03*
X162402Y29528D02*
D03*
X168898D02*
D03*
X217520Y67323D02*
D03*
X224016D02*
D03*
X215748Y56496D02*
D03*
X222244D02*
D03*
X223721Y75787D02*
D03*
X216831D02*
D03*
X153937Y41339D02*
D03*
X160433D02*
D03*
X143405Y72933D02*
D03*
X136909D02*
D03*
X137303Y83268D02*
D03*
X130807D02*
D03*
X308610Y69300D02*
D03*
X315500D02*
D03*
D35*
X277165Y52756D02*
D03*
X282677D02*
D03*
D36*
X62992Y131496D02*
D03*
Y125984D02*
D03*
D37*
X288189Y61319D02*
D03*
Y70177D02*
D03*
D38*
X51181Y129921D02*
D03*
X42323D02*
D03*
D39*
X15748Y103789D02*
D03*
Y116683D02*
D03*
D40*
X48130Y17717D02*
D03*
Y24409D02*
D03*
X286900Y94893D02*
D03*
Y88200D02*
D03*
X145866Y90650D02*
D03*
Y83957D02*
D03*
X143602Y56398D02*
D03*
Y49705D02*
D03*
X31791Y107579D02*
D03*
Y114272D02*
D03*
X65059Y110728D02*
D03*
Y104035D02*
D03*
X304035Y134507D02*
D03*
Y141200D02*
D03*
D41*
X134153Y26476D02*
D03*
X140847D02*
D03*
X136909Y15748D02*
D03*
X143602D02*
D03*
X249016Y84153D02*
D03*
X255709D02*
D03*
X146063Y101673D02*
D03*
X139370D02*
D03*
X164173Y102362D02*
D03*
X157480D02*
D03*
X213779Y93110D02*
D03*
X207087D02*
D03*
X213287Y85827D02*
D03*
X206594D02*
D03*
X208071Y43307D02*
D03*
X201378D02*
D03*
X128839Y123425D02*
D03*
X135531D02*
D03*
X161811Y135728D02*
D03*
X168504D02*
D03*
X189665Y135925D02*
D03*
X182972D02*
D03*
D42*
X94488Y104331D02*
D03*
Y92716D02*
D03*
D43*
X198721Y105020D02*
D03*
X205413D02*
D03*
X229528Y105217D02*
D03*
X222835D02*
D03*
D44*
X134153Y39075D02*
D03*
Y51083D02*
D03*
D45*
X316100Y45686D02*
D03*
X308620D02*
D03*
Y57300D02*
D03*
X312360D02*
D03*
X316100D02*
D03*
D46*
X348600Y87389D02*
D03*
Y111011D02*
D03*
M02*
