M48
;Layer_Color=9474304
;FILE_FORMAT=2:5
INCH,TZ
;TYPE=PLATED
T1F00S00C0.01350
T2F00S00C0.02756
T3F00S00C0.03543
T4F00S00C0.07000
T5F00S00C0.08661
%
T01
X99000Y56000
X113500Y50000
X122000Y48500
X153500
X194500Y42500
X204500Y50500
X219500
X252000Y56000
X261500
X292500Y32000
X333500Y91000
X332500Y140500
X339000Y147000
Y157700
X321000Y156500
X325500Y167000
X363500Y166000
X360774Y147389
X360900Y141700
X315500Y125500
X292500Y133000
X294000Y146500
X297000Y149500
Y154000
X293000Y162000
X289000Y150000
X277000Y148500
X263500Y166000
X255016Y165756
X231900Y165000
X233000Y160500
X233500Y169000
Y174000
Y179000
Y184500
X227500Y174500
X221500Y176500
X206000Y177000
X211000Y169500
X209000Y188500
X197500Y193000
X194500Y207500
X174000Y204500
X213500Y221500
X254500Y194000
X267500Y201000
X297300Y188600
X308600Y177700
Y168700
X293500Y115000
X292500Y93500
X302000Y91000
X260500Y86000
X256000Y89000
X242000Y93500
X246000Y113000
X255500Y120500
X240000Y124500
X231000Y120000
X225500Y118500
X228000Y112500
X215500Y118500
X205500Y113000
X231000Y144500
X245016Y141756
X274500Y119500
X247000Y75000
X127906Y105870
X126500Y158500
X128500Y190500
X118500Y240000
X113500Y250500
X122500Y261500
X149500Y251500
X153000Y235000
X78500Y283500
X163000Y286500
X174000Y230000
X221000Y229000
X229000Y227000
X287500Y236500
X306000Y267500
X268500Y284500
T02
X172315Y137000
X192000
T03
X262500Y12500
X272500
X365500Y61000
Y71000
Y81000
Y91000
Y101000
Y111000
Y121000
X304500Y286500
X294500
X314500
X324500
T04
X57000Y50000
Y75000
Y100000
Y125000
Y174000
Y199000
Y224000
Y249000
T05
X11811Y11811
X366142
X12000Y287500
X366000
M30
