G04*
G04 #@! TF.GenerationSoftware,Altium Limited,Altium Designer,19.0.14 (431)*
G04*
G04 Layer_Color=16776960*
%FSLAX25Y25*%
%MOIN*%
G70*
G01*
G75*
%ADD17C,0.00700*%
G36*
X238900Y259600D02*
X239700D01*
Y258000D01*
X241300D01*
Y257200D01*
X242100D01*
Y258000D01*
X242900D01*
Y257200D01*
X243700D01*
Y255600D01*
X246900D01*
Y254000D01*
X249300D01*
Y252400D01*
X250900D01*
Y251600D01*
X254100D01*
Y250800D01*
X253300D01*
Y250000D01*
X254900D01*
Y249200D01*
X255700D01*
Y248400D01*
X257300D01*
Y246800D01*
X259700D01*
Y246000D01*
X260500D01*
Y244400D01*
X262900D01*
Y242800D01*
X265300D01*
Y242000D01*
X266100D01*
Y241200D01*
X267700D01*
Y240400D01*
X266900D01*
Y239600D01*
X267700D01*
Y238800D01*
X269300D01*
Y238000D01*
X270900D01*
Y236400D01*
X272500D01*
Y235600D01*
X274900D01*
Y234000D01*
X275700D01*
Y233200D01*
X276500D01*
Y232400D01*
X278100D01*
Y230800D01*
X280500D01*
Y230000D01*
X279700D01*
Y229200D01*
X281300D01*
Y228400D01*
X282100D01*
Y227600D01*
X283700D01*
Y226800D01*
X284500D01*
Y226000D01*
X286100D01*
Y225200D01*
X286900D01*
Y223600D01*
X288500D01*
Y222800D01*
X289300D01*
Y221200D01*
X291700D01*
Y220400D01*
X292500D01*
Y218800D01*
X294100D01*
Y218000D01*
X294900D01*
Y217200D01*
X297300D01*
Y213200D01*
X296500D01*
Y210000D01*
X297300D01*
Y207600D01*
X296500D01*
Y205200D01*
X295700D01*
Y204400D01*
X294100D01*
Y202000D01*
X293300D01*
Y200400D01*
X292500D01*
Y199600D01*
X291700D01*
Y198000D01*
X290900D01*
Y197200D01*
X290100D01*
Y196400D01*
X289300D01*
Y195600D01*
X288500D01*
Y194000D01*
X287700D01*
Y193200D01*
X286900D01*
Y191600D01*
X285300D01*
Y190800D01*
X283700D01*
Y190000D01*
X282900D01*
Y188400D01*
X281300D01*
Y187600D01*
X279700D01*
Y186800D01*
X278100D01*
Y186000D01*
X277300D01*
Y185200D01*
X274900D01*
Y184400D01*
X274100D01*
Y183600D01*
X273300D01*
Y182800D01*
X272500D01*
Y183600D01*
X270900D01*
Y182800D01*
X270100D01*
Y182000D01*
X268500D01*
Y181200D01*
X266900D01*
Y180400D01*
X266100D01*
Y181200D01*
X265300D01*
Y180400D01*
X262900D01*
Y179600D01*
X261300D01*
Y178800D01*
X259700D01*
Y179600D01*
X258900D01*
Y178800D01*
X257300D01*
Y178000D01*
X254900D01*
Y178800D01*
X254100D01*
Y178000D01*
X251700D01*
Y177200D01*
X250900D01*
Y178000D01*
X249300D01*
Y176400D01*
X248500D01*
Y177200D01*
X247700D01*
Y176400D01*
X242100D01*
Y177200D01*
X240500D01*
Y176400D01*
X238900D01*
Y177200D01*
X238100D01*
Y176400D01*
X237300D01*
Y175600D01*
X236500D01*
Y176400D01*
X233300D01*
Y177200D01*
X231700D01*
Y176400D01*
X230900D01*
Y177200D01*
X227700D01*
Y178000D01*
X225300D01*
Y178800D01*
X222100D01*
Y180400D01*
X219700D01*
Y181200D01*
X218100D01*
Y182800D01*
X216500D01*
Y184400D01*
X214900D01*
Y185200D01*
X214100D01*
Y186000D01*
X213300D01*
Y188400D01*
X212500D01*
Y189200D01*
X213300D01*
Y192400D01*
X214100D01*
Y194800D01*
X214900D01*
Y198000D01*
X215700D01*
Y200400D01*
X216500D01*
Y201200D01*
X215700D01*
Y202000D01*
X214900D01*
Y203600D01*
X215700D01*
Y206800D01*
X216500D01*
Y209200D01*
X217300D01*
Y212400D01*
X218100D01*
Y214800D01*
X218900D01*
Y218000D01*
X219700D01*
Y220400D01*
X220500D01*
Y223600D01*
X221300D01*
Y226000D01*
X222100D01*
Y229200D01*
X222900D01*
Y231600D01*
X223700D01*
Y234800D01*
X224500D01*
Y237200D01*
X225300D01*
Y240400D01*
X226100D01*
Y242800D01*
X226900D01*
Y246000D01*
X227700D01*
Y245200D01*
X228500D01*
Y246000D01*
X229300D01*
Y248400D01*
X230100D01*
Y252400D01*
X231700D01*
Y254000D01*
X232500D01*
Y257200D01*
X234100D01*
Y259600D01*
X234900D01*
Y260400D01*
X238900D01*
Y259600D01*
D02*
G37*
G36*
X299700Y198800D02*
X300500D01*
Y196400D01*
X298900D01*
Y197200D01*
X298100D01*
Y198000D01*
X298900D01*
Y198800D01*
X298100D01*
Y201200D01*
X298900D01*
Y203600D01*
X299700D01*
Y198800D01*
D02*
G37*
G36*
X296500Y193200D02*
X295700D01*
Y194000D01*
X296500D01*
Y193200D01*
D02*
G37*
G36*
X295700Y192400D02*
X296500D01*
Y190000D01*
X295700D01*
Y190800D01*
X294900D01*
Y193200D01*
X295700D01*
Y192400D01*
D02*
G37*
G36*
Y189200D02*
X294900D01*
Y190000D01*
X295700D01*
Y189200D01*
D02*
G37*
G36*
X298900Y171600D02*
X298100D01*
Y170800D01*
X297300D01*
Y172400D01*
X298900D01*
Y171600D01*
D02*
G37*
G36*
X299700Y166000D02*
X298100D01*
Y166800D01*
X298900D01*
Y168400D01*
X299700D01*
Y166000D01*
D02*
G37*
G36*
X217300Y175600D02*
X218100D01*
Y172400D01*
X218900D01*
Y171600D01*
X219700D01*
Y170800D01*
X220500D01*
Y166800D01*
X221300D01*
Y166000D01*
X222100D01*
Y164400D01*
X222900D01*
Y162800D01*
X223700D01*
Y162000D01*
X224500D01*
Y161200D01*
X223700D01*
Y160400D01*
X224500D01*
Y159600D01*
X225300D01*
Y158800D01*
X226100D01*
Y155600D01*
X226900D01*
Y154800D01*
X225300D01*
Y157200D01*
X224500D01*
Y158800D01*
X223700D01*
Y159600D01*
X222900D01*
Y162000D01*
X222100D01*
Y162800D01*
X221300D01*
Y163600D01*
X220500D01*
Y166800D01*
X219700D01*
Y169200D01*
X218900D01*
Y170000D01*
X218100D01*
Y171600D01*
X217300D01*
Y173200D01*
X216500D01*
Y174000D01*
X215700D01*
Y174800D01*
X216500D01*
Y176400D01*
X217300D01*
Y175600D01*
D02*
G37*
G36*
X300500Y190800D02*
X301300D01*
Y189200D01*
X302100D01*
Y186800D01*
X302900D01*
Y186000D01*
X302100D01*
Y183600D01*
X302900D01*
Y182000D01*
X302100D01*
Y181200D01*
X303700D01*
Y180400D01*
X302900D01*
Y178800D01*
X303700D01*
Y177200D01*
X302900D01*
Y175600D01*
X303700D01*
Y173200D01*
X304500D01*
Y171600D01*
X303700D01*
Y170800D01*
X304500D01*
Y170000D01*
X305300D01*
Y168400D01*
X304500D01*
Y166800D01*
X305300D01*
Y166000D01*
X306100D01*
Y162800D01*
X306900D01*
Y162000D01*
X306100D01*
Y159600D01*
X306900D01*
Y158000D01*
X307700D01*
Y156400D01*
X306900D01*
Y154800D01*
X307700D01*
Y153200D01*
X306900D01*
Y151600D01*
X306100D01*
Y152400D01*
X305300D01*
Y156400D01*
X304500D01*
Y158000D01*
X303700D01*
Y162800D01*
X304500D01*
Y163600D01*
X303700D01*
Y166000D01*
X302900D01*
Y168400D01*
X303700D01*
Y169200D01*
X302900D01*
Y174000D01*
X301300D01*
Y174800D01*
X302100D01*
Y176400D01*
X301300D01*
Y177200D01*
X302100D01*
Y178000D01*
X301300D01*
Y180400D01*
X302100D01*
Y181200D01*
X301300D01*
Y182000D01*
X300500D01*
Y183600D01*
X301300D01*
Y185200D01*
X300500D01*
Y186800D01*
X301300D01*
Y187600D01*
X300500D01*
Y190000D01*
X299700D01*
Y191600D01*
X298900D01*
Y192400D01*
X299700D01*
Y194000D01*
X298900D01*
Y195600D01*
X300500D01*
Y190800D01*
D02*
G37*
G36*
X226900Y171600D02*
X230100D01*
Y170800D01*
X232500D01*
Y170000D01*
X238100D01*
Y169200D01*
X239700D01*
Y170000D01*
X241300D01*
Y169200D01*
X242900D01*
Y170800D01*
X244500D01*
Y170000D01*
X246900D01*
Y169200D01*
X247700D01*
Y170000D01*
X252500D01*
Y171600D01*
X253300D01*
Y170800D01*
X254900D01*
Y171600D01*
X256500D01*
Y167600D01*
X258100D01*
Y163600D01*
X258900D01*
Y162800D01*
X258100D01*
Y162000D01*
X258900D01*
Y160400D01*
X260500D01*
Y156400D01*
X261300D01*
Y155600D01*
X262100D01*
Y154000D01*
X261300D01*
Y153200D01*
X262100D01*
Y150800D01*
X260500D01*
Y149200D01*
X258900D01*
Y150000D01*
X258100D01*
Y149200D01*
X253300D01*
Y148400D01*
X250100D01*
Y149200D01*
X249300D01*
Y148400D01*
X247700D01*
Y149200D01*
X246100D01*
Y148400D01*
X244500D01*
Y149200D01*
X241300D01*
Y150000D01*
X240500D01*
Y148400D01*
X238900D01*
Y149200D01*
X235700D01*
Y150000D01*
X234100D01*
Y150800D01*
X234900D01*
Y152400D01*
X233300D01*
Y155600D01*
X232500D01*
Y156400D01*
X231700D01*
Y159600D01*
X230900D01*
Y161200D01*
X230100D01*
Y162000D01*
X229300D01*
Y163600D01*
X228500D01*
Y164400D01*
X229300D01*
Y166000D01*
X227700D01*
Y168400D01*
X226900D01*
Y170000D01*
X226100D01*
Y171600D01*
X225300D01*
Y172400D01*
X226900D01*
Y171600D01*
D02*
G37*
G36*
X228500Y149200D02*
X229300D01*
Y148400D01*
X230100D01*
Y146000D01*
X229300D01*
Y147600D01*
X228500D01*
Y148400D01*
X227700D01*
Y150800D01*
X228500D01*
Y149200D01*
D02*
G37*
G36*
X308500Y150000D02*
X307700D01*
Y146800D01*
X308500D01*
Y144400D01*
X307700D01*
Y145200D01*
X306900D01*
Y146800D01*
X306100D01*
Y147600D01*
X306900D01*
Y148400D01*
X306100D01*
Y150800D01*
X308500D01*
Y150000D01*
D02*
G37*
G36*
X302900Y142800D02*
X303700D01*
Y142000D01*
X302100D01*
Y143600D01*
X302900D01*
Y142800D01*
D02*
G37*
G36*
X231700Y141200D02*
X232500D01*
Y140400D01*
X234100D01*
Y135600D01*
X235700D01*
Y132400D01*
X234900D01*
Y133200D01*
X234100D01*
Y134000D01*
X234900D01*
Y134800D01*
X234100D01*
Y135600D01*
X233300D01*
Y136400D01*
X232500D01*
Y137200D01*
X233300D01*
Y138800D01*
X232500D01*
Y139600D01*
X231700D01*
Y141200D01*
X230900D01*
Y142800D01*
X230100D01*
Y143600D01*
X229300D01*
Y145200D01*
X231700D01*
Y141200D01*
D02*
G37*
G36*
X239700Y143600D02*
X241300D01*
Y142800D01*
X243700D01*
Y142000D01*
X244500D01*
Y142800D01*
X245300D01*
Y142000D01*
X247700D01*
Y142800D01*
X249300D01*
Y142000D01*
X252500D01*
Y141200D01*
X254100D01*
Y142000D01*
X254900D01*
Y141200D01*
X257300D01*
Y142800D01*
X258100D01*
Y141200D01*
X258900D01*
Y142000D01*
X259700D01*
Y142800D01*
X262900D01*
Y143600D01*
X265300D01*
Y142000D01*
X266100D01*
Y138800D01*
X266900D01*
Y137200D01*
X267700D01*
Y135600D01*
X266900D01*
Y134800D01*
X267700D01*
Y134000D01*
X268500D01*
Y133200D01*
X269300D01*
Y132400D01*
X270100D01*
Y131600D01*
X269300D01*
Y130800D01*
X270100D01*
Y129200D01*
X269300D01*
Y127600D01*
X270900D01*
Y123600D01*
X271700D01*
Y122800D01*
X272500D01*
Y122000D01*
X267700D01*
Y120400D01*
X266900D01*
Y121200D01*
X265300D01*
Y120400D01*
X264500D01*
Y121200D01*
X262900D01*
Y120400D01*
X261300D01*
Y121200D01*
X259700D01*
Y119600D01*
X258900D01*
Y120400D01*
X256500D01*
Y121200D01*
X255700D01*
Y122000D01*
X254900D01*
Y121200D01*
X253300D01*
Y122000D01*
X252500D01*
Y121200D01*
X249300D01*
Y122000D01*
X247700D01*
Y123600D01*
X245300D01*
Y124400D01*
X246100D01*
Y125200D01*
X245300D01*
Y126000D01*
X244500D01*
Y129200D01*
X243700D01*
Y130000D01*
X244500D01*
Y130800D01*
X243700D01*
Y132400D01*
X242100D01*
Y134800D01*
X241300D01*
Y136400D01*
X242100D01*
Y137200D01*
X240500D01*
Y138800D01*
X239700D01*
Y141200D01*
X238100D01*
Y143600D01*
X238900D01*
Y144400D01*
X239700D01*
Y143600D01*
D02*
G37*
G36*
X237300Y129200D02*
X238100D01*
Y128400D01*
X238900D01*
Y127600D01*
X238100D01*
Y126800D01*
X238900D01*
Y126000D01*
X239700D01*
Y125200D01*
X240500D01*
Y124400D01*
X241300D01*
Y123600D01*
X240500D01*
Y122800D01*
X241300D01*
Y121200D01*
X242100D01*
Y119600D01*
X240500D01*
Y121200D01*
X238900D01*
Y124400D01*
X238100D01*
Y125200D01*
X238900D01*
Y126000D01*
X237300D01*
Y127600D01*
X236500D01*
Y130000D01*
X237300D01*
Y129200D01*
D02*
G37*
G36*
X285300Y109200D02*
X284500D01*
Y106800D01*
X285300D01*
Y104400D01*
X286100D01*
Y103600D01*
X285300D01*
Y101200D01*
X286100D01*
Y99600D01*
X286900D01*
Y98000D01*
X286100D01*
Y97200D01*
X286900D01*
Y94800D01*
X286100D01*
Y92400D01*
X286900D01*
Y91600D01*
X286100D01*
Y90000D01*
X287700D01*
Y89200D01*
X286900D01*
Y86800D01*
X287700D01*
Y86000D01*
X286900D01*
Y84400D01*
X287700D01*
Y82800D01*
X286900D01*
Y81200D01*
X288500D01*
Y80400D01*
X287700D01*
Y78800D01*
X286900D01*
Y80400D01*
X285300D01*
Y82000D01*
X284500D01*
Y83600D01*
X285300D01*
Y84400D01*
X283700D01*
Y85200D01*
X282900D01*
Y88400D01*
X282100D01*
Y89200D01*
X280500D01*
Y90000D01*
X281300D01*
Y90800D01*
X280500D01*
Y92400D01*
X279700D01*
Y93200D01*
X278900D01*
Y94000D01*
X278100D01*
Y98000D01*
X277300D01*
Y98800D01*
X276500D01*
Y100400D01*
X275700D01*
Y102000D01*
X274900D01*
Y103600D01*
X274100D01*
Y105200D01*
X273300D01*
Y106000D01*
X272500D01*
Y106800D01*
X274100D01*
Y107600D01*
X274900D01*
Y108400D01*
X279700D01*
Y110000D01*
X280500D01*
Y109200D01*
X281300D01*
Y110000D01*
X285300D01*
Y109200D01*
D02*
G37*
G36*
X277300Y84400D02*
X275700D01*
Y85200D01*
X277300D01*
Y84400D01*
D02*
G37*
G36*
X310100Y139600D02*
X313300D01*
Y138800D01*
X315700D01*
Y138000D01*
X314900D01*
Y136400D01*
X315700D01*
Y134800D01*
X314900D01*
Y130800D01*
X315700D01*
Y129200D01*
X314900D01*
Y127600D01*
X315700D01*
Y126000D01*
X314900D01*
Y124400D01*
X315700D01*
Y122800D01*
X314900D01*
Y120400D01*
X315700D01*
Y118000D01*
X314900D01*
Y116400D01*
X315700D01*
Y114800D01*
X314900D01*
Y113200D01*
X315700D01*
Y111600D01*
X314900D01*
Y107600D01*
X315700D01*
Y106000D01*
X316500D01*
Y105200D01*
X315700D01*
Y102800D01*
X314900D01*
Y100400D01*
X315700D01*
Y99600D01*
X314900D01*
Y97200D01*
X315700D01*
Y94800D01*
X314900D01*
Y94000D01*
X315700D01*
Y88400D01*
X314900D01*
Y84400D01*
X315700D01*
Y83600D01*
X314900D01*
Y80400D01*
X314100D01*
Y82800D01*
X312500D01*
Y83600D01*
X311700D01*
Y85200D01*
X310900D01*
Y87600D01*
X310100D01*
Y89200D01*
X309300D01*
Y90000D01*
X308500D01*
Y90800D01*
X307700D01*
Y94000D01*
X306900D01*
Y95600D01*
X305300D01*
Y96400D01*
X306100D01*
Y98800D01*
X307700D01*
Y99600D01*
X309300D01*
Y100400D01*
X310100D01*
Y103600D01*
X310900D01*
Y106000D01*
X311700D01*
Y109200D01*
X312500D01*
Y110800D01*
X310900D01*
Y111600D01*
X311700D01*
Y113200D01*
X310900D01*
Y114000D01*
X310100D01*
Y114800D01*
X310900D01*
Y116400D01*
X310100D01*
Y118000D01*
X310900D01*
Y121200D01*
X310100D01*
Y123600D01*
X309300D01*
Y124400D01*
X310100D01*
Y125200D01*
X308500D01*
Y126000D01*
X309300D01*
Y126800D01*
X310100D01*
Y127600D01*
X308500D01*
Y133200D01*
X309300D01*
Y134800D01*
X308500D01*
Y137200D01*
X307700D01*
Y138000D01*
X306900D01*
Y138800D01*
X307700D01*
Y140400D01*
X310100D01*
Y139600D01*
D02*
G37*
G36*
X315700Y78800D02*
X314100D01*
Y79600D01*
X315700D01*
Y78800D01*
D02*
G37*
G36*
X242900Y114000D02*
X243700D01*
Y113200D01*
X244500D01*
Y110000D01*
X245300D01*
Y109200D01*
X246100D01*
Y106800D01*
X246900D01*
Y106000D01*
X247700D01*
Y102800D01*
X248500D01*
Y102000D01*
X249300D01*
Y100400D01*
X250100D01*
Y98000D01*
X250900D01*
Y96400D01*
X250100D01*
Y95600D01*
X251700D01*
Y94000D01*
X252500D01*
Y91600D01*
X254100D01*
Y89200D01*
X254900D01*
Y87600D01*
X256500D01*
Y86800D01*
X258100D01*
Y86000D01*
X259700D01*
Y85200D01*
X262100D01*
Y84400D01*
X265300D01*
Y83600D01*
X266900D01*
Y82800D01*
X266100D01*
Y80400D01*
X265300D01*
Y79600D01*
X266900D01*
Y78000D01*
X266100D01*
Y75600D01*
X265300D01*
Y72400D01*
X264500D01*
Y71600D01*
X265300D01*
Y68400D01*
X264500D01*
Y67600D01*
X265300D01*
Y66000D01*
X264500D01*
Y63600D01*
X263700D01*
Y64400D01*
X262900D01*
Y67600D01*
X261300D01*
Y68400D01*
X260500D01*
Y69200D01*
X261300D01*
Y70000D01*
X260500D01*
Y71600D01*
X258900D01*
Y72400D01*
X258100D01*
Y74800D01*
X256500D01*
Y75600D01*
X255700D01*
Y78800D01*
X254900D01*
Y79600D01*
X253300D01*
Y81200D01*
X252500D01*
Y82800D01*
X251700D01*
Y83600D01*
X250900D01*
Y85200D01*
X248500D01*
Y86000D01*
X249300D01*
Y86800D01*
X248500D01*
Y88400D01*
X247700D01*
Y89200D01*
X246900D01*
Y90800D01*
X246100D01*
Y92400D01*
X245300D01*
Y93200D01*
X243700D01*
Y95600D01*
X242900D01*
Y96400D01*
X242100D01*
Y97200D01*
X241300D01*
Y99600D01*
X240500D01*
Y100400D01*
X238900D01*
Y101200D01*
X238100D01*
Y102000D01*
X238900D01*
Y102800D01*
X238100D01*
Y103600D01*
X237300D01*
Y104400D01*
X236500D01*
Y106800D01*
X235700D01*
Y107600D01*
X237300D01*
Y109200D01*
X238100D01*
Y110000D01*
X238900D01*
Y112400D01*
X240500D01*
Y115600D01*
X242900D01*
Y114000D01*
D02*
G37*
G36*
X296500Y67600D02*
X297300D01*
Y66000D01*
X298100D01*
Y65200D01*
X298900D01*
Y64400D01*
X300500D01*
Y63600D01*
X299700D01*
Y61200D01*
X298900D01*
Y58000D01*
X298100D01*
Y60400D01*
X297300D01*
Y62000D01*
X294900D01*
Y62800D01*
X295700D01*
Y63600D01*
X294900D01*
Y64400D01*
X295700D01*
Y68400D01*
X296500D01*
Y67600D01*
D02*
G37*
G36*
X280500Y71600D02*
X279700D01*
Y70800D01*
X280500D01*
Y70000D01*
X281300D01*
Y68400D01*
X282900D01*
Y66800D01*
X283700D01*
Y64400D01*
X284500D01*
Y62800D01*
X283700D01*
Y60400D01*
X282900D01*
Y57200D01*
X282100D01*
Y58800D01*
X281300D01*
Y59600D01*
X280500D01*
Y61200D01*
X279700D01*
Y62800D01*
X278900D01*
Y63600D01*
X278100D01*
Y65200D01*
X277300D01*
Y66800D01*
X278100D01*
Y70000D01*
X278900D01*
Y72400D01*
X280500D01*
Y71600D01*
D02*
G37*
G36*
X293300Y48400D02*
X294100D01*
Y46800D01*
X294900D01*
Y45200D01*
X295700D01*
Y44400D01*
X296500D01*
Y43600D01*
X295700D01*
Y41200D01*
X294900D01*
Y43600D01*
X294100D01*
Y42800D01*
X293300D01*
Y44400D01*
X292500D01*
Y46000D01*
X291700D01*
Y47600D01*
X292500D01*
Y49200D01*
X293300D01*
Y48400D01*
D02*
G37*
D17*
X349099Y69450D02*
X345766D01*
X345100Y70116D01*
Y71449D01*
X345766Y72116D01*
X349099D01*
X345100Y73449D02*
X349099D01*
X347766Y74782D01*
X349099Y76114D01*
X345100D01*
X348432Y80113D02*
X349099Y79447D01*
Y78114D01*
X348432Y77447D01*
X347766D01*
X347099Y78114D01*
Y79447D01*
X346433Y80113D01*
X345766D01*
X345100Y79447D01*
Y78114D01*
X345766Y77447D01*
X345100Y81446D02*
X347766D01*
X349099Y82779D01*
X347766Y84112D01*
X345100D01*
X347099D01*
Y81446D01*
X349099Y85445D02*
Y88111D01*
Y86778D01*
X345100D01*
X348432Y92109D02*
X349099Y91443D01*
Y90110D01*
X348432Y89444D01*
X347766D01*
X347099Y90110D01*
Y91443D01*
X346433Y92109D01*
X345766D01*
X345100Y91443D01*
Y90110D01*
X345766Y89444D01*
X345100Y97441D02*
X349099D01*
Y99440D01*
X348432Y100107D01*
X347099D01*
X346433Y99440D01*
Y97441D01*
Y98774D02*
X345100Y100107D01*
Y102106D02*
Y103439D01*
X345766Y104105D01*
X347099D01*
X347766Y103439D01*
Y102106D01*
X347099Y101440D01*
X345766D01*
X345100Y102106D01*
X347766Y108104D02*
Y106105D01*
X347099Y105438D01*
X345766D01*
X345100Y106105D01*
Y108104D01*
Y109437D02*
X349099D01*
X346433D02*
X347766Y111436D01*
X346433Y109437D02*
X345100Y111436D01*
Y115435D02*
Y114102D01*
X345766Y113436D01*
X347099D01*
X347766Y114102D01*
Y115435D01*
X347099Y116102D01*
X346433D01*
Y113436D01*
X348432Y118101D02*
X347766D01*
Y117435D01*
Y118767D01*
Y118101D01*
X345766D01*
X345100Y118767D01*
X347766Y120767D02*
X345100D01*
X346433D01*
X347099Y121433D01*
X347766Y122100D01*
Y122766D01*
Y124766D02*
X345766D01*
X345100Y125432D01*
Y127431D01*
X344434D01*
X343767Y126765D01*
Y126098D01*
X345100Y127431D02*
X347766D01*
X349099Y135429D02*
Y132763D01*
X347099D01*
Y134096D01*
Y132763D01*
X345100D01*
Y136762D02*
Y138094D01*
Y137428D01*
X349099D01*
Y136762D01*
X345100Y140094D02*
Y141427D01*
Y140760D01*
X347766D01*
Y140094D01*
X343767Y144759D02*
Y145425D01*
X344434Y146092D01*
X347766D01*
Y144093D01*
X347099Y143426D01*
X345766D01*
X345100Y144093D01*
Y146092D01*
X349099Y147425D02*
X345100D01*
X347099D01*
X347766Y148091D01*
Y149424D01*
X347099Y150091D01*
X345100D01*
X348432Y152090D02*
X347766D01*
Y151424D01*
Y152757D01*
Y152090D01*
X345766D01*
X345100Y152757D01*
X348432Y161420D02*
X349099Y160754D01*
Y159421D01*
X348432Y158755D01*
X345766D01*
X345100Y159421D01*
Y160754D01*
X345766Y161420D01*
X345100Y163420D02*
Y164753D01*
X345766Y165419D01*
X347099D01*
X347766Y164753D01*
Y163420D01*
X347099Y162753D01*
X345766D01*
X345100Y163420D01*
Y166752D02*
X347766D01*
Y167418D01*
X347099Y168085D01*
X345100D01*
X347099D01*
X347766Y168751D01*
X347099Y169418D01*
X345100D01*
X343767Y170751D02*
X347766D01*
Y172750D01*
X347099Y173416D01*
X345766D01*
X345100Y172750D01*
Y170751D01*
X347766Y174749D02*
X345766D01*
X345100Y175416D01*
Y177415D01*
X347766D01*
X348432Y179414D02*
X347766D01*
Y178748D01*
Y180081D01*
Y179414D01*
X345766D01*
X345100Y180081D01*
Y184080D02*
Y182747D01*
X345766Y182080D01*
X347099D01*
X347766Y182747D01*
Y184080D01*
X347099Y184746D01*
X346433D01*
Y182080D01*
X347766Y186079D02*
X345100D01*
X346433D01*
X347099Y186746D01*
X347766Y187412D01*
Y188078D01*
X345100Y196742D02*
Y194077D01*
X347766Y196742D01*
X348432D01*
X349099Y196076D01*
Y194743D01*
X348432Y194077D01*
Y198075D02*
X349099Y198742D01*
Y200075D01*
X348432Y200741D01*
X345766D01*
X345100Y200075D01*
Y198742D01*
X345766Y198075D01*
X348432D01*
X345100Y202074D02*
Y203407D01*
Y202740D01*
X349099D01*
X348432Y202074D01*
X345766Y205406D02*
X345100Y206073D01*
Y207405D01*
X345766Y208072D01*
X348432D01*
X349099Y207405D01*
Y206073D01*
X348432Y205406D01*
X347766D01*
X347099Y206073D01*
Y208072D01*
M02*
