G04*
G04 #@! TF.GenerationSoftware,Altium Limited,Altium Designer,19.0.14 (431)*
G04*
G04 Layer_Color=2752767*
%FSLAX25Y25*%
%MOIN*%
G70*
G01*
G75*
%ADD14C,0.01000*%
%ADD92C,0.00200*%
%ADD93C,0.00267*%
D14*
X-0Y299213D02*
X378000D01*
X-0D02*
X0Y-0D01*
X378000D01*
X378000Y299213D02*
X378000Y-0D01*
D92*
X171515Y136200D02*
Y137800D01*
X173115D01*
Y136200D01*
X171515D01*
X191200D02*
Y137800D01*
X192800D01*
Y136200D01*
X191200D01*
X262500Y11700D02*
X261700Y13300D01*
X263300D01*
X262500Y11700D01*
X272500D02*
X271700Y13300D01*
X273300D01*
X272500Y11700D01*
X11811Y11011D02*
X12211Y11411D01*
X12611D01*
X12211Y11811D01*
X12611Y12211D01*
X12211D01*
X11811Y12611D01*
X11411Y12211D01*
X11011D01*
X11411Y11811D01*
X11011Y11411D01*
X11411D01*
X11811Y11011D01*
X12000Y286700D02*
X12400Y287100D01*
X12800D01*
X12400Y287500D01*
X12800Y287900D01*
X12400D01*
X12000Y288300D01*
X11600Y287900D01*
X11200D01*
X11600Y287500D01*
X11200Y287100D01*
X11600D01*
X12000Y286700D01*
X294500Y285700D02*
X293700Y287300D01*
X295300D01*
X294500Y285700D01*
X304500D02*
X303700Y287300D01*
X305300D01*
X304500Y285700D01*
X314500D02*
X313700Y287300D01*
X315300D01*
X314500Y285700D01*
X324500D02*
X323700Y287300D01*
X325300D01*
X324500Y285700D01*
X365500Y120200D02*
X364700Y121800D01*
X366300D01*
X365500Y120200D01*
Y110200D02*
X364700Y111800D01*
X366300D01*
X365500Y110200D01*
Y100200D02*
X364700Y101800D01*
X366300D01*
X365500Y100200D01*
Y90200D02*
X364700Y91800D01*
X366300D01*
X365500Y90200D01*
Y70200D02*
X364700Y71800D01*
X366300D01*
X365500Y70200D01*
Y60200D02*
X364700Y61800D01*
X366300D01*
X365500Y60200D01*
Y80200D02*
X364700Y81800D01*
X366300D01*
X365500Y80200D01*
X366142Y11011D02*
X366542Y11411D01*
X366942D01*
X366542Y11811D01*
X366942Y12211D01*
X366542D01*
X366142Y12611D01*
X365742Y12211D01*
X365342D01*
X365742Y11811D01*
X365342Y11411D01*
X365742D01*
X366142Y11011D01*
X366000Y286700D02*
X366400Y287100D01*
X366800D01*
X366400Y287500D01*
X366800Y287900D01*
X366400D01*
X366000Y288300D01*
X365600Y287900D01*
X365200D01*
X365600Y287500D01*
X365200Y287100D01*
X365600D01*
X366000Y286700D01*
X231100Y164200D02*
X231500Y165000D01*
X231100Y165800D01*
X231900Y165400D01*
X232700Y165800D01*
X232300Y165000D01*
X232700Y164200D01*
X231900Y164600D01*
X231100Y164200D01*
X232200Y159700D02*
X232600Y160500D01*
X232200Y161300D01*
X233000Y160900D01*
X233800Y161300D01*
X233400Y160500D01*
X233800Y159700D01*
X233000Y160100D01*
X232200Y159700D01*
X232700Y168200D02*
X233100Y169000D01*
X232700Y169800D01*
X233500Y169400D01*
X234300Y169800D01*
X233900Y169000D01*
X234300Y168200D01*
X233500Y168600D01*
X232700Y168200D01*
X292200Y161200D02*
X292600Y162000D01*
X292200Y162800D01*
X293000Y162400D01*
X293800Y162800D01*
X293400Y162000D01*
X293800Y161200D01*
X293000Y161600D01*
X292200Y161200D01*
X359975Y146589D02*
X360374Y147389D01*
X359975Y148188D01*
X360774Y147789D01*
X361575Y148188D01*
X361175Y147389D01*
X361575Y146589D01*
X360774Y146988D01*
X359975Y146589D01*
X193700Y41700D02*
X194100Y42500D01*
X193700Y43300D01*
X194500Y42900D01*
X195300Y43300D01*
X194900Y42500D01*
X195300Y41700D01*
X194500Y42100D01*
X193700Y41700D01*
Y206700D02*
X194100Y207500D01*
X193700Y208300D01*
X194500Y207900D01*
X195300Y208300D01*
X194900Y207500D01*
X195300Y206700D01*
X194500Y207100D01*
X193700Y206700D01*
X196700Y192200D02*
X197100Y193000D01*
X196700Y193800D01*
X197500Y193400D01*
X198300Y193800D01*
X197900Y193000D01*
X198300Y192200D01*
X197500Y192600D01*
X196700Y192200D01*
X224700Y117700D02*
X225100Y118500D01*
X224700Y119300D01*
X225500Y118900D01*
X226300Y119300D01*
X225900Y118500D01*
X226300Y117700D01*
X225500Y118100D01*
X224700Y117700D01*
X227200Y111700D02*
X227600Y112500D01*
X227200Y113300D01*
X228000Y112900D01*
X228800Y113300D01*
X228400Y112500D01*
X228800Y111700D01*
X228000Y112100D01*
X227200Y111700D01*
X230200Y119200D02*
X230600Y120000D01*
X230200Y120800D01*
X231000Y120400D01*
X231800Y120800D01*
X231400Y120000D01*
X231800Y119200D01*
X231000Y119600D01*
X230200Y119200D01*
X239200Y123700D02*
X239600Y124500D01*
X239200Y125300D01*
X240000Y124900D01*
X240800Y125300D01*
X240400Y124500D01*
X240800Y123700D01*
X240000Y124100D01*
X239200Y123700D01*
X173200Y229200D02*
X173600Y230000D01*
X173200Y230800D01*
X174000Y230400D01*
X174800Y230800D01*
X174400Y230000D01*
X174800Y229200D01*
X174000Y229600D01*
X173200Y229200D01*
X232700Y183700D02*
X233100Y184500D01*
X232700Y185300D01*
X233500Y184900D01*
X234300Y185300D01*
X233900Y184500D01*
X234300Y183700D01*
X233500Y184100D01*
X232700Y183700D01*
Y178200D02*
X233100Y179000D01*
X232700Y179800D01*
X233500Y179400D01*
X234300Y179800D01*
X233900Y179000D01*
X234300Y178200D01*
X233500Y178600D01*
X232700Y178200D01*
Y173200D02*
X233100Y174000D01*
X232700Y174800D01*
X233500Y174400D01*
X234300Y174800D01*
X233900Y174000D01*
X234300Y173200D01*
X233500Y173600D01*
X232700Y173200D01*
X220200Y228200D02*
X220600Y229000D01*
X220200Y229800D01*
X221000Y229400D01*
X221800Y229800D01*
X221400Y229000D01*
X221800Y228200D01*
X221000Y228600D01*
X220200Y228200D01*
X212700Y220700D02*
X213100Y221500D01*
X212700Y222300D01*
X213500Y221900D01*
X214300Y222300D01*
X213900Y221500D01*
X214300Y220700D01*
X213500Y221100D01*
X212700Y220700D01*
X220700Y175700D02*
X221100Y176500D01*
X220700Y177300D01*
X221500Y176900D01*
X222300Y177300D01*
X221900Y176500D01*
X222300Y175700D01*
X221500Y176100D01*
X220700Y175700D01*
X208200Y187700D02*
X208600Y188500D01*
X208200Y189300D01*
X209000Y188900D01*
X209800Y189300D01*
X209400Y188500D01*
X209800Y187700D01*
X209000Y188100D01*
X208200Y187700D01*
X210200Y168700D02*
X210600Y169500D01*
X210200Y170300D01*
X211000Y169900D01*
X211800Y170300D01*
X211400Y169500D01*
X211800Y168700D01*
X211000Y169100D01*
X210200Y168700D01*
X320200Y155700D02*
X320600Y156500D01*
X320200Y157300D01*
X321000Y156900D01*
X321800Y157300D01*
X321400Y156500D01*
X321800Y155700D01*
X321000Y156100D01*
X320200Y155700D01*
X228200Y226200D02*
X228600Y227000D01*
X228200Y227800D01*
X229000Y227400D01*
X229800Y227800D01*
X229400Y227000D01*
X229800Y226200D01*
X229000Y226600D01*
X228200Y226200D01*
X205200Y176200D02*
X205600Y177000D01*
X205200Y177800D01*
X206000Y177400D01*
X206800Y177800D01*
X206400Y177000D01*
X206800Y176200D01*
X206000Y176600D01*
X205200Y176200D01*
X291700Y92700D02*
X292100Y93500D01*
X291700Y94300D01*
X292500Y93900D01*
X293300Y94300D01*
X292900Y93500D01*
X293300Y92700D01*
X292500Y93100D01*
X291700Y92700D01*
X288200Y149200D02*
X288600Y150000D01*
X288200Y150800D01*
X289000Y150400D01*
X289800Y150800D01*
X289400Y150000D01*
X289800Y149200D01*
X289000Y149600D01*
X288200Y149200D01*
X314700Y124700D02*
X315100Y125500D01*
X314700Y126300D01*
X315500Y125900D01*
X316300Y126300D01*
X315900Y125500D01*
X316300Y124700D01*
X315500Y125100D01*
X314700Y124700D01*
X293200Y145700D02*
X293600Y146500D01*
X293200Y147300D01*
X294000Y146900D01*
X294800Y147300D01*
X294400Y146500D01*
X294800Y145700D01*
X294000Y146100D01*
X293200Y145700D01*
X291700Y132200D02*
X292100Y133000D01*
X291700Y133800D01*
X292500Y133400D01*
X293300Y133800D01*
X292900Y133000D01*
X293300Y132200D01*
X292500Y132600D01*
X291700Y132200D01*
Y31200D02*
X292100Y32000D01*
X291700Y32800D01*
X292500Y32400D01*
X293300Y32800D01*
X292900Y32000D01*
X293300Y31200D01*
X292500Y31600D01*
X291700Y31200D01*
X214700Y117700D02*
X215100Y118500D01*
X214700Y119300D01*
X215500Y118900D01*
X216300Y119300D01*
X215900Y118500D01*
X216300Y117700D01*
X215500Y118100D01*
X214700Y117700D01*
X276200Y147700D02*
X276600Y148500D01*
X276200Y149300D01*
X277000Y148900D01*
X277800Y149300D01*
X277400Y148500D01*
X277800Y147700D01*
X277000Y148100D01*
X276200Y147700D01*
X262700Y165200D02*
X263100Y166000D01*
X262700Y166800D01*
X263500Y166400D01*
X264300Y166800D01*
X263900Y166000D01*
X264300Y165200D01*
X263500Y165600D01*
X262700Y165200D01*
X230200Y143700D02*
X230600Y144500D01*
X230200Y145300D01*
X231000Y144900D01*
X231800Y145300D01*
X231400Y144500D01*
X231800Y143700D01*
X231000Y144100D01*
X230200Y143700D01*
X226700Y173700D02*
X227100Y174500D01*
X226700Y175300D01*
X227500Y174900D01*
X228300Y175300D01*
X227900Y174500D01*
X228300Y173700D01*
X227500Y174100D01*
X226700Y173700D01*
X204700Y112200D02*
X205100Y113000D01*
X204700Y113800D01*
X205500Y113400D01*
X206300Y113800D01*
X205900Y113000D01*
X206300Y112200D01*
X205500Y112600D01*
X204700Y112200D01*
X286700Y235700D02*
X287100Y236500D01*
X286700Y237300D01*
X287500Y236900D01*
X288300Y237300D01*
X287900Y236500D01*
X288300Y235700D01*
X287500Y236100D01*
X286700Y235700D01*
X305200Y266700D02*
X305600Y267500D01*
X305200Y268300D01*
X306000Y267900D01*
X306800Y268300D01*
X306400Y267500D01*
X306800Y266700D01*
X306000Y267100D01*
X305200Y266700D01*
X292700Y114200D02*
X293100Y115000D01*
X292700Y115800D01*
X293500Y115400D01*
X294300Y115800D01*
X293900Y115000D01*
X294300Y114200D01*
X293500Y114600D01*
X292700Y114200D01*
X296200Y148700D02*
X296600Y149500D01*
X296200Y150300D01*
X297000Y149900D01*
X297800Y150300D01*
X297400Y149500D01*
X297800Y148700D01*
X297000Y149100D01*
X296200Y148700D01*
X301200Y90200D02*
X301600Y91000D01*
X301200Y91800D01*
X302000Y91400D01*
X302800Y91800D01*
X302400Y91000D01*
X302800Y90200D01*
X302000Y90600D01*
X301200Y90200D01*
X332700D02*
X333100Y91000D01*
X332700Y91800D01*
X333500Y91400D01*
X334300Y91800D01*
X333900Y91000D01*
X334300Y90200D01*
X333500Y90600D01*
X332700Y90200D01*
X296200Y153200D02*
X296600Y154000D01*
X296200Y154800D01*
X297000Y154400D01*
X297800Y154800D01*
X297400Y154000D01*
X297800Y153200D01*
X297000Y153600D01*
X296200Y153200D01*
X338200Y156900D02*
X338600Y157700D01*
X338200Y158500D01*
X339000Y158100D01*
X339800Y158500D01*
X339400Y157700D01*
X339800Y156900D01*
X339000Y157300D01*
X338200Y156900D01*
X331700Y139700D02*
X332100Y140500D01*
X331700Y141300D01*
X332500Y140900D01*
X333300Y141300D01*
X332900Y140500D01*
X333300Y139700D01*
X332500Y140100D01*
X331700Y139700D01*
X324700Y166200D02*
X325100Y167000D01*
X324700Y167800D01*
X325500Y167400D01*
X326300Y167800D01*
X325900Y167000D01*
X326300Y166200D01*
X325500Y166600D01*
X324700Y166200D01*
X338200Y146200D02*
X338600Y147000D01*
X338200Y147800D01*
X339000Y147400D01*
X339800Y147800D01*
X339400Y147000D01*
X339800Y146200D01*
X339000Y146600D01*
X338200Y146200D01*
X296500Y187800D02*
X296900Y188600D01*
X296500Y189400D01*
X297300Y189000D01*
X298100Y189400D01*
X297700Y188600D01*
X298100Y187800D01*
X297300Y188200D01*
X296500Y187800D01*
X273700Y118700D02*
X274100Y119500D01*
X273700Y120300D01*
X274500Y119900D01*
X275300Y120300D01*
X274900Y119500D01*
X275300Y118700D01*
X274500Y119100D01*
X273700Y118700D01*
X260700Y55200D02*
X261100Y56000D01*
X260700Y56800D01*
X261500Y56400D01*
X262300Y56800D01*
X261900Y56000D01*
X262300Y55200D01*
X261500Y55600D01*
X260700Y55200D01*
X251200D02*
X251600Y56000D01*
X251200Y56800D01*
X252000Y56400D01*
X252800Y56800D01*
X252400Y56000D01*
X252800Y55200D01*
X252000Y55600D01*
X251200Y55200D01*
X218700Y49700D02*
X219100Y50500D01*
X218700Y51300D01*
X219500Y50900D01*
X220300Y51300D01*
X219900Y50500D01*
X220300Y49700D01*
X219500Y50100D01*
X218700Y49700D01*
X203700D02*
X204100Y50500D01*
X203700Y51300D01*
X204500Y50900D01*
X205300Y51300D01*
X204900Y50500D01*
X205300Y49700D01*
X204500Y50100D01*
X203700Y49700D01*
X259700Y85200D02*
X260100Y86000D01*
X259700Y86800D01*
X260500Y86400D01*
X261300Y86800D01*
X260900Y86000D01*
X261300Y85200D01*
X260500Y85600D01*
X259700Y85200D01*
X255200Y88200D02*
X255600Y89000D01*
X255200Y89800D01*
X256000Y89400D01*
X256800Y89800D01*
X256400Y89000D01*
X256800Y88200D01*
X256000Y88600D01*
X255200Y88200D01*
X241200Y92700D02*
X241600Y93500D01*
X241200Y94300D01*
X242000Y93900D01*
X242800Y94300D01*
X242400Y93500D01*
X242800Y92700D01*
X242000Y93100D01*
X241200Y92700D01*
X245200Y112200D02*
X245600Y113000D01*
X245200Y113800D01*
X246000Y113400D01*
X246800Y113800D01*
X246400Y113000D01*
X246800Y112200D01*
X246000Y112600D01*
X245200Y112200D01*
X98200Y55200D02*
X98600Y56000D01*
X98200Y56800D01*
X99000Y56400D01*
X99800Y56800D01*
X99400Y56000D01*
X99800Y55200D01*
X99000Y55600D01*
X98200Y55200D01*
X112700Y49200D02*
X113100Y50000D01*
X112700Y50800D01*
X113500Y50400D01*
X114300Y50800D01*
X113900Y50000D01*
X114300Y49200D01*
X113500Y49600D01*
X112700Y49200D01*
X267700Y283700D02*
X268100Y284500D01*
X267700Y285300D01*
X268500Y284900D01*
X269300Y285300D01*
X268900Y284500D01*
X269300Y283700D01*
X268500Y284100D01*
X267700Y283700D01*
X254216Y164956D02*
X254616Y165756D01*
X254216Y166556D01*
X255016Y166156D01*
X255816Y166556D01*
X255416Y165756D01*
X255816Y164956D01*
X255016Y165356D01*
X254216Y164956D01*
X244216Y140956D02*
X244616Y141756D01*
X244216Y142556D01*
X245016Y142156D01*
X245816Y142556D01*
X245416Y141756D01*
X245816Y140956D01*
X245016Y141356D01*
X244216Y140956D01*
X253700Y193200D02*
X254100Y194000D01*
X253700Y194800D01*
X254500Y194400D01*
X255300Y194800D01*
X254900Y194000D01*
X255300Y193200D01*
X254500Y193600D01*
X253700Y193200D01*
X307800Y167900D02*
X308200Y168700D01*
X307800Y169500D01*
X308600Y169100D01*
X309400Y169500D01*
X309000Y168700D01*
X309400Y167900D01*
X308600Y168300D01*
X307800Y167900D01*
Y176900D02*
X308200Y177700D01*
X307800Y178500D01*
X308600Y178100D01*
X309400Y178500D01*
X309000Y177700D01*
X309400Y176900D01*
X308600Y177300D01*
X307800Y176900D01*
X266700Y200200D02*
X267100Y201000D01*
X266700Y201800D01*
X267500Y201400D01*
X268300Y201800D01*
X267900Y201000D01*
X268300Y200200D01*
X267500Y200600D01*
X266700Y200200D01*
X152200Y234200D02*
X152600Y235000D01*
X152200Y235800D01*
X153000Y235400D01*
X153800Y235800D01*
X153400Y235000D01*
X153800Y234200D01*
X153000Y234600D01*
X152200Y234200D01*
X127700Y189700D02*
X128100Y190500D01*
X127700Y191300D01*
X128500Y190900D01*
X129300Y191300D01*
X128900Y190500D01*
X129300Y189700D01*
X128500Y190100D01*
X127700Y189700D01*
X162200Y285700D02*
X162600Y286500D01*
X162200Y287300D01*
X163000Y286900D01*
X163800Y287300D01*
X163400Y286500D01*
X163800Y285700D01*
X163000Y286100D01*
X162200Y285700D01*
X148700Y250700D02*
X149100Y251500D01*
X148700Y252300D01*
X149500Y251900D01*
X150300Y252300D01*
X149900Y251500D01*
X150300Y250700D01*
X149500Y251100D01*
X148700Y250700D01*
X121700Y260700D02*
X122100Y261500D01*
X121700Y262300D01*
X122500Y261900D01*
X123300Y262300D01*
X122900Y261500D01*
X123300Y260700D01*
X122500Y261100D01*
X121700Y260700D01*
X173200Y203700D02*
X173600Y204500D01*
X173200Y205300D01*
X174000Y204900D01*
X174800Y205300D01*
X174400Y204500D01*
X174800Y203700D01*
X174000Y204100D01*
X173200Y203700D01*
X362700Y165200D02*
X363100Y166000D01*
X362700Y166800D01*
X363500Y166400D01*
X364300Y166800D01*
X363900Y166000D01*
X364300Y165200D01*
X363500Y165600D01*
X362700Y165200D01*
X112700Y249700D02*
X113100Y250500D01*
X112700Y251300D01*
X113500Y250900D01*
X114300Y251300D01*
X113900Y250500D01*
X114300Y249700D01*
X113500Y250100D01*
X112700Y249700D01*
X77700Y282700D02*
X78100Y283500D01*
X77700Y284300D01*
X78500Y283900D01*
X79300Y284300D01*
X78900Y283500D01*
X79300Y282700D01*
X78500Y283100D01*
X77700Y282700D01*
X254700Y119700D02*
X255100Y120500D01*
X254700Y121300D01*
X255500Y120900D01*
X256300Y121300D01*
X255900Y120500D01*
X256300Y119700D01*
X255500Y120100D01*
X254700Y119700D01*
X152700Y47700D02*
X153100Y48500D01*
X152700Y49300D01*
X153500Y48900D01*
X154300Y49300D01*
X153900Y48500D01*
X154300Y47700D01*
X153500Y48100D01*
X152700Y47700D01*
X360100Y140900D02*
X360500Y141700D01*
X360100Y142500D01*
X360900Y142100D01*
X361700Y142500D01*
X361300Y141700D01*
X361700Y140900D01*
X360900Y141300D01*
X360100Y140900D01*
X246200Y74200D02*
X246600Y75000D01*
X246200Y75800D01*
X247000Y75400D01*
X247800Y75800D01*
X247400Y75000D01*
X247800Y74200D01*
X247000Y74600D01*
X246200Y74200D01*
X117700Y239200D02*
X118100Y240000D01*
X117700Y240800D01*
X118500Y240400D01*
X119300Y240800D01*
X118900Y240000D01*
X119300Y239200D01*
X118500Y239600D01*
X117700Y239200D01*
X121200Y47700D02*
X121600Y48500D01*
X121200Y49300D01*
X122000Y48900D01*
X122800Y49300D01*
X122400Y48500D01*
X122800Y47700D01*
X122000Y48100D01*
X121200Y47700D01*
X125700Y157700D02*
X126100Y158500D01*
X125700Y159300D01*
X126500Y158900D01*
X127300Y159300D01*
X126900Y158500D01*
X127300Y157700D01*
X126500Y158100D01*
X125700Y157700D01*
X127106Y105070D02*
X127506Y105870D01*
X127106Y106670D01*
X127906Y106270D01*
X128706Y106670D01*
X128306Y105870D01*
X128706Y105070D01*
X127906Y105470D01*
X127106Y105070D01*
D93*
X57800Y125000D02*
G03*
X57800Y125000I-800J0D01*
G01*
Y100000D02*
G03*
X57800Y100000I-800J0D01*
G01*
Y75000D02*
G03*
X57800Y75000I-800J0D01*
G01*
Y50000D02*
G03*
X57800Y50000I-800J0D01*
G01*
Y249000D02*
G03*
X57800Y249000I-800J0D01*
G01*
Y224000D02*
G03*
X57800Y224000I-800J0D01*
G01*
Y199000D02*
G03*
X57800Y199000I-800J0D01*
G01*
Y174000D02*
G03*
X57800Y174000I-800J0D01*
G01*
M02*
