G04*
G04 #@! TF.GenerationSoftware,Altium Limited,Altium Designer,19.0.14 (431)*
G04*
G04 Layer_Color=8388736*
%FSLAX25Y25*%
%MOIN*%
G70*
G01*
G75*
%ADD44R,0.05524X0.04934*%
%ADD45R,0.04343X0.04737*%
%ADD46R,0.06312X0.04737*%
%ADD47R,0.04737X0.05328*%
%ADD48R,0.05328X0.04737*%
%ADD49R,0.04343X0.04934*%
%ADD50R,0.07493X0.04934*%
%ADD51R,0.04934X0.05524*%
%ADD52R,0.06706X0.03556*%
%ADD53R,0.13989X0.05721*%
%ADD54O,0.09461X0.03162*%
%ADD55R,0.05524X0.03359*%
%ADD56R,0.08674X0.06902*%
%ADD57R,0.03084X0.08832*%
%ADD58R,0.01575X0.01772*%
%ADD59R,0.01772X0.01575*%
%ADD60R,0.03642X0.01575*%
%ADD61R,0.01772X0.03839*%
%ADD62R,0.05564X0.03123*%
%ADD63O,0.05918X0.01981*%
%ADD64O,0.01981X0.05918*%
%ADD65R,0.04934X0.04343*%
%ADD66R,0.04934X0.07493*%
%ADD67R,0.04202X0.05403*%
%ADD68R,0.08280X0.06902*%
%ADD69C,0.05556*%
%ADD70C,0.13800*%
%ADD71C,0.06706*%
%ADD72R,0.06706X0.06706*%
%ADD73C,0.06800*%
%ADD74R,0.06706X0.06706*%
D44*
X285653Y188500D02*
D03*
X292347D02*
D03*
X260846Y284500D02*
D03*
X254153D02*
D03*
X324153Y148500D02*
D03*
X330847D02*
D03*
X300946Y177700D02*
D03*
X294253D02*
D03*
X300946Y168700D02*
D03*
X294253D02*
D03*
X289347Y119500D02*
D03*
X282653D02*
D03*
X301847Y236500D02*
D03*
X295153D02*
D03*
D45*
X275634Y188260D02*
D03*
X267366D02*
D03*
Y195740D02*
D03*
X275634D02*
D03*
X306177Y261079D02*
D03*
Y245921D02*
D03*
X290823D02*
D03*
Y261079D02*
D03*
X219677Y56921D02*
D03*
Y72079D02*
D03*
X204323D02*
D03*
Y56921D02*
D03*
D46*
X196669Y104500D02*
D03*
X205331Y108240D02*
D03*
Y100760D02*
D03*
D47*
X165000Y82055D02*
D03*
Y88945D02*
D03*
X236000Y211752D02*
D03*
Y218248D02*
D03*
X177000Y45945D02*
D03*
Y39055D02*
D03*
X216500Y101252D02*
D03*
Y107748D02*
D03*
X194500Y29055D02*
D03*
Y35945D02*
D03*
X106500Y42555D02*
D03*
Y49445D02*
D03*
X146406Y89315D02*
D03*
Y82425D02*
D03*
X91000Y123445D02*
D03*
Y116555D02*
D03*
X90906Y103815D02*
D03*
Y96925D02*
D03*
X167500Y39055D02*
D03*
Y45945D02*
D03*
Y230055D02*
D03*
Y236945D02*
D03*
X180500Y230055D02*
D03*
Y236945D02*
D03*
X170000Y177055D02*
D03*
Y183945D02*
D03*
X209000Y204752D02*
D03*
Y211248D02*
D03*
X250000Y100252D02*
D03*
Y106748D02*
D03*
X258000Y100252D02*
D03*
Y106748D02*
D03*
X242000Y100252D02*
D03*
Y106748D02*
D03*
X252500Y211752D02*
D03*
Y218248D02*
D03*
X91000Y168055D02*
D03*
Y174945D02*
D03*
X95000Y226945D02*
D03*
Y220055D02*
D03*
X91000Y150000D02*
D03*
Y156890D02*
D03*
X174000Y219945D02*
D03*
Y213055D02*
D03*
D48*
X135850Y82370D02*
D03*
X128961D02*
D03*
X275752Y206000D02*
D03*
X282248D02*
D03*
X308752Y140500D02*
D03*
X315248D02*
D03*
X185248Y104500D02*
D03*
X178752D02*
D03*
X235945Y284500D02*
D03*
X229055D02*
D03*
X308752Y148500D02*
D03*
X315248D02*
D03*
X308752Y132500D02*
D03*
X315248D02*
D03*
X315445Y156500D02*
D03*
X308555D02*
D03*
X141945Y190500D02*
D03*
X135055D02*
D03*
X157945Y190500D02*
D03*
X151055D02*
D03*
D49*
X127256Y283500D02*
D03*
X121744D02*
D03*
D50*
X88071D02*
D03*
X96929D02*
D03*
D51*
X106500Y33347D02*
D03*
Y26654D02*
D03*
X252000Y63153D02*
D03*
Y69846D02*
D03*
X261500Y63307D02*
D03*
Y70000D02*
D03*
X363500Y159346D02*
D03*
Y152654D02*
D03*
X246000Y181653D02*
D03*
Y188347D02*
D03*
X254500Y181653D02*
D03*
Y188347D02*
D03*
X227500Y168347D02*
D03*
Y161653D02*
D03*
X226500Y126154D02*
D03*
Y132846D02*
D03*
X113500Y259298D02*
D03*
Y265347D02*
D03*
X149500Y265346D02*
D03*
Y258654D02*
D03*
X109000Y226847D02*
D03*
Y220153D02*
D03*
D52*
X92980Y79870D02*
D03*
Y74870D02*
D03*
Y69870D02*
D03*
Y64870D02*
D03*
X114831D02*
D03*
Y69870D02*
D03*
Y74870D02*
D03*
Y79870D02*
D03*
X90575Y204500D02*
D03*
Y199500D02*
D03*
Y194500D02*
D03*
Y189500D02*
D03*
X112425D02*
D03*
Y194500D02*
D03*
Y199500D02*
D03*
Y204500D02*
D03*
D53*
X113500Y101378D02*
D03*
Y125000D02*
D03*
X113500Y172311D02*
D03*
Y148689D02*
D03*
D54*
X147449Y28500D02*
D03*
Y33500D02*
D03*
Y38500D02*
D03*
Y43500D02*
D03*
X128551Y28500D02*
D03*
Y33500D02*
D03*
Y38500D02*
D03*
Y43500D02*
D03*
X125551Y235000D02*
D03*
Y230000D02*
D03*
Y225000D02*
D03*
Y220000D02*
D03*
X144449Y235000D02*
D03*
Y230000D02*
D03*
Y225000D02*
D03*
Y220000D02*
D03*
D55*
X139098Y109610D02*
D03*
Y105870D02*
D03*
Y102130D02*
D03*
X150713D02*
D03*
Y109610D02*
D03*
X137693Y169240D02*
D03*
Y165500D02*
D03*
Y161760D02*
D03*
X149307D02*
D03*
Y169240D02*
D03*
D56*
X215500Y125496D02*
D03*
Y137504D02*
D03*
D57*
X259000Y235846D02*
D03*
X254000D02*
D03*
X249000D02*
D03*
X244000D02*
D03*
X239000D02*
D03*
X234000D02*
D03*
X229000D02*
D03*
X224000D02*
D03*
Y272500D02*
D03*
X229000D02*
D03*
X234000D02*
D03*
X239000D02*
D03*
X244000D02*
D03*
X249000D02*
D03*
X254000D02*
D03*
X259000D02*
D03*
D58*
X254969Y78988D02*
D03*
X253000D02*
D03*
X251031D02*
D03*
Y85012D02*
D03*
X253000D02*
D03*
X254969D02*
D03*
D59*
X249988Y81016D02*
D03*
Y82984D02*
D03*
X256012D02*
D03*
Y81016D02*
D03*
D60*
X354321Y143940D02*
D03*
Y145909D02*
D03*
Y147877D02*
D03*
Y149846D02*
D03*
Y151814D02*
D03*
Y153783D02*
D03*
X344754Y143940D02*
D03*
Y145909D02*
D03*
Y147877D02*
D03*
Y149846D02*
D03*
Y151814D02*
D03*
Y153783D02*
D03*
X354321Y155751D02*
D03*
X344754D02*
D03*
D61*
X349538Y142110D02*
D03*
Y157582D02*
D03*
D62*
X137941Y265240D02*
D03*
Y257760D02*
D03*
X128059D02*
D03*
Y261500D02*
D03*
Y265240D02*
D03*
D63*
X282744Y164264D02*
D03*
Y162295D02*
D03*
Y160327D02*
D03*
Y158358D02*
D03*
Y156390D02*
D03*
Y154421D02*
D03*
Y152453D02*
D03*
Y150484D02*
D03*
Y148516D02*
D03*
Y146547D02*
D03*
Y144579D02*
D03*
Y142610D02*
D03*
Y140642D02*
D03*
Y138673D02*
D03*
Y136705D02*
D03*
Y134736D02*
D03*
X238256D02*
D03*
Y136705D02*
D03*
Y138673D02*
D03*
Y140642D02*
D03*
Y142610D02*
D03*
Y144579D02*
D03*
Y146547D02*
D03*
Y148516D02*
D03*
Y150484D02*
D03*
Y152453D02*
D03*
Y154421D02*
D03*
Y156390D02*
D03*
Y158358D02*
D03*
Y160327D02*
D03*
Y162295D02*
D03*
Y164264D02*
D03*
D64*
X275264Y127256D02*
D03*
X273295D02*
D03*
X271327D02*
D03*
X269358D02*
D03*
X267390D02*
D03*
X265421D02*
D03*
X263453D02*
D03*
X261484D02*
D03*
X259516D02*
D03*
X257547D02*
D03*
X255579D02*
D03*
X253610D02*
D03*
X251642D02*
D03*
X249673D02*
D03*
X247705D02*
D03*
X245736D02*
D03*
Y171744D02*
D03*
X247705D02*
D03*
X249673D02*
D03*
X251642D02*
D03*
X253610D02*
D03*
X255579D02*
D03*
X257547D02*
D03*
X259516D02*
D03*
X261484D02*
D03*
X263453D02*
D03*
X265421D02*
D03*
X267390D02*
D03*
X269358D02*
D03*
X271327D02*
D03*
X273295D02*
D03*
X275264D02*
D03*
D65*
X292500Y70256D02*
D03*
Y64744D02*
D03*
D66*
X292500Y49429D02*
D03*
Y40571D02*
D03*
D67*
X86053Y265500D02*
D03*
X98947D02*
D03*
D68*
X163000Y277307D02*
D03*
Y265693D02*
D03*
D69*
X172315Y137000D02*
D03*
X192000D02*
D03*
D70*
X57000Y125000D02*
D03*
Y100000D02*
D03*
Y75000D02*
D03*
Y50000D02*
D03*
Y249000D02*
D03*
Y224000D02*
D03*
Y199000D02*
D03*
Y174000D02*
D03*
D71*
X262500Y12500D02*
D03*
X294500Y286500D02*
D03*
X304500D02*
D03*
X314500D02*
D03*
X365500Y121000D02*
D03*
Y111000D02*
D03*
Y101000D02*
D03*
Y91000D02*
D03*
Y71000D02*
D03*
Y81000D02*
D03*
D72*
X272500Y12500D02*
D03*
X324500Y286500D02*
D03*
D73*
X11811Y11811D02*
D03*
X12000Y287500D02*
D03*
X366142Y11811D02*
D03*
X366000Y287500D02*
D03*
D74*
X365500Y61000D02*
D03*
M02*
