G04*
G04 #@! TF.GenerationSoftware,Altium Limited,Altium Designer,19.0.14 (431)*
G04*
G04 Layer_Physical_Order=1*
G04 Layer_Color=255*
%FSLAX25Y25*%
%MOIN*%
G70*
G01*
G75*
%ADD14C,0.01000*%
%ADD17C,0.00700*%
%ADD19R,0.04724X0.04134*%
%ADD20R,0.03543X0.03937*%
%ADD21R,0.05512X0.03937*%
%ADD22R,0.03937X0.04528*%
%ADD23R,0.04528X0.03937*%
%ADD24R,0.03543X0.04134*%
%ADD25R,0.06693X0.04134*%
%ADD26R,0.04134X0.04724*%
%ADD27R,0.05906X0.02756*%
%ADD28R,0.13189X0.04921*%
%ADD29O,0.08661X0.02362*%
%ADD30R,0.04724X0.02559*%
%ADD31R,0.07874X0.06102*%
%ADD32R,0.02284X0.08032*%
%ADD33R,0.01181X0.01378*%
%ADD34R,0.01378X0.01181*%
%ADD35R,0.03051X0.00984*%
%ADD36R,0.00984X0.03051*%
%ADD37R,0.04764X0.02323*%
%ADD38O,0.05118X0.01181*%
%ADD39O,0.01181X0.05118*%
%ADD40R,0.04134X0.03543*%
%ADD41R,0.04134X0.06693*%
%ADD42R,0.03602X0.04803*%
%ADD43R,0.07480X0.06102*%
%ADD75C,0.02000*%
%ADD76C,0.01200*%
%ADD77C,0.00800*%
%ADD78C,0.00600*%
%ADD79C,0.12000*%
%ADD80C,0.10000*%
%ADD81C,0.04756*%
%ADD82C,0.13000*%
%ADD83C,0.05906*%
%ADD84R,0.05906X0.05906*%
%ADD85C,0.06000*%
%ADD86R,0.05906X0.05906*%
%ADD87C,0.02550*%
G36*
X257000Y147700D02*
X257300Y147400D01*
X255300D01*
X255500Y149200D01*
X257000Y147700D01*
D02*
G37*
G36*
X260000Y145500D02*
X258500Y147000D01*
X258200Y147300D01*
X260200D01*
X260000Y145500D01*
D02*
G37*
D14*
X288100Y164600D02*
X294200D01*
X287764Y164264D02*
X288100Y164600D01*
X294200D02*
X294253Y164654D01*
X251500Y70000D02*
X252000Y69500D01*
X228673Y160327D02*
X238256D01*
X138000Y265000D02*
Y265293D01*
X261154Y69846D02*
X261500Y69500D01*
X341949Y60500D02*
X365500D01*
X254346Y181653D02*
X254500Y181500D01*
X98310Y109610D02*
X139098D01*
X93570Y104870D02*
X98310Y109610D01*
X91906Y104870D02*
X93570D01*
X91000Y123000D02*
Y137000D01*
X267000Y196000D02*
X267500Y196500D01*
X292500Y188347D02*
X292754Y188600D01*
X205500Y108591D02*
X205591Y108500D01*
X127906Y105370D02*
X128406Y105870D01*
X122000Y48000D02*
X122081D01*
X169500Y186000D02*
Y187300D01*
X137000Y219800D02*
X169500Y187300D01*
X137000Y219800D02*
Y240000D01*
X92900Y75000D02*
Y85600D01*
Y73100D02*
Y75000D01*
X90906Y87594D02*
X92900Y85600D01*
X128000Y258000D02*
X131500D01*
X113500Y60500D02*
Y67000D01*
X244866Y162066D02*
X251700Y168900D01*
Y169520D01*
X284123Y164264D02*
X284207Y164348D01*
X251607Y170387D02*
X251720Y170500D01*
X251607Y169613D02*
Y170387D01*
X244866Y160327D02*
X275186Y130007D01*
X244866Y160327D02*
Y162066D01*
X251607Y169613D02*
X251700Y169520D01*
X228500Y160500D02*
X228673Y160327D01*
X294200Y164600D02*
X311168D01*
X294253Y164654D02*
Y168700D01*
X284123Y164264D02*
X287764D01*
X282744D02*
X284123D01*
X311168Y164600D02*
X311504Y164264D01*
X254500Y188500D02*
Y194000D01*
X275347Y125787D02*
X279713D01*
X311504Y164264D02*
X330764D01*
X275264Y125871D02*
X275347Y125787D01*
X167500Y45945D02*
X177000D01*
X217000Y138500D02*
X217173Y138673D01*
X238256D01*
X223500Y46500D02*
X247000Y70000D01*
X177260Y46500D02*
X223500D01*
X177000Y46240D02*
X177260Y46500D01*
X194500Y36000D02*
Y42500D01*
X247000Y70000D02*
X251500D01*
X246500D02*
X247000D01*
X165000Y77500D02*
Y81000D01*
Y77500D02*
X167500Y75000D01*
Y45945D02*
Y75000D01*
X225500Y118500D02*
Y124500D01*
X226500Y125500D01*
X236836Y134702D02*
X236871Y134736D01*
X236787Y134653D02*
X236836Y134702D01*
X234202D02*
X236836D01*
X235000Y81500D02*
X246500Y70000D01*
X235000Y81500D02*
Y125000D01*
X236787Y126787D01*
Y134653D01*
X236871Y134736D02*
X238256D01*
X252000Y69846D02*
X261154D01*
X229000Y227000D02*
X229000Y227000D01*
X229000Y227000D02*
Y232500D01*
X229000Y232500D01*
X246000Y181653D02*
X254346D01*
X253000Y179858D02*
Y180000D01*
X251642Y178500D02*
X253000Y179858D01*
X251642Y171744D02*
Y178500D01*
X85000Y181240D02*
Y194000D01*
Y181240D02*
X91000Y175240D01*
Y174945D02*
Y175240D01*
X90906Y87594D02*
Y96925D01*
X149474Y265026D02*
X149500Y265051D01*
X144500Y260051D02*
X149474Y265026D01*
X137000Y240000D02*
X144500Y247500D01*
X149500Y265051D02*
Y265346D01*
X144500Y247500D02*
Y260051D01*
X138000Y265293D02*
Y277000D01*
X131500Y283500D02*
X138000Y277000D01*
X142000Y163500D02*
Y190500D01*
X152000D01*
X141945D02*
X142000D01*
X152000D02*
X152000Y190500D01*
X227500Y168347D02*
Y174500D01*
X227500Y168347D02*
X227500Y168347D01*
X292500Y71256D02*
Y93500D01*
X292000Y70756D02*
X292500Y71256D01*
X292000Y70756D02*
X292500Y70256D01*
X288500Y150000D02*
Y150081D01*
X292000Y49000D02*
X292500Y49500D01*
Y64744D01*
X288096Y150484D02*
X288500Y150081D01*
X282744Y150484D02*
X288096D01*
X292500Y32000D02*
Y40571D01*
X292500Y40571D01*
X216043Y108500D02*
X216500D01*
X233610Y142610D02*
X238256D01*
X232925Y141925D02*
X233610Y142610D01*
X222075Y141925D02*
X232925D01*
X215500Y118500D02*
Y124843D01*
X209000Y115543D02*
X216043Y108500D01*
X209000Y115543D02*
Y141000D01*
X210500Y142500D01*
X221500D01*
X222075Y141925D01*
X216260Y100760D02*
X216500Y101000D01*
X205331Y100760D02*
X216260D01*
X161240Y161760D02*
X170000Y170520D01*
X149740Y161760D02*
X161240D01*
X170000Y170520D02*
Y176500D01*
X215500Y124843D02*
X215579Y124921D01*
X205500Y108591D02*
Y113000D01*
X306000Y262000D02*
X306500Y261500D01*
X306000Y262000D02*
Y267500D01*
X260847Y284500D02*
X268500D01*
X260846Y284500D02*
X260847Y284500D01*
X275186Y127334D02*
Y130007D01*
X238256Y160327D02*
X244866D01*
X282653Y119500D02*
X282949D01*
X341949Y60500D01*
X283000Y120000D02*
Y122500D01*
X279713Y125787D02*
X283000Y122500D01*
X275264Y125871D02*
Y127256D01*
X292754Y188600D02*
X297300D01*
X292347Y188500D02*
X292500Y188347D01*
X273200Y124091D02*
X273217Y124109D01*
X273200Y121219D02*
Y124091D01*
Y121219D02*
X274500Y119919D01*
X273217Y124109D02*
Y125000D01*
X274500Y119500D02*
Y119919D01*
X281764Y119082D02*
X282000Y118846D01*
X232000Y132500D02*
X234202Y134702D01*
X249595Y125500D02*
X249673Y125422D01*
X261500Y56000D02*
Y62000D01*
X252000Y56000D02*
Y61106D01*
X251976Y61130D02*
X252000Y61106D01*
X114000Y49701D02*
Y50000D01*
Y49701D02*
X125201Y38500D01*
X128551D01*
X92980Y62020D02*
X99000Y56000D01*
X92980Y62020D02*
Y64870D01*
X106500Y53500D02*
X113500Y60500D01*
X106500Y49445D02*
Y53500D01*
X106500Y49445D02*
X106500Y49445D01*
X114831Y100795D02*
X114906Y100870D01*
X107000Y33500D02*
X128551D01*
X112000Y28500D02*
X125500D01*
X110153Y26654D02*
X112000Y28500D01*
X106500Y26654D02*
X110153D01*
X226996Y125496D02*
X227000Y125500D01*
X214500Y125496D02*
X215500D01*
X228000Y132500D02*
X232000D01*
X229000Y275500D02*
X229000Y275500D01*
X229000Y275500D02*
Y284445D01*
X229055Y284500D01*
X267390Y187890D02*
Y188236D01*
Y173578D02*
X267468Y173500D01*
X267366Y188260D02*
X267390Y188236D01*
Y187890D02*
X267500Y188000D01*
X249673Y107075D02*
X250000Y106748D01*
X253532Y167239D02*
X255016Y165756D01*
X275264Y166035D02*
Y171744D01*
X241007Y136783D02*
X244643Y140418D01*
X253532Y167239D02*
Y171666D01*
X238256Y134736D02*
X242736D01*
X238334Y136783D02*
X241007D01*
X242736Y134736D02*
X256576Y148576D01*
X277134Y164264D02*
X282744D01*
X244643Y140418D02*
Y141383D01*
X275264Y166035D02*
X277035Y164264D01*
X259122Y146252D02*
X277134Y164264D01*
X300946Y168700D02*
X308600D01*
X300946Y177700D02*
X308600D01*
X294253Y176854D02*
X294600Y177200D01*
X294253Y168700D02*
Y176854D01*
X275500Y205500D02*
X275634Y205366D01*
Y195740D02*
Y205366D01*
X267500Y196500D02*
Y201000D01*
X152000Y102000D02*
X157000D01*
X153000Y235000D02*
X153000Y235000D01*
X144449Y235000D02*
X153000D01*
X144449Y235000D02*
X144449Y235000D01*
X99000Y283500D02*
X121744D01*
X121744Y283500D01*
X128000Y283500D02*
X131500D01*
X129500Y169000D02*
X137000D01*
X137500Y169500D01*
X126000Y165500D02*
X129500Y169000D01*
X133500Y165500D02*
X137693D01*
X126500Y158500D02*
X133500Y165500D01*
X140500Y162000D02*
X142000Y163500D01*
X137933Y162000D02*
X140500D01*
X137693Y161760D02*
X137933Y162000D01*
X128500Y190500D02*
X135055D01*
X135055Y190500D01*
X90906Y103870D02*
X91906Y104870D01*
X91000Y104000D02*
X91000Y104000D01*
Y116555D01*
X106500Y33347D02*
Y42500D01*
X107000Y33500D02*
X107000Y33500D01*
X106500Y42500D02*
X106500Y42500D01*
X118000Y230000D02*
X122000D01*
X114500Y233500D02*
X118000Y230000D01*
X93000Y233500D02*
X114500D01*
X88500Y229000D02*
X93000Y233500D01*
X88500Y217500D02*
Y229000D01*
Y217500D02*
X102000Y204000D01*
Y196000D02*
Y204000D01*
X95500Y189500D02*
X102000Y196000D01*
X90575Y189500D02*
X95500D01*
X108055Y226945D02*
X108500Y226500D01*
X95000Y226945D02*
X108055D01*
X110000Y227000D02*
X114500D01*
X116500Y225000D01*
X125551D01*
X124000Y220000D02*
X124000Y220000D01*
X109154Y220000D02*
X124000D01*
X109000Y220153D02*
X109154Y220000D01*
X95260Y219500D02*
X112760Y202000D01*
X95000Y219500D02*
X95260D01*
X112760Y202000D02*
X113500D01*
X163000Y278500D02*
Y286500D01*
Y278500D02*
X163500Y278000D01*
X163000Y277500D02*
X163500Y278000D01*
X149500Y251500D02*
Y258654D01*
X149500Y258654D01*
X128059Y265240D02*
X128299Y265000D01*
X122500Y261500D02*
X127500D01*
X122500Y261500D02*
X122500Y261500D01*
X91000Y137000D02*
Y149500D01*
X254000Y272500D02*
Y284000D01*
X78500Y283500D02*
X88071D01*
X88071Y283500D01*
X113500Y251000D02*
Y259298D01*
X113500Y259298D01*
X205331Y108240D02*
X205591Y108500D01*
X131500Y258000D02*
X133000Y259500D01*
Y263500D01*
X131500Y265000D02*
X133000Y263500D01*
X128299Y265000D02*
X131500D01*
X215498Y137502D02*
X215500Y137500D01*
X215327Y137673D02*
X215498Y137502D01*
X215500Y125000D02*
X215579Y124921D01*
X135906Y82370D02*
Y100020D01*
X153919Y48000D02*
X154000D01*
X173823Y212878D02*
X174000Y213055D01*
X118500Y240000D02*
X118797Y239703D01*
Y238605D02*
Y239703D01*
Y238605D02*
X122401Y235000D01*
X122500D01*
X153703Y47784D02*
X153919Y48000D01*
X153703Y46605D02*
Y47784D01*
X150599Y43500D02*
X153703Y46605D01*
X147449Y43500D02*
X150599D01*
X122081Y48000D02*
X122297Y47784D01*
Y46605D02*
Y47784D01*
Y46605D02*
X125401Y43500D01*
X128551D01*
X135906Y100020D02*
X138016Y102130D01*
X139098D01*
X128406Y105870D02*
X138406D01*
X127906Y83425D02*
Y105370D01*
Y83425D02*
X128961Y82370D01*
X135906D02*
X135961Y82425D01*
X146406D01*
X91000Y168055D02*
X91277Y167778D01*
X93555Y165500D01*
X126000D01*
X91000Y158945D02*
Y167500D01*
D17*
X354321Y151814D02*
X363786D01*
X363486Y151068D02*
X363500Y151054D01*
D19*
X285653Y188500D02*
D03*
X292347D02*
D03*
X260846Y284500D02*
D03*
X254153D02*
D03*
X324153Y148500D02*
D03*
X330847D02*
D03*
X300946Y177700D02*
D03*
X294253D02*
D03*
X300946Y168700D02*
D03*
X294253D02*
D03*
X289347Y119500D02*
D03*
X282653D02*
D03*
X301847Y236500D02*
D03*
X295153D02*
D03*
D20*
X275634Y188260D02*
D03*
X267366D02*
D03*
Y195740D02*
D03*
X275634D02*
D03*
X306177Y261079D02*
D03*
Y245921D02*
D03*
X290823D02*
D03*
Y261079D02*
D03*
X219677Y56921D02*
D03*
Y72079D02*
D03*
X204323D02*
D03*
Y56921D02*
D03*
D21*
X196669Y104500D02*
D03*
X205331Y108240D02*
D03*
Y100760D02*
D03*
D22*
X165000Y82055D02*
D03*
Y88945D02*
D03*
X236000Y211752D02*
D03*
Y218248D02*
D03*
X177000Y45945D02*
D03*
Y39055D02*
D03*
X216500Y101252D02*
D03*
Y107748D02*
D03*
X194500Y29055D02*
D03*
Y35945D02*
D03*
X106500Y42555D02*
D03*
Y49445D02*
D03*
X146406Y89315D02*
D03*
Y82425D02*
D03*
X91000Y123445D02*
D03*
Y116555D02*
D03*
X90906Y103815D02*
D03*
Y96925D02*
D03*
X167500Y39055D02*
D03*
Y45945D02*
D03*
Y230055D02*
D03*
Y236945D02*
D03*
X180500Y230055D02*
D03*
Y236945D02*
D03*
X170000Y177055D02*
D03*
Y183945D02*
D03*
X209000Y204752D02*
D03*
Y211248D02*
D03*
X250000Y100252D02*
D03*
Y106748D02*
D03*
X258000Y100252D02*
D03*
Y106748D02*
D03*
X242000Y100252D02*
D03*
Y106748D02*
D03*
X252500Y211752D02*
D03*
Y218248D02*
D03*
X91000Y168055D02*
D03*
Y174945D02*
D03*
X95000Y226945D02*
D03*
Y220055D02*
D03*
X91000Y150000D02*
D03*
Y156890D02*
D03*
X174000Y219945D02*
D03*
Y213055D02*
D03*
D23*
X135850Y82370D02*
D03*
X128961D02*
D03*
X275752Y206000D02*
D03*
X282248D02*
D03*
X308752Y140500D02*
D03*
X315248D02*
D03*
X185248Y104500D02*
D03*
X178752D02*
D03*
X235945Y284500D02*
D03*
X229055D02*
D03*
X308752Y148500D02*
D03*
X315248D02*
D03*
X308752Y132500D02*
D03*
X315248D02*
D03*
X315445Y156500D02*
D03*
X308555D02*
D03*
X141945Y190500D02*
D03*
X135055D02*
D03*
X157945Y190500D02*
D03*
X151055D02*
D03*
D24*
X127256Y283500D02*
D03*
X121744D02*
D03*
D25*
X88071D02*
D03*
X96929D02*
D03*
D26*
X106500Y33347D02*
D03*
Y26654D02*
D03*
X252000Y63153D02*
D03*
Y69846D02*
D03*
X261500Y63307D02*
D03*
Y70000D02*
D03*
X363500Y159346D02*
D03*
Y152654D02*
D03*
X246000Y181653D02*
D03*
Y188347D02*
D03*
X254500Y181653D02*
D03*
Y188347D02*
D03*
X227500Y168347D02*
D03*
Y161653D02*
D03*
X226500Y126154D02*
D03*
Y132846D02*
D03*
X113500Y259298D02*
D03*
Y265347D02*
D03*
X149500Y265346D02*
D03*
Y258654D02*
D03*
X109000Y226847D02*
D03*
Y220153D02*
D03*
D27*
X92980Y79870D02*
D03*
Y74870D02*
D03*
Y69870D02*
D03*
Y64870D02*
D03*
X114831D02*
D03*
Y69870D02*
D03*
Y74870D02*
D03*
Y79870D02*
D03*
X90575Y204500D02*
D03*
Y199500D02*
D03*
Y194500D02*
D03*
Y189500D02*
D03*
X112425D02*
D03*
Y194500D02*
D03*
Y199500D02*
D03*
Y204500D02*
D03*
D28*
X113500Y101378D02*
D03*
Y125000D02*
D03*
X113500Y172311D02*
D03*
Y148689D02*
D03*
D29*
X147449Y28500D02*
D03*
Y33500D02*
D03*
Y38500D02*
D03*
Y43500D02*
D03*
X128551Y28500D02*
D03*
Y33500D02*
D03*
Y38500D02*
D03*
Y43500D02*
D03*
X125551Y235000D02*
D03*
Y230000D02*
D03*
Y225000D02*
D03*
Y220000D02*
D03*
X144449Y235000D02*
D03*
Y230000D02*
D03*
Y225000D02*
D03*
Y220000D02*
D03*
D30*
X139098Y109610D02*
D03*
Y105870D02*
D03*
Y102130D02*
D03*
X150713D02*
D03*
Y109610D02*
D03*
X137693Y169240D02*
D03*
Y165500D02*
D03*
Y161760D02*
D03*
X149307D02*
D03*
Y169240D02*
D03*
D31*
X215500Y125496D02*
D03*
Y137504D02*
D03*
D32*
X259000Y235846D02*
D03*
X254000D02*
D03*
X249000D02*
D03*
X244000D02*
D03*
X239000D02*
D03*
X234000D02*
D03*
X229000D02*
D03*
X224000D02*
D03*
Y272500D02*
D03*
X229000D02*
D03*
X234000D02*
D03*
X239000D02*
D03*
X244000D02*
D03*
X249000D02*
D03*
X254000D02*
D03*
X259000D02*
D03*
D33*
X254969Y78988D02*
D03*
X253000D02*
D03*
X251031D02*
D03*
Y85012D02*
D03*
X253000D02*
D03*
X254969D02*
D03*
D34*
X249988Y81016D02*
D03*
Y82984D02*
D03*
X256012D02*
D03*
Y81016D02*
D03*
D35*
X354321Y143940D02*
D03*
Y145909D02*
D03*
Y147877D02*
D03*
Y149846D02*
D03*
Y151814D02*
D03*
Y153783D02*
D03*
X344754Y143940D02*
D03*
Y145909D02*
D03*
Y147877D02*
D03*
Y149846D02*
D03*
Y151814D02*
D03*
Y153783D02*
D03*
X354321Y155751D02*
D03*
X344754D02*
D03*
D36*
X349538Y142110D02*
D03*
Y157582D02*
D03*
D37*
X137941Y265240D02*
D03*
Y257760D02*
D03*
X128059D02*
D03*
Y261500D02*
D03*
Y265240D02*
D03*
D38*
X282744Y164264D02*
D03*
Y162295D02*
D03*
Y160327D02*
D03*
Y158358D02*
D03*
Y156390D02*
D03*
Y154421D02*
D03*
Y152453D02*
D03*
Y150484D02*
D03*
Y148516D02*
D03*
Y146547D02*
D03*
Y144579D02*
D03*
Y142610D02*
D03*
Y140642D02*
D03*
Y138673D02*
D03*
Y136705D02*
D03*
Y134736D02*
D03*
X238256D02*
D03*
Y136705D02*
D03*
Y138673D02*
D03*
Y140642D02*
D03*
Y142610D02*
D03*
Y144579D02*
D03*
Y146547D02*
D03*
Y148516D02*
D03*
Y150484D02*
D03*
Y152453D02*
D03*
Y154421D02*
D03*
Y156390D02*
D03*
Y158358D02*
D03*
Y160327D02*
D03*
Y162295D02*
D03*
Y164264D02*
D03*
D39*
X275264Y127256D02*
D03*
X273295D02*
D03*
X271327D02*
D03*
X269358D02*
D03*
X267390D02*
D03*
X265421D02*
D03*
X263453D02*
D03*
X261484D02*
D03*
X259516D02*
D03*
X257547D02*
D03*
X255579D02*
D03*
X253610D02*
D03*
X251642D02*
D03*
X249673D02*
D03*
X247705D02*
D03*
X245736D02*
D03*
Y171744D02*
D03*
X247705D02*
D03*
X249673D02*
D03*
X251642D02*
D03*
X253610D02*
D03*
X255579D02*
D03*
X257547D02*
D03*
X259516D02*
D03*
X261484D02*
D03*
X263453D02*
D03*
X265421D02*
D03*
X267390D02*
D03*
X269358D02*
D03*
X271327D02*
D03*
X273295D02*
D03*
X275264D02*
D03*
D40*
X292500Y70256D02*
D03*
Y64744D02*
D03*
D41*
X292500Y49429D02*
D03*
Y40571D02*
D03*
D42*
X86053Y265500D02*
D03*
X98947D02*
D03*
D43*
X163000Y277307D02*
D03*
Y265693D02*
D03*
D75*
X149207Y265293D02*
X149474Y265026D01*
X138000Y265293D02*
X149207D01*
X137994D02*
X138000D01*
X137941Y265240D02*
X137994Y265293D01*
X149500Y265346D02*
X160346D01*
X73500Y265500D02*
X86000D01*
X113606Y265240D02*
X127600D01*
X98947Y265500D02*
X113000D01*
X57000Y249000D02*
X73500Y265500D01*
D76*
X285500Y188500D02*
Y192000D01*
X158945Y173945D02*
Y190500D01*
X158000Y192000D02*
Y193200D01*
X153700Y197500D02*
X158000Y193200D01*
X145000Y197500D02*
X153700D01*
X127760Y265240D02*
X128000Y265000D01*
X113000Y265500D02*
X113500Y265000D01*
X185248Y105752D02*
Y130748D01*
Y105752D02*
X185500Y105500D01*
X185248Y130748D02*
X191000Y136500D01*
X185248Y104500D02*
X197000D01*
X166140Y262553D02*
X202000Y226693D01*
Y186500D02*
Y226693D01*
Y186500D02*
X211000Y177500D01*
Y169500D02*
Y177500D01*
X130837Y149000D02*
X144500Y162663D01*
X113811Y149000D02*
X130837D01*
X113500Y148689D02*
X113811Y149000D01*
X163689Y265693D02*
X176693D01*
X166140Y262553D02*
Y263242D01*
X163689Y265693D02*
X166140Y263242D01*
X163000Y265693D02*
X163689D01*
X191000Y136500D02*
X191500D01*
X197000Y104500D02*
X197000Y104500D01*
X172500Y137000D02*
X178752Y130748D01*
X178500Y105500D02*
X178752Y105752D01*
Y130748D01*
X113500Y137000D02*
X171500D01*
X172315D02*
X172500D01*
X172000D02*
X172315D01*
X284000Y207500D02*
X314500Y238000D01*
Y286500D01*
X309500Y291500D02*
X314500Y286500D01*
X258000Y291500D02*
X309500D01*
X254000Y287500D02*
X258000Y291500D01*
X165000Y88945D02*
Y94000D01*
X285500Y188500D02*
X285653D01*
X276000D02*
X285500D01*
X282248Y195252D02*
X285500Y192000D01*
X282248Y195252D02*
Y206000D01*
X254000Y284654D02*
Y287500D01*
Y284654D02*
X254153Y284500D01*
X176693Y265693D02*
X201000Y290000D01*
X235945Y284500D02*
X253500D01*
X236000Y285000D02*
Y288000D01*
X234000Y290000D02*
X236000Y288000D01*
X201000Y290000D02*
X234000D01*
X157000Y102000D02*
X165000Y94000D01*
X134500Y58000D02*
X152500Y76000D01*
X134500Y30000D02*
Y58000D01*
X133182Y28682D02*
X134500Y30000D01*
X128733Y28682D02*
X133182D01*
X160346Y265346D02*
X160500Y265500D01*
X146406Y89315D02*
Y108406D01*
X147500Y89500D02*
X150500D01*
X152500Y87500D01*
Y76000D02*
Y87500D01*
X128551Y28500D02*
X128733Y28682D01*
X147500Y109500D02*
X149500D01*
X146406Y108406D02*
X147500Y109500D01*
X119500Y125000D02*
X139500D01*
X150713Y113787D01*
Y109610D02*
Y113787D01*
X150500Y169500D02*
X154500D01*
X158945Y173945D01*
X145500Y169000D02*
X147500D01*
X144500Y168000D02*
X145500Y169000D01*
X144500Y162663D02*
Y168000D01*
X125551Y216949D02*
X145000Y197500D01*
X125551Y216949D02*
Y220000D01*
X96929Y283500D02*
X97185Y283756D01*
X113500Y265347D02*
X113606Y265240D01*
D77*
X362970Y158970D02*
Y160030D01*
X354321Y143980D02*
X354361Y143940D01*
X360400Y141700D02*
Y142200D01*
X179055Y236945D02*
X179500Y236500D01*
X167500Y236945D02*
X179055D01*
X167500D02*
Y237500D01*
X163000Y242000D02*
X167500Y237500D01*
X163000Y242000D02*
Y264500D01*
X316300Y156700D02*
X316500Y156500D01*
X321000D01*
Y151358D02*
X322400Y149958D01*
Y149900D02*
Y149958D01*
X321000Y151358D02*
Y156500D01*
X332500Y149784D02*
X332809Y149475D01*
X340025D01*
X341623Y147877D01*
X344754D01*
X358660Y143940D02*
X360400Y142200D01*
X354361Y143940D02*
X358660D01*
X354321D02*
X354361D01*
X354321Y145909D02*
X354459Y145771D01*
X354321Y143980D02*
Y145909D01*
X361162Y157162D02*
X362970Y158970D01*
X361153Y157162D02*
X361162D01*
X360333Y156342D02*
X361153Y157162D01*
X360333Y156333D02*
Y156342D01*
X357783Y153783D02*
X360333Y156333D01*
X354321Y153783D02*
X357783D01*
D78*
X287500Y236500D02*
X295500D01*
X254346Y188347D02*
X254500Y188500D01*
X251000Y78957D02*
X251031Y78988D01*
X251000Y76000D02*
Y78957D01*
X250000Y75000D02*
X251000Y76000D01*
X253000Y78988D02*
X253000Y78988D01*
X253000Y76900D02*
Y78988D01*
X252132Y76032D02*
X253000Y76900D01*
X251031Y76032D02*
X252132D01*
X339100Y157600D02*
X340949Y155751D01*
X344754D01*
X231900Y165000D02*
X234245D01*
X234597Y164648D01*
Y163103D02*
Y164648D01*
Y163103D02*
X235400Y162300D01*
X170555Y176500D02*
X171055Y177000D01*
X233500Y169000D02*
X236500Y166000D01*
Y164277D02*
Y166000D01*
X236486Y164264D02*
X236500Y164277D01*
X236125Y162300D02*
X236130Y162295D01*
X235400Y162300D02*
X236125D01*
X236130Y162295D02*
X238256D01*
X236486Y164264D02*
X238256D01*
X294092Y168708D02*
X294100Y168700D01*
X224333Y158836D02*
Y182833D01*
X221500Y158000D02*
Y176500D01*
Y158000D02*
X225079Y154421D01*
X224333Y158836D02*
X226779Y156390D01*
X219000Y157000D02*
Y188500D01*
X217600Y155900D02*
Y237600D01*
X216200Y154800D02*
Y242700D01*
X219000Y188500D02*
X236000Y205500D01*
X217600Y155900D02*
X223016Y150484D01*
X216200Y154800D02*
X222484Y148516D01*
X219000Y157000D02*
X223547Y152453D01*
X224333Y182833D02*
X252000Y210500D01*
X254500Y188500D02*
X254500Y188500D01*
X246000Y188347D02*
X254346D01*
X297225Y158225D02*
X299500Y160500D01*
X295625Y159625D02*
X298000Y162000D01*
X290018Y158225D02*
X297225D01*
X289885Y158358D02*
X290018Y158225D01*
X282744Y158358D02*
X289885D01*
X290598Y159625D02*
X295625D01*
X289896Y160327D02*
X290598Y159625D01*
X282744Y160327D02*
X289896D01*
X292705Y162295D02*
X293000Y162000D01*
X282744Y162295D02*
X292705D01*
X282744Y156390D02*
X307890D01*
X308000Y156500D01*
X347946Y155241D02*
Y157054D01*
X340736Y164264D02*
X347946Y157054D01*
X339936Y164264D02*
X340736D01*
X330764D02*
X339736D01*
X360462Y147701D02*
X360774Y147389D01*
X354734Y147701D02*
X360462D01*
X167555Y230000D02*
X174000D01*
X167500Y230055D02*
X167555Y230000D01*
X178832Y228091D02*
X180500Y229760D01*
X180500Y221500D02*
Y229500D01*
Y221500D02*
X194500Y207500D01*
X179000Y211500D02*
Y214650D01*
X175500Y218150D02*
X179000Y214650D01*
X175500Y218150D02*
Y219000D01*
X179000Y211500D02*
X197500Y193000D01*
X233500Y184500D02*
X240500Y177500D01*
X246480D01*
X249562Y174418D01*
Y171855D02*
Y174418D01*
Y171855D02*
X249673Y171744D01*
X233500Y179000D02*
X237000Y175500D01*
X246500D01*
X247593Y174407D01*
Y171855D02*
Y174407D01*
Y171855D02*
X247705Y171744D01*
X235500Y172000D02*
X245500D01*
X233500Y174000D02*
X235500Y172000D01*
X256662Y132500D02*
X259404Y129758D01*
X243000Y132500D02*
X256662D01*
X240000Y129500D02*
X243000Y132500D01*
X240000Y124500D02*
Y129500D01*
X259404Y127367D02*
Y129758D01*
Y127367D02*
X259516Y127256D01*
X228000Y103500D02*
Y112500D01*
X231000Y101500D02*
Y120000D01*
X220000Y90500D02*
X231000Y101500D01*
X213500Y89000D02*
X228000Y103500D01*
Y248000D02*
X241000D01*
X217600Y237600D02*
X228000Y248000D01*
X241000D02*
X259000Y266000D01*
X236000Y205500D02*
Y211500D01*
X252000Y210500D02*
X252500D01*
X167500Y230000D02*
X167500Y230000D01*
X144449Y230000D02*
X167500D01*
X147500Y220000D02*
X174000D01*
X173823Y204906D02*
Y212878D01*
X221000Y229500D02*
X223500Y232000D01*
X221000Y229000D02*
Y229500D01*
X213375Y155125D02*
Y220875D01*
X213500Y221000D01*
X216200Y242700D02*
X229000Y255500D01*
X225079Y154421D02*
X238256D01*
X209000Y188500D02*
Y203500D01*
X222000Y272000D02*
X223500D01*
X209000Y259000D02*
X222000Y272000D01*
X209000Y211248D02*
Y259000D01*
X221384Y147116D02*
X231743D01*
X213375Y155125D02*
X221384Y147116D01*
X231743D02*
X232312Y146547D01*
X238256D01*
X320000Y144000D02*
X344000D01*
X315500Y148500D02*
X320000Y144000D01*
X342700Y149800D02*
X343300D01*
X340500Y152000D02*
X342700Y149800D01*
X335500Y152000D02*
X340500D01*
X343300Y149800D02*
X343500Y150000D01*
X327000Y160500D02*
X335500Y152000D01*
X299500Y160500D02*
X327000D01*
X337200Y153800D02*
X343600D01*
X329000Y162000D02*
X337200Y153800D01*
X298000Y162000D02*
X329000D01*
X315248Y148500D02*
X315500D01*
X171055Y177000D02*
X206000D01*
X170000Y177055D02*
X170555Y176500D01*
X148000Y225000D02*
X148000Y225000D01*
X175445D01*
X178536Y228091D01*
X178832D01*
X180500Y229760D02*
Y230055D01*
X176000Y37500D02*
X177000D01*
X172000Y33500D02*
X176000Y37500D01*
X147449Y33500D02*
X172000D01*
X147500Y220000D02*
X147500Y220000D01*
X144449Y220000D02*
X147500D01*
X330000Y111000D02*
X365000D01*
X315500Y125500D02*
X330000Y111000D01*
X282791Y146500D02*
X294000D01*
X294047Y152453D02*
X297000Y149500D01*
X282744Y152453D02*
X294047D01*
X365000Y101000D02*
X365500Y100500D01*
X324500Y101000D02*
X365000D01*
X292500Y133000D02*
X324500Y101000D01*
X204579Y72079D02*
X219079D01*
X219500Y72500D01*
X219000Y72000D02*
X219079Y72079D01*
X220000Y72500D02*
Y90500D01*
X165000Y89000D02*
X213500D01*
X263500Y166000D02*
Y169500D01*
X277008Y148508D02*
X280992D01*
X277000Y148500D02*
X277008Y148508D01*
X231000Y144500D02*
X236000D01*
X223547Y152453D02*
X238256D01*
X223016Y150484D02*
X238256D01*
X222484Y148516D02*
X238256D01*
X229000Y255500D02*
Y269500D01*
X259000Y266000D02*
Y270500D01*
X253000Y90500D02*
X258000Y95500D01*
X253000Y85012D02*
Y90500D01*
X258000Y95500D02*
Y99500D01*
X304000Y286000D02*
X304500D01*
X276500Y222500D02*
Y258500D01*
X304000Y286000D01*
X294000D02*
X294500D01*
X271500Y263500D02*
X294000Y286000D01*
X271500Y220000D02*
Y263500D01*
X281000Y212000D02*
X301500Y232500D01*
X273500Y212000D02*
X281000D01*
X263453Y201953D02*
X273500Y212000D01*
X301500Y232500D02*
Y235500D01*
X263453Y171744D02*
Y201953D01*
X290902Y246000D02*
X306000D01*
Y240358D02*
Y245500D01*
X302142Y236500D02*
X306000Y240358D01*
X301847Y236500D02*
X302142D01*
X226779Y156390D02*
X238256D01*
X236000Y218500D02*
X243500D01*
X254000Y229000D01*
Y235846D01*
X259000Y229500D02*
Y233000D01*
X252500Y223000D02*
X259000Y229500D01*
X252500Y218248D02*
Y223000D01*
X259500Y173500D02*
Y208000D01*
X271500Y220000D01*
X261484Y207484D02*
X276500Y222500D01*
X261484Y171744D02*
Y207484D01*
X293500Y115000D02*
Y115347D01*
X289347Y119500D02*
X293500Y115347D01*
X261500Y12500D02*
X262500Y13500D01*
Y45520D02*
X271052Y54072D01*
X262500Y13500D02*
Y45520D01*
X272451Y12549D02*
X272500Y12500D01*
X282744Y142610D02*
X297610D01*
X282744Y140642D02*
X307858D01*
X282744Y138673D02*
X297827D01*
X296795Y136705D02*
X305000Y128500D01*
X282744Y136705D02*
X296795D01*
X282855Y154310D02*
X296690D01*
X282744Y146547D02*
X282791Y146500D01*
X299641Y91000D02*
X302000D01*
X271327Y119314D02*
X299641Y91000D01*
X271327Y119314D02*
Y127256D01*
X333500Y91000D02*
X365500D01*
X357500Y128500D02*
X365500Y120500D01*
X305000Y128500D02*
X357500D01*
X296690Y154310D02*
X297000Y154000D01*
X315248Y140500D02*
X332500D01*
X325500Y167000D02*
X341143D01*
X349538Y158606D01*
X282744Y154421D02*
X282855Y154310D01*
X284713Y134736D02*
X348449Y71000D01*
X282744Y134736D02*
X284713D01*
X348449Y71000D02*
X365000D01*
X365500Y70500D01*
X339000Y147000D02*
X340091Y145909D01*
X344754D01*
X315248Y140500D02*
X315248Y140500D01*
X347946Y155241D02*
X351386Y151800D01*
X353100D01*
X347463Y147877D02*
X351386Y151800D01*
X349500Y139500D02*
Y141000D01*
X342500Y132500D02*
X349500Y139500D01*
X315248Y132500D02*
X342500D01*
X303500Y148500D02*
X308000D01*
X297610Y142610D02*
X303500Y148500D01*
X304000Y132500D02*
X309000D01*
X297827Y138673D02*
X304000Y132500D01*
X307858Y140642D02*
X308000Y140500D01*
X272451Y12549D02*
Y110528D01*
X269358Y113622D02*
X272451Y110528D01*
X269358Y113622D02*
Y127256D01*
X271052Y54072D02*
Y109949D01*
X267500Y113500D02*
X271052Y109949D01*
X265421Y113079D02*
X269652Y108849D01*
Y54651D02*
Y108849D01*
X238000Y23000D02*
X269652Y54651D01*
X268251Y55251D02*
Y107748D01*
X263500Y112500D02*
X268251Y107748D01*
X263500Y112500D02*
Y125500D01*
X267500Y113500D02*
Y125000D01*
X267390Y125390D02*
X267500Y125500D01*
X143020Y23000D02*
X238000D01*
X140100Y37600D02*
X141000Y38500D01*
X143500D01*
X143500Y38500D01*
X140100Y25920D02*
Y37600D01*
Y25920D02*
X143020Y23000D01*
X265421Y113079D02*
Y127256D01*
X237500Y24500D02*
X268251Y55251D01*
X143500Y24500D02*
X237500D01*
X141500Y26500D02*
X143500Y24500D01*
X141500Y26500D02*
Y31000D01*
X144000Y33500D01*
X147449D01*
X167000Y38500D02*
X167000Y38500D01*
X147449Y38500D02*
X167000D01*
X239000Y28500D02*
X266500Y56000D01*
X147449Y28500D02*
X239000D01*
X266500Y56000D02*
Y107000D01*
X261484Y112016D02*
X266500Y107000D01*
X261484Y112016D02*
Y127256D01*
X244500Y131000D02*
X252500D01*
X243500Y130000D02*
X244500Y131000D01*
X243500Y122750D02*
Y130000D01*
X255500Y120500D02*
X255539Y120539D01*
Y125461D01*
X255500Y125500D02*
X255539Y125461D01*
X258000Y108000D02*
Y113000D01*
X251642Y119358D02*
X258000Y113000D01*
X251642Y119358D02*
Y127256D01*
X247705Y119205D02*
Y127256D01*
X242000Y113500D02*
X247705Y119205D01*
X242000Y109000D02*
Y113500D01*
X249673Y107075D02*
Y125422D01*
X238000Y85500D02*
Y85641D01*
X249984Y81016D02*
X250000Y81000D01*
X252500Y131000D02*
X253499Y130001D01*
X204500Y51000D02*
Y56744D01*
X204323Y56921D02*
X204500Y56744D01*
Y57000D02*
X204579Y56921D01*
X219500Y50500D02*
Y56744D01*
X219677Y56921D01*
X204500Y72000D02*
X204579Y72079D01*
X242000Y93500D02*
Y100000D01*
X238000Y85641D02*
X242625Y81016D01*
X238000Y85641D02*
Y117250D01*
X250000Y96000D02*
Y99000D01*
Y96000D02*
X251031Y94968D01*
Y85012D02*
Y94968D01*
X246000Y85269D02*
Y113000D01*
X261500Y71000D02*
Y74500D01*
X258500Y77500D02*
X261500Y74500D01*
X260127Y85627D02*
X260500Y86000D01*
X258753Y85627D02*
X260127D01*
X256110Y82984D02*
X258753Y85627D01*
X256012Y82984D02*
X256110D01*
X252500Y70500D02*
X252500Y70500D01*
Y74000D01*
X251976Y61130D02*
X252000Y61154D01*
X256000Y88472D02*
Y89000D01*
X254969Y87441D02*
X256000Y88472D01*
X254969Y85012D02*
Y87441D01*
X246000Y85269D02*
X248285Y82984D01*
X249988D01*
X242625Y81016D02*
X249984D01*
X238000Y117250D02*
X243500Y122750D01*
X253499Y127367D02*
Y130001D01*
Y127367D02*
X253610Y127256D01*
X267390Y173578D02*
Y187890D01*
X290823Y245921D02*
X290902Y246000D01*
X291000Y261000D02*
X291079Y261079D01*
X306177D01*
X253532Y171666D02*
X253610Y171744D01*
X238256Y136705D02*
X238334Y136783D01*
X244643Y141383D02*
X245016Y141756D01*
X275186Y127334D02*
X275264Y127256D01*
X289347Y119500D02*
X289347Y119500D01*
X363500Y159346D02*
Y166000D01*
X363500Y166000D01*
X216500Y138000D02*
X217083Y137417D01*
X352257Y149669D02*
X354145D01*
X354321Y149846D01*
X354557Y147877D02*
X354734Y147701D01*
X351496Y146437D02*
X351847Y146085D01*
X349341Y158409D02*
X349538Y158606D01*
X351847Y146085D02*
X352983D01*
X351496Y148908D02*
X352257Y149669D01*
X344754Y147877D02*
X347463D01*
X351496Y146437D02*
Y148908D01*
X254969Y76468D02*
Y78988D01*
X252500Y74000D02*
X254969Y76468D01*
X247000Y75000D02*
X250000D01*
X258500Y77500D02*
Y80000D01*
X257601Y80899D02*
X258500Y80000D01*
X256128Y80899D02*
X257601D01*
X256012Y81016D02*
X256128Y80899D01*
D79*
X92900Y75000D02*
X92980D01*
X57000D02*
X92900D01*
X92980Y73268D02*
Y74870D01*
Y75000D01*
X93000Y78000D01*
X113500Y74870D02*
Y99000D01*
Y67000D02*
Y74870D01*
X57000Y199000D02*
X89000D01*
X113500Y189500D02*
Y202000D01*
X90575Y199500D02*
Y201500D01*
Y197953D02*
Y199500D01*
X92980Y73268D02*
X93000Y73248D01*
X113500Y175000D02*
Y189000D01*
Y137000D02*
Y146000D01*
Y127500D02*
Y137000D01*
X91000D02*
X113500D01*
X69812D02*
X91000D01*
X57812Y125000D02*
X69812Y137000D01*
D80*
X57000Y125000D02*
X57812D01*
D81*
X172315Y137000D02*
D03*
X192000D02*
D03*
D82*
X57000Y125000D02*
D03*
Y100000D02*
D03*
Y75000D02*
D03*
Y50000D02*
D03*
Y249000D02*
D03*
Y224000D02*
D03*
Y199000D02*
D03*
Y174000D02*
D03*
D83*
X262500Y12500D02*
D03*
X294500Y286500D02*
D03*
X304500D02*
D03*
X314500D02*
D03*
X365500Y121000D02*
D03*
Y111000D02*
D03*
Y101000D02*
D03*
Y91000D02*
D03*
Y71000D02*
D03*
Y81000D02*
D03*
D84*
X272500Y12500D02*
D03*
X324500Y286500D02*
D03*
D85*
X11811Y11811D02*
D03*
X12000Y287500D02*
D03*
X366142Y11811D02*
D03*
X366000Y287500D02*
D03*
D86*
X365500Y61000D02*
D03*
D87*
X231900Y165000D02*
D03*
X233000Y160500D02*
D03*
X233500Y169000D02*
D03*
X293000Y162000D02*
D03*
X360774Y147389D02*
D03*
X194500Y42500D02*
D03*
Y207500D02*
D03*
X197500Y193000D02*
D03*
X225500Y118500D02*
D03*
X228000Y112500D02*
D03*
X231000Y120000D02*
D03*
X240000Y124500D02*
D03*
X174000Y230000D02*
D03*
X233500Y184500D02*
D03*
Y179000D02*
D03*
Y174000D02*
D03*
X221000Y229000D02*
D03*
X213500Y221500D02*
D03*
X221500Y176500D02*
D03*
X209000Y188500D02*
D03*
X211000Y169500D02*
D03*
X321000Y156500D02*
D03*
X229000Y227000D02*
D03*
X206000Y177000D02*
D03*
X292500Y93500D02*
D03*
X289000Y150000D02*
D03*
X315500Y125500D02*
D03*
X294000Y146500D02*
D03*
X292500Y133000D02*
D03*
Y32000D02*
D03*
X215500Y118500D02*
D03*
X277000Y148500D02*
D03*
X263500Y166000D02*
D03*
X231000Y144500D02*
D03*
X227500Y174500D02*
D03*
X205500Y113000D02*
D03*
X287500Y236500D02*
D03*
X306000Y267500D02*
D03*
X293500Y115000D02*
D03*
X297000Y149500D02*
D03*
X302000Y91000D02*
D03*
X333500D02*
D03*
X297000Y154000D02*
D03*
X339000Y157700D02*
D03*
X332500Y140500D02*
D03*
X325500Y167000D02*
D03*
X339000Y147000D02*
D03*
X297300Y188600D02*
D03*
X274500Y119500D02*
D03*
X261500Y56000D02*
D03*
X252000D02*
D03*
X219500Y50500D02*
D03*
X204500D02*
D03*
X260500Y86000D02*
D03*
X256000Y89000D02*
D03*
X242000Y93500D02*
D03*
X246000Y113000D02*
D03*
X99000Y56000D02*
D03*
X113500Y50000D02*
D03*
X268500Y284500D02*
D03*
X255016Y165756D02*
D03*
X245016Y141756D02*
D03*
X254500Y194000D02*
D03*
X308600Y168700D02*
D03*
Y177700D02*
D03*
X267500Y201000D02*
D03*
X153000Y235000D02*
D03*
X128500Y190500D02*
D03*
X163000Y286500D02*
D03*
X149500Y251500D02*
D03*
X122500Y261500D02*
D03*
X174000Y204500D02*
D03*
X363500Y166000D02*
D03*
X113500Y250500D02*
D03*
X78500Y283500D02*
D03*
X255500Y120500D02*
D03*
X153500Y48500D02*
D03*
X360900Y141700D02*
D03*
X247000Y75000D02*
D03*
X118500Y240000D02*
D03*
X122000Y48500D02*
D03*
X126500Y158500D02*
D03*
X127906Y105870D02*
D03*
M02*
