G04*
G04 #@! TF.GenerationSoftware,Altium Limited,Altium Designer,19.0.14 (431)*
G04*
G04 Layer_Color=32768*
%FSLAX25Y25*%
%MOIN*%
G70*
G01*
G75*
%ADD10C,0.00787*%
%ADD13C,0.00394*%
%ADD91C,0.00197*%
D10*
X83858Y269437D02*
X101142D01*
Y261563D02*
Y269437D01*
X83858Y261563D02*
X101142D01*
X83858D02*
Y269437D01*
D13*
X289000Y186728D02*
Y190272D01*
X287228Y188500D02*
X290772D01*
X201000Y102532D02*
Y106468D01*
X199031Y104500D02*
X202969D01*
X163228Y85500D02*
X166772D01*
X165000Y83728D02*
Y87272D01*
X132406Y80598D02*
Y84142D01*
X130634Y82370D02*
X134177D01*
X234228Y215000D02*
X237772D01*
X236000Y213228D02*
Y216772D01*
X277228Y206000D02*
X280772D01*
X279000Y204228D02*
Y207772D01*
X310228Y140500D02*
X313772D01*
X312000Y138728D02*
Y142272D01*
X175228Y42500D02*
X178772D01*
X177000Y40728D02*
Y44272D01*
X124500Y281630D02*
Y285370D01*
X122630Y283500D02*
X126370D01*
X92500Y281532D02*
Y285469D01*
X90531Y283500D02*
X94468D01*
X214728Y104500D02*
X218272D01*
X216500Y102728D02*
Y106272D01*
X180228Y104500D02*
X183772D01*
X182000Y102728D02*
Y106272D01*
X192728Y32500D02*
X196272D01*
X194500Y30728D02*
Y34272D01*
X104728Y46000D02*
X108272D01*
X106500Y44228D02*
Y47772D01*
X144634Y85870D02*
X148177D01*
X146406Y84098D02*
Y87642D01*
X104728Y30000D02*
X108272D01*
X106500Y28228D02*
Y31772D01*
X89228Y120000D02*
X92772D01*
X91000Y118228D02*
Y121772D01*
X89134Y100370D02*
X92677D01*
X90906Y98598D02*
Y102142D01*
X113500Y111220D02*
Y115157D01*
X111531Y113189D02*
X115468D01*
X167500Y40728D02*
Y44272D01*
X165728Y42500D02*
X169272D01*
X136031Y36000D02*
X139969D01*
X138000Y34032D02*
Y37969D01*
X142937Y105870D02*
X146874D01*
X144906Y103902D02*
Y107839D01*
X213531Y131500D02*
X217469D01*
X215500Y129532D02*
Y133468D01*
X141532Y165500D02*
X145468D01*
X143500Y163531D02*
Y167469D01*
X167500Y231728D02*
Y235272D01*
X165728Y233500D02*
X169272D01*
X180500Y231728D02*
Y235272D01*
X178728Y233500D02*
X182272D01*
X170000Y178728D02*
Y182272D01*
X168228Y180500D02*
X171772D01*
X135000Y225532D02*
Y229468D01*
X133031Y227500D02*
X136969D01*
X258531Y149500D02*
X262469D01*
X260500Y147531D02*
Y151468D01*
X232500Y282728D02*
Y286272D01*
X230728Y284500D02*
X234272D01*
X207228Y208000D02*
X210772D01*
X209000Y206228D02*
Y209772D01*
X248228Y103500D02*
X251772D01*
X250000Y101728D02*
Y105272D01*
X290630Y67500D02*
X294370D01*
X292500Y65630D02*
Y69370D01*
X312000Y146728D02*
Y150272D01*
X310228Y148500D02*
X313772D01*
X312000Y130728D02*
Y134272D01*
X310228Y132500D02*
X313772D01*
X312000Y154728D02*
Y158272D01*
X310228Y156500D02*
X313772D01*
X256228Y103500D02*
X259772D01*
X258000Y101728D02*
Y105272D01*
X240228Y103500D02*
X243772D01*
X242000Y101728D02*
Y105272D01*
X250728Y215000D02*
X254272D01*
X252500Y213228D02*
Y216772D01*
X292500Y43031D02*
Y46968D01*
X290531Y45000D02*
X294468D01*
X90531Y265500D02*
X94468D01*
X92500Y263531D02*
Y267469D01*
X257500Y282728D02*
Y286272D01*
X255728Y284500D02*
X259272D01*
X250228Y66500D02*
X253772D01*
X252000Y64728D02*
Y68272D01*
X259728Y66654D02*
X263272D01*
X261500Y64882D02*
Y68425D01*
X361728Y156000D02*
X365272D01*
X363500Y154228D02*
Y157772D01*
X327500Y146728D02*
Y150272D01*
X325728Y148500D02*
X329272D01*
X246000Y183228D02*
Y186772D01*
X244228Y185000D02*
X247772D01*
X254500Y183228D02*
Y186772D01*
X252728Y185000D02*
X256272D01*
X163000Y269531D02*
Y273468D01*
X161031Y271500D02*
X164969D01*
X297600Y175928D02*
Y179472D01*
X295828Y177700D02*
X299372D01*
X225728Y165000D02*
X229272D01*
X227500Y163228D02*
Y166772D01*
X224728Y129500D02*
X228272D01*
X226500Y127728D02*
Y131272D01*
X297600Y166928D02*
Y170472D01*
X295828Y168700D02*
X299372D01*
X286000Y117728D02*
Y121272D01*
X284228Y119500D02*
X287772D01*
X296728Y236500D02*
X300272D01*
X298500Y234728D02*
Y238272D01*
X111728Y262000D02*
X115272D01*
X113500Y260228D02*
Y263772D01*
X149500Y260228D02*
Y263772D01*
X147728Y262000D02*
X151272D01*
X138500Y188728D02*
Y192272D01*
X136728Y190500D02*
X140272D01*
X89228Y171500D02*
X92772D01*
X91000Y169728D02*
Y173272D01*
X113500Y158531D02*
Y162469D01*
X111531Y160500D02*
X115469D01*
X107228Y223500D02*
X110772D01*
X109000Y221728D02*
Y225272D01*
X93228Y223500D02*
X96772D01*
X95000Y221728D02*
Y225272D01*
X154500Y188728D02*
Y192272D01*
X152728Y190500D02*
X156272D01*
X89228Y153445D02*
X92772D01*
X91000Y151673D02*
Y155217D01*
X172228Y216500D02*
X175772D01*
X174000Y214728D02*
Y218272D01*
D91*
X281323Y192634D02*
X296677D01*
X281323Y184366D02*
X296677D01*
X281323D02*
Y192634D01*
X296677Y184366D02*
Y192634D01*
X193520Y110996D02*
X208480D01*
X193520Y98004D02*
X208480D01*
X193520D02*
Y110996D01*
X208480Y98004D02*
Y110996D01*
X161063Y77823D02*
Y93177D01*
X168937Y77823D02*
Y93177D01*
X161063Y77823D02*
X168937D01*
X161063Y93177D02*
X168937D01*
X124728Y78433D02*
X140083D01*
X124728Y86307D02*
X140083D01*
Y78433D02*
Y86307D01*
X124728Y78433D02*
Y86307D01*
X232063Y207520D02*
Y222480D01*
X239937Y207520D02*
Y222480D01*
X232063Y207520D02*
X239937D01*
X232063Y222480D02*
X239937D01*
X271520Y202063D02*
Y209937D01*
X286480Y202063D02*
Y209937D01*
X271520D02*
X286480D01*
X271520Y202063D02*
X286480D01*
X304520Y136563D02*
Y144437D01*
X319480Y136563D02*
Y144437D01*
X304520D02*
X319480D01*
X304520Y136563D02*
X319480D01*
X180937Y34823D02*
Y50177D01*
X173063Y34823D02*
Y50177D01*
X180937D01*
X173063Y34823D02*
X180937D01*
X118004Y279366D02*
X130996D01*
X118004Y287634D02*
X130996D01*
Y279366D02*
Y287634D01*
X118004Y279366D02*
Y287634D01*
X82756Y288421D02*
X102244D01*
X82756Y278579D02*
X102244D01*
X82756D02*
Y288421D01*
X102244Y278579D02*
Y288421D01*
X212563Y97020D02*
Y111980D01*
X220437Y97020D02*
Y111980D01*
X212563Y97020D02*
X220437D01*
X212563Y111980D02*
X220437D01*
X189480Y100563D02*
Y108437D01*
X174520Y100563D02*
Y108437D01*
Y100563D02*
X189480D01*
X174520Y108437D02*
X189480D01*
X190563Y24823D02*
Y40177D01*
X198437Y24823D02*
Y40177D01*
X190563Y24823D02*
X198437D01*
X190563Y40177D02*
X198437D01*
X102563Y38323D02*
Y53677D01*
X110437Y38323D02*
Y53677D01*
X102563Y38323D02*
X110437D01*
X102563Y53677D02*
X110437D01*
X150343Y78193D02*
Y93547D01*
X142469Y78193D02*
Y93547D01*
X150343D01*
X142469Y78193D02*
X150343D01*
X110634Y22323D02*
Y37677D01*
X102366Y22323D02*
Y37677D01*
X110634D01*
X102366Y22323D02*
X110634D01*
X94937Y112323D02*
Y127677D01*
X87063Y112323D02*
Y127677D01*
X94937D01*
X87063Y112323D02*
X94937D01*
X94843Y92693D02*
Y108047D01*
X86969Y92693D02*
Y108047D01*
X94843D01*
X86969Y92693D02*
X94843D01*
X89043Y83394D02*
X118768D01*
Y61346D02*
Y83394D01*
X89043Y61346D02*
X118768D01*
X89043D02*
Y83394D01*
X105823Y97835D02*
X121177D01*
X105823Y128543D02*
X121177D01*
X105823Y97835D02*
Y128543D01*
X121177Y97835D02*
Y128543D01*
X163563Y34823D02*
X171437D01*
X163563Y50177D02*
X171437D01*
X163563Y34823D02*
Y50177D01*
X171437Y34823D02*
Y50177D01*
X152764Y24976D02*
Y47024D01*
X123236Y24976D02*
Y47024D01*
Y24976D02*
X152764D01*
X123236Y47024D02*
X152764D01*
X134866Y97799D02*
Y113941D01*
X154945Y97799D02*
Y113941D01*
X134866D02*
X154945D01*
X134866Y97799D02*
X154945D01*
X209594Y120476D02*
Y142524D01*
X221406Y120476D02*
Y142524D01*
X209594Y120476D02*
X221406D01*
X209594Y142524D02*
X221406D01*
X133461Y157429D02*
Y173571D01*
X153539Y157429D02*
Y173571D01*
X133461D02*
X153539D01*
X133461Y157429D02*
X153539D01*
X86638Y208024D02*
X116362D01*
Y185976D02*
Y208024D01*
X86638Y185976D02*
X116362D01*
X86638D02*
Y208024D01*
X163563Y225823D02*
X171437D01*
X163563Y241177D02*
X171437D01*
X163563Y225823D02*
Y241177D01*
X171437Y225823D02*
Y241177D01*
X176563Y225823D02*
X184437D01*
X176563Y241177D02*
X184437D01*
X176563Y225823D02*
Y241177D01*
X184437Y225823D02*
Y241177D01*
X166063Y172823D02*
X173937D01*
X166063Y188177D02*
X173937D01*
X166063Y172823D02*
Y188177D01*
X173937Y172823D02*
Y188177D01*
X120236Y238524D02*
X149764D01*
X120236Y216476D02*
X149764D01*
X120236D02*
Y238524D01*
X149764Y216476D02*
Y238524D01*
X220267Y230847D02*
X262733D01*
X220267Y277500D02*
X262733D01*
X220267Y230847D02*
Y277500D01*
X262733Y230847D02*
Y277500D01*
X248236Y77236D02*
Y86764D01*
Y77236D02*
X257764D01*
Y86764D01*
X248236D02*
X257764D01*
X124693Y255594D02*
Y267406D01*
Y255594D02*
X128551D01*
Y254492D02*
Y255594D01*
Y254492D02*
X137449D01*
Y255594D01*
X141307D01*
Y267406D01*
X137449D02*
X141307D01*
X137449D02*
Y268508D01*
X128551D02*
X137449D01*
X128551Y267406D02*
Y268508D01*
X124693Y267406D02*
X128551D01*
X234811Y123811D02*
Y175189D01*
X286189Y123811D02*
Y175189D01*
X234811Y123811D02*
X286189D01*
X234811Y175189D02*
X286189D01*
X224823Y280563D02*
X240177D01*
X224823Y288437D02*
X240177D01*
Y280563D02*
Y288437D01*
X224823Y280563D02*
Y288437D01*
X205063Y200520D02*
Y215480D01*
X212937Y200520D02*
Y215480D01*
X205063Y200520D02*
X212937D01*
X205063Y215480D02*
X212937D01*
X246063Y96020D02*
Y110980D01*
X253937Y96020D02*
Y110980D01*
X246063Y96020D02*
X253937D01*
X246063Y110980D02*
X253937D01*
X296634Y61004D02*
Y73996D01*
X288366Y61004D02*
Y73996D01*
X296634D01*
X288366Y61004D02*
X296634D01*
X304520Y152437D02*
X319480D01*
X304520Y144563D02*
X319480D01*
X304520D02*
Y152437D01*
X319480Y144563D02*
Y152437D01*
X304520Y136437D02*
X319480D01*
X304520Y128563D02*
X319480D01*
X304520D02*
Y136437D01*
X319480Y128563D02*
Y136437D01*
X304323Y152563D02*
X319677D01*
X304323Y160437D02*
X319677D01*
Y152563D02*
Y160437D01*
X304323Y152563D02*
Y160437D01*
X254063Y96020D02*
Y110980D01*
X261937Y96020D02*
Y110980D01*
X254063Y96020D02*
X261937D01*
X254063Y110980D02*
X261937D01*
X238063Y96020D02*
Y110980D01*
X245937Y96020D02*
Y110980D01*
X238063Y96020D02*
X245937D01*
X238063Y110980D02*
X245937D01*
X248563Y207520D02*
Y222480D01*
X256437Y207520D02*
Y222480D01*
X248563Y207520D02*
X256437D01*
X248563Y222480D02*
X256437D01*
X287579Y54744D02*
X297421D01*
X287579Y35256D02*
X297421D01*
Y54744D01*
X287579Y35256D02*
Y54744D01*
X249823Y280366D02*
X265177D01*
X249823Y288634D02*
X265177D01*
Y280366D02*
Y288634D01*
X249823Y280366D02*
Y288634D01*
X247866Y58823D02*
Y74177D01*
X256134Y58823D02*
Y74177D01*
X247866Y58823D02*
X256134D01*
X247866Y74177D02*
X256134D01*
X257366Y58976D02*
Y74331D01*
X265634Y58976D02*
Y74331D01*
X257366Y58976D02*
X265634D01*
X257366Y74331D02*
X265634D01*
X367634Y148323D02*
Y163677D01*
X359366Y148323D02*
Y163677D01*
X367634D01*
X359366Y148323D02*
X367634D01*
X319823Y152634D02*
X335177D01*
X319823Y144366D02*
X335177D01*
X319823D02*
Y152634D01*
X335177Y144366D02*
Y152634D01*
X241866Y177323D02*
X250134D01*
X241866Y192677D02*
X250134D01*
X241866Y177323D02*
Y192677D01*
X250134Y177323D02*
Y192677D01*
X250366Y177323D02*
X258634D01*
X250366Y192677D02*
X258634D01*
X250366Y177323D02*
Y192677D01*
X258634Y177323D02*
Y192677D01*
X157291Y282327D02*
X168709D01*
X157291Y260673D02*
X168709D01*
Y282327D01*
X157291Y260673D02*
Y282327D01*
X289923Y173566D02*
X305277D01*
X289923Y181834D02*
X305277D01*
Y173566D02*
Y181834D01*
X289923Y173566D02*
Y181834D01*
X231634Y157323D02*
Y172677D01*
X223366Y157323D02*
Y172677D01*
X231634D01*
X223366Y157323D02*
X231634D01*
X222366Y121823D02*
Y137177D01*
X230634Y121823D02*
Y137177D01*
X222366Y121823D02*
X230634D01*
X222366Y137177D02*
X230634D01*
X289923Y164566D02*
X305277D01*
X289923Y172834D02*
X305277D01*
Y164566D02*
Y172834D01*
X289923Y164566D02*
Y172834D01*
X278323Y115366D02*
X293677D01*
X278323Y123634D02*
X293677D01*
Y115366D02*
Y123634D01*
X278323Y115366D02*
Y123634D01*
X306177Y232366D02*
Y240634D01*
X290823Y232366D02*
Y240634D01*
Y232366D02*
X306177D01*
X290823Y240634D02*
X306177D01*
X109366Y254323D02*
Y269677D01*
X117634Y254323D02*
Y269677D01*
X109366Y254323D02*
X117634D01*
X109366Y269677D02*
X117634D01*
X145366Y269677D02*
X153634D01*
X145366Y254323D02*
X153634D01*
Y269677D01*
X145366Y254323D02*
Y269677D01*
X130823Y186563D02*
X146177D01*
X130823Y194437D02*
X146177D01*
Y186563D02*
Y194437D01*
X130823Y186563D02*
Y194437D01*
X87063Y163823D02*
Y179177D01*
X94937Y163823D02*
Y179177D01*
X87063Y163823D02*
X94937D01*
X87063Y179177D02*
X94937D01*
X105823Y175854D02*
X121177D01*
X105823Y145146D02*
X121177D01*
Y175854D01*
X105823Y145146D02*
Y175854D01*
X113134Y215823D02*
Y231177D01*
X104866Y215823D02*
Y231177D01*
X113134D01*
X104866Y215823D02*
X113134D01*
X98937Y215823D02*
Y231177D01*
X91063Y215823D02*
Y231177D01*
X98937D01*
X91063Y215823D02*
X98937D01*
X146823Y186563D02*
X162177D01*
X146823Y194437D02*
X162177D01*
Y186563D02*
Y194437D01*
X146823Y186563D02*
Y194437D01*
X87063Y145768D02*
Y161122D01*
X94937Y145768D02*
Y161122D01*
X87063Y145768D02*
X94937D01*
X87063Y161122D02*
X94937D01*
X177937Y208823D02*
Y224177D01*
X170063Y208823D02*
Y224177D01*
X177937D01*
X170063Y208823D02*
X177937D01*
M02*
