G04*
G04 #@! TF.GenerationSoftware,Altium Limited,Altium Designer,19.0.14 (431)*
G04*
G04 Layer_Color=65535*
%FSLAX25Y25*%
%MOIN*%
G70*
G01*
G75*
%ADD10C,0.00787*%
%ADD11C,0.00984*%
%ADD12C,0.00500*%
%ADD13C,0.00394*%
%ADD14C,0.01000*%
%ADD15C,0.00000*%
%ADD16C,0.02362*%
%ADD17C,0.00700*%
%ADD18C,0.00781*%
D10*
X276028Y199284D02*
G03*
X276028Y199284I-394J0D01*
G01*
X259299Y80819D02*
G03*
X259299Y80819I-394J0D01*
G01*
X123977Y265634D02*
G03*
X123977Y265634I-623J0D01*
G01*
X198047Y108043D02*
Y110602D01*
X201051D01*
X198047Y98398D02*
Y100957D01*
Y98398D02*
X201051D01*
X257500Y7500D02*
X277500D01*
Y17500D01*
X257500D02*
X277500D01*
X257500Y7500D02*
Y17500D01*
X97311Y82016D02*
X110500D01*
Y62724D02*
Y82016D01*
X97311Y62724D02*
X110500D01*
X97311D02*
Y82016D01*
X89988Y85008D02*
X95894D01*
X107299Y105315D02*
Y121063D01*
X119701Y105315D02*
Y121063D01*
X141543Y26158D02*
Y45842D01*
X134457Y26158D02*
Y45842D01*
Y26158D02*
X141543D01*
X134457Y45842D02*
X141543D01*
X142937Y111972D02*
X146874D01*
X142937Y99768D02*
X146874D01*
X142937D02*
Y111972D01*
X146874Y99768D02*
Y111972D01*
X211957Y130122D02*
Y132878D01*
X219043Y130122D02*
Y132878D01*
X141532Y171602D02*
X145468D01*
X141532Y159398D02*
X145468D01*
X141532D02*
Y171602D01*
X145468Y159398D02*
Y171602D01*
X94906Y206646D02*
X108095D01*
Y187354D02*
Y206646D01*
X94906Y187354D02*
X108095D01*
X94906D02*
Y206646D01*
X87583Y209638D02*
X93488D01*
X131457Y237343D02*
X138543D01*
X131457Y217657D02*
X138543D01*
X131457D02*
Y237343D01*
X138543Y217657D02*
Y237343D01*
X242390Y131390D02*
Y167610D01*
X278610Y131390D02*
Y167610D01*
X242390Y131390D02*
X278610D01*
X242390Y167610D02*
X278610D01*
X329500Y281500D02*
Y291500D01*
X289500Y281500D02*
X329500D01*
X289500Y291500D02*
X329500D01*
X289500Y281500D02*
Y291500D01*
X360500Y56000D02*
Y126000D01*
Y56000D02*
X370500D01*
Y126000D01*
X360500D02*
X370500D01*
X89350Y268650D02*
X95650D01*
X89350Y262351D02*
X95650D01*
X166347Y270319D02*
Y272681D01*
X159653Y270319D02*
Y272681D01*
X119701Y152626D02*
Y168374D01*
X107299Y152626D02*
Y168374D01*
D11*
X205823Y96626D02*
G03*
X205823Y96626I-492J0D01*
G01*
X147941Y25153D02*
G03*
X147941Y25153I-492J0D01*
G01*
X139591Y113055D02*
G03*
X139591Y113055I-492J0D01*
G01*
X138185Y172685D02*
G03*
X138185Y172685I-492J0D01*
G01*
X144941Y216653D02*
G03*
X144941Y216653I-492J0D01*
G01*
X278512Y171744D02*
G03*
X278512Y171744I-492J0D01*
G01*
X86545Y260579D02*
G03*
X86545Y260579I-492J0D01*
G01*
D12*
X206176Y137000D02*
G03*
X206176Y137000I-24019J0D01*
G01*
X221251Y239424D02*
Y268922D01*
X261749Y239424D02*
Y268922D01*
X248945Y84480D02*
Y86055D01*
X249654D01*
X248945Y77945D02*
Y79520D01*
Y77945D02*
X249654D01*
X256347D02*
X257055D01*
Y79520D01*
Y84480D02*
Y86055D01*
X256347D02*
X257055D01*
X129535Y255476D02*
X136465D01*
X129535Y267524D02*
X136465D01*
D13*
X100079Y280252D02*
G03*
X100079Y280252I-197J0D01*
G01*
X295945Y52382D02*
G03*
X295945Y52382I-197J0D01*
G01*
X265201Y191213D02*
Y192787D01*
X270319Y196921D02*
X272681D01*
X277799Y191213D02*
Y192787D01*
X270319Y187079D02*
X272681D01*
D14*
X19291Y11811D02*
G03*
X19291Y11811I-7480J0D01*
G01*
X19480Y287500D02*
G03*
X19480Y287500I-7480J0D01*
G01*
X309917Y263342D02*
G03*
X309917Y263342I-394J0D01*
G01*
X201370Y54658D02*
G03*
X201370Y54658I-394J0D01*
G01*
X373622Y11811D02*
G03*
X373622Y11811I-7480J0D01*
G01*
X373480Y287500D02*
G03*
X373480Y287500I-7480J0D01*
G01*
X15000Y34000D02*
X70000D01*
Y141000D01*
X15000D02*
X70000D01*
X15000Y34000D02*
Y141000D01*
Y158000D02*
X70000D01*
Y265000D01*
X15000D02*
X70000D01*
X15000Y158000D02*
Y265000D01*
X357412Y155751D02*
Y156736D01*
X355443Y157720D02*
Y158704D01*
X351506D02*
X355443D01*
X351506Y140988D02*
X355443D01*
Y141972D01*
X344617Y140988D02*
X347569D01*
X344617D02*
Y141972D01*
Y157720D02*
Y158704D01*
X347569D01*
X307555Y249563D02*
Y257437D01*
X294169Y244445D02*
X302831D01*
X289445Y249563D02*
Y257437D01*
X294169Y262555D02*
X302831D01*
X207669Y55445D02*
X216331D01*
X221055Y60563D02*
Y68437D01*
X207669Y73555D02*
X216331D01*
X202945Y60563D02*
Y68437D01*
X6000Y73000D02*
X11998D01*
X9999Y71001D01*
X11998Y69001D01*
X6000D01*
X9999Y66002D02*
Y64003D01*
X8999Y63003D01*
X6000D01*
Y66002D01*
X7000Y67002D01*
X7999Y66002D01*
Y63003D01*
X6000Y61004D02*
Y59004D01*
Y60004D01*
X9999D01*
Y61004D01*
X6000Y56006D02*
X9999D01*
Y53007D01*
X8999Y52007D01*
X6000D01*
X6500Y124000D02*
X12498D01*
Y121001D01*
X11498Y120001D01*
X9499D01*
X8499Y121001D01*
Y124000D01*
X10499Y118002D02*
X7500D01*
X6500Y117002D01*
Y114003D01*
X5500D01*
X4501Y115003D01*
Y116003D01*
X6500Y114003D02*
X10499D01*
Y112004D02*
X6500D01*
X8499D01*
X9499Y111004D01*
X10499Y110004D01*
Y109005D01*
X6500Y105006D02*
Y103007D01*
X7500Y102007D01*
X9499D01*
X10499Y103007D01*
Y105006D01*
X9499Y106006D01*
X7500D01*
X6500Y105006D01*
X11498Y203000D02*
X5500D01*
Y200001D01*
X6500Y199001D01*
X10498D01*
X11498Y200001D01*
Y203000D01*
X9499Y197002D02*
X5500D01*
X7499D01*
X8499Y196002D01*
X9499Y195003D01*
Y194003D01*
X5500Y190004D02*
Y188005D01*
X6500Y187005D01*
X8499D01*
X9499Y188005D01*
Y190004D01*
X8499Y191004D01*
X6500D01*
X5500Y190004D01*
X3501Y183007D02*
Y182007D01*
X4500Y181007D01*
X9499D01*
Y184006D01*
X8499Y185006D01*
X6500D01*
X5500Y184006D01*
Y181007D01*
X9499Y179008D02*
X6500D01*
X5500Y178008D01*
Y175009D01*
X9499D01*
X5500Y170011D02*
Y172010D01*
X6500Y173010D01*
X8499D01*
X9499Y172010D01*
Y170011D01*
X8499Y169011D01*
X7499D01*
Y173010D01*
X10498Y246501D02*
X11498Y247501D01*
Y249500D01*
X10498Y250500D01*
X6500D01*
X5500Y249500D01*
Y247501D01*
X6500Y246501D01*
X5500Y243502D02*
Y241503D01*
X6500Y240503D01*
X8499D01*
X9499Y241503D01*
Y243502D01*
X8499Y244502D01*
X6500D01*
X5500Y243502D01*
Y238504D02*
X9499D01*
Y237504D01*
X8499Y236505D01*
X5500D01*
X8499D01*
X9499Y235505D01*
X8499Y234505D01*
X5500D01*
X3501Y232506D02*
X9499D01*
Y229507D01*
X8499Y228507D01*
X6500D01*
X5500Y229507D01*
Y232506D01*
D15*
X262071Y280532D02*
G03*
X262071Y280532I-787J0D01*
G01*
D16*
X275854Y163673D02*
G03*
X275854Y163673I-1181J0D01*
G01*
D17*
X180200Y220800D02*
X184199D01*
Y218801D01*
X183532Y218134D01*
X182199D01*
X181533Y218801D01*
Y220800D01*
Y219467D02*
X180200Y218134D01*
Y216801D02*
Y215468D01*
Y216135D01*
X184199D01*
X183532Y216801D01*
X180200Y211470D02*
X184199D01*
X182199Y213469D01*
Y210803D01*
X7501Y223000D02*
Y225666D01*
X8001Y94500D02*
Y97166D01*
X264899Y26500D02*
Y23834D01*
Y25167D01*
X260900D01*
X263566Y22501D02*
X260900Y19836D01*
X262233Y21168D01*
X263566Y19836D01*
X260900Y22501D01*
X6500Y257499D02*
X9166D01*
X7833Y258832D02*
Y256166D01*
X8000Y132999D02*
X10666D01*
X9333Y134332D02*
Y131667D01*
X186000Y166999D02*
Y163000D01*
X187999D01*
X188666Y163666D01*
Y164333D01*
X187999Y164999D01*
X186000D01*
X187999D01*
X188666Y165666D01*
Y166332D01*
X187999Y166999D01*
X186000D01*
X189999Y165666D02*
Y163666D01*
X190665Y163000D01*
X192665D01*
Y165666D01*
X193997D02*
X196663D01*
X193997Y163000D01*
X196663D01*
X197996Y165666D02*
X200662D01*
X197996Y163000D01*
X200662D01*
X73800Y41600D02*
X77799D01*
Y39601D01*
X77132Y38934D01*
X75799D01*
X75133Y39601D01*
Y41600D01*
X77799Y34936D02*
Y37601D01*
X75799D01*
X76466Y36268D01*
Y35602D01*
X75799Y34936D01*
X74466D01*
X73800Y35602D01*
Y36935D01*
X74466Y37601D01*
X73400Y164600D02*
X77399D01*
Y162601D01*
X76732Y161934D01*
X75399D01*
X74733Y162601D01*
Y164600D01*
X73400Y158602D02*
X77399D01*
X75399Y160601D01*
Y157936D01*
X277499Y185000D02*
X276832D01*
X275499Y183667D01*
X276832Y182334D01*
X277499D01*
X275499Y183667D02*
X273500D01*
Y181001D02*
Y179668D01*
Y180335D01*
X277499D01*
X276832Y181001D01*
X272145Y212742D02*
Y216741D01*
X274144D01*
X274811Y216075D01*
Y214742D01*
X274144Y214075D01*
X272145D01*
X273478D02*
X274811Y212742D01*
X276144Y216075D02*
X276810Y216741D01*
X278143D01*
X278809Y216075D01*
Y215408D01*
X278143Y214742D01*
X277477D01*
X278143D01*
X278809Y214075D01*
Y213409D01*
X278143Y212742D01*
X276810D01*
X276144Y213409D01*
X282142Y212742D02*
Y216741D01*
X280142Y214742D01*
X282808D01*
X234602Y229957D02*
X238601D01*
Y227957D01*
X237935Y227291D01*
X236602D01*
X235935Y227957D01*
Y229957D01*
Y228624D02*
X234602Y227291D01*
Y223292D02*
Y225958D01*
X237268Y223292D01*
X237935D01*
X238601Y223959D01*
Y225291D01*
X237935Y225958D01*
X297666Y196832D02*
X296999Y197499D01*
X295666D01*
X295000Y196832D01*
Y194167D01*
X295666Y193500D01*
X296999D01*
X297666Y194167D01*
X298999Y196832D02*
X299665Y197499D01*
X300998D01*
X301664Y196832D01*
Y196166D01*
X300998Y195499D01*
X300332D01*
X300998D01*
X301664Y194833D01*
Y194167D01*
X300998Y193500D01*
X299665D01*
X298999Y194167D01*
X221500Y110000D02*
X225499D01*
Y108001D01*
X224832Y107334D01*
X223499D01*
X222833Y108001D01*
Y110000D01*
Y108667D02*
X221500Y107334D01*
X224832Y106001D02*
X225499Y105335D01*
Y104002D01*
X224832Y103335D01*
X224166D01*
X223499Y104002D01*
Y104668D01*
Y104002D01*
X222833Y103335D01*
X222166D01*
X221500Y104002D01*
Y105335D01*
X222166Y106001D01*
X224832Y102003D02*
X225499Y101336D01*
Y100003D01*
X224832Y99337D01*
X224166D01*
X223499Y100003D01*
Y100670D01*
Y100003D01*
X222833Y99337D01*
X222166D01*
X221500Y100003D01*
Y101336D01*
X222166Y102003D01*
X170000Y108000D02*
X173999D01*
Y106001D01*
X173332Y105334D01*
X171999D01*
X171333Y106001D01*
Y108000D01*
Y106667D02*
X170000Y105334D01*
X173332Y104001D02*
X173999Y103335D01*
Y102002D01*
X173332Y101336D01*
X172666D01*
X171999Y102002D01*
Y102668D01*
Y102002D01*
X171333Y101336D01*
X170667D01*
X170000Y102002D01*
Y103335D01*
X170667Y104001D01*
X170000Y97337D02*
Y100003D01*
X172666Y97337D01*
X173332D01*
X173999Y98003D01*
Y99336D01*
X173332Y100003D01*
X194667Y93834D02*
X197332D01*
X197999Y94501D01*
Y95834D01*
X197332Y96500D01*
X194667D01*
X194000Y95834D01*
Y94501D01*
X195333Y95167D02*
X194000Y93834D01*
Y94501D02*
X194667Y93834D01*
X194000Y92501D02*
Y91168D01*
Y91835D01*
X197999D01*
X197332Y92501D01*
X100500Y126189D02*
X104499D01*
Y124189D01*
X103832Y123523D01*
X102499D01*
X101833Y124189D01*
Y126189D01*
Y124856D02*
X100500Y123523D01*
Y122190D02*
Y120191D01*
X101166Y119524D01*
X101833Y120191D01*
Y121524D01*
X102499Y122190D01*
X103166Y121524D01*
Y119524D01*
X100500Y116192D02*
Y117525D01*
X101166Y118192D01*
X102499D01*
X103166Y117525D01*
Y116192D01*
X102499Y115526D01*
X101833D01*
Y118192D01*
X100500Y114193D02*
X103166D01*
Y112193D01*
X102499Y111527D01*
X100500D01*
Y110194D02*
Y108195D01*
X101166Y107528D01*
X101833Y108195D01*
Y109528D01*
X102499Y110194D01*
X103166Y109528D01*
Y107528D01*
X100500Y104196D02*
Y105529D01*
X101166Y106195D01*
X102499D01*
X103166Y105529D01*
Y104196D01*
X102499Y103530D01*
X101833D01*
Y106195D01*
X100500Y99531D02*
Y102197D01*
X103166Y99531D01*
X103832D01*
X104499Y100197D01*
Y101530D01*
X103832Y102197D01*
X125305Y89070D02*
Y93069D01*
X127305D01*
X127971Y92402D01*
Y91069D01*
X127305Y90403D01*
X125305D01*
X126638D02*
X127971Y89070D01*
X129304Y92402D02*
X129971Y93069D01*
X131304D01*
X131970Y92402D01*
Y91736D01*
X131304Y91069D01*
X130637D01*
X131304D01*
X131970Y90403D01*
Y89736D01*
X131304Y89070D01*
X129971D01*
X129304Y89736D01*
X133303Y89070D02*
X134636D01*
X133969D01*
Y93069D01*
X133303Y92402D01*
X81406Y105870D02*
X85404D01*
Y103871D01*
X84738Y103204D01*
X83405D01*
X82738Y103871D01*
Y105870D01*
Y104537D02*
X81406Y103204D01*
X84738Y101871D02*
X85404Y101205D01*
Y99872D01*
X84738Y99206D01*
X84071D01*
X83405Y99872D01*
Y100539D01*
Y99872D01*
X82738Y99206D01*
X82072D01*
X81406Y99872D01*
Y101205D01*
X82072Y101871D01*
X84738Y97873D02*
X85404Y97206D01*
Y95873D01*
X84738Y95207D01*
X82072D01*
X81406Y95873D01*
Y97206D01*
X82072Y97873D01*
X84738D01*
X202000Y39500D02*
X205999D01*
Y37501D01*
X205332Y36834D01*
X203999D01*
X203333Y37501D01*
Y39500D01*
Y38167D02*
X202000Y36834D01*
Y32836D02*
Y35501D01*
X204666Y32836D01*
X205332D01*
X205999Y33502D01*
Y34835D01*
X205332Y35501D01*
X202666Y31503D02*
X202000Y30836D01*
Y29503D01*
X202666Y28837D01*
X205332D01*
X205999Y29503D01*
Y30836D01*
X205332Y31503D01*
X204666D01*
X203999Y30836D01*
Y28837D01*
X152500Y91500D02*
X156499D01*
Y89501D01*
X155832Y88834D01*
X154499D01*
X153833Y89501D01*
Y91500D01*
Y90167D02*
X152500Y88834D01*
Y84835D02*
Y87501D01*
X155166Y84835D01*
X155832D01*
X156499Y85502D01*
Y86835D01*
X155832Y87501D01*
Y83503D02*
X156499Y82836D01*
Y81503D01*
X155832Y80837D01*
X155166D01*
X154499Y81503D01*
X153833Y80837D01*
X153166D01*
X152500Y81503D01*
Y82836D01*
X153166Y83503D01*
X153833D01*
X154499Y82836D01*
X155166Y83503D01*
X155832D01*
X154499Y82836D02*
Y81503D01*
X97500Y51100D02*
X101499D01*
Y49101D01*
X100832Y48434D01*
X99499D01*
X98833Y49101D01*
Y51100D01*
Y49767D02*
X97500Y48434D01*
Y44436D02*
Y47101D01*
X100166Y44436D01*
X100832D01*
X101499Y45102D01*
Y46435D01*
X100832Y47101D01*
X101499Y43103D02*
Y40437D01*
X100832D01*
X98166Y43103D01*
X97500D01*
X82000Y125500D02*
X85999D01*
Y123501D01*
X85332Y122834D01*
X83999D01*
X83333Y123501D01*
Y125500D01*
Y124167D02*
X82000Y122834D01*
Y118835D02*
Y121501D01*
X84666Y118835D01*
X85332D01*
X85999Y119502D01*
Y120835D01*
X85332Y121501D01*
X85999Y114837D02*
X85332Y116170D01*
X83999Y117503D01*
X82666D01*
X82000Y116836D01*
Y115503D01*
X82666Y114837D01*
X83333D01*
X83999Y115503D01*
Y117503D01*
X170000Y90000D02*
X173999D01*
Y88001D01*
X173332Y87334D01*
X171999D01*
X171333Y88001D01*
Y90000D01*
Y88667D02*
X170000Y87334D01*
Y83336D02*
Y86001D01*
X172666Y83336D01*
X173332D01*
X173999Y84002D01*
Y85335D01*
X173332Y86001D01*
X173999Y79337D02*
Y82003D01*
X171999D01*
X172666Y80670D01*
Y80003D01*
X171999Y79337D01*
X170667D01*
X170000Y80003D01*
Y81336D01*
X170667Y82003D01*
X164187Y52998D02*
Y56996D01*
X166187D01*
X166853Y56330D01*
Y54997D01*
X166187Y54330D01*
X164187D01*
X165520D02*
X166853Y52998D01*
X170852D02*
X168186D01*
X170852Y55663D01*
Y56330D01*
X170185Y56996D01*
X168853D01*
X168186Y56330D01*
X174184Y52998D02*
Y56996D01*
X172185Y54997D01*
X174851D01*
X182500Y47500D02*
X186499D01*
Y45501D01*
X185832Y44834D01*
X184499D01*
X183833Y45501D01*
Y47500D01*
Y46167D02*
X182500Y44834D01*
Y40835D02*
Y43501D01*
X185166Y40835D01*
X185832D01*
X186499Y41502D01*
Y42835D01*
X185832Y43501D01*
Y39503D02*
X186499Y38836D01*
Y37503D01*
X185832Y36837D01*
X185166D01*
X184499Y37503D01*
Y38170D01*
Y37503D01*
X183833Y36837D01*
X183167D01*
X182500Y37503D01*
Y38836D01*
X183167Y39503D01*
X98571Y59869D02*
X95906D01*
Y57869D01*
X97238D01*
X95906D01*
Y55870D01*
X102570Y59869D02*
X99904D01*
Y55870D01*
X102570D01*
X99904Y57869D02*
X101237D01*
X103903Y59869D02*
X106569D01*
X105236D01*
Y55870D01*
X110567D02*
X107902D01*
X110567Y58536D01*
Y59202D01*
X109901Y59869D01*
X108568D01*
X107902Y59202D01*
X123845Y53841D02*
Y49843D01*
X125844D01*
X126511Y50509D01*
Y53175D01*
X125844Y53841D01*
X123845D01*
X127844Y52508D02*
Y49843D01*
Y51175D01*
X128510Y51842D01*
X129176Y52508D01*
X129843D01*
X131842Y49843D02*
X133175D01*
X132509D01*
Y52508D01*
X131842D01*
X135175D02*
X136507Y49843D01*
X137840Y52508D01*
X141173Y49843D02*
X139840D01*
X139173Y50509D01*
Y51842D01*
X139840Y52508D01*
X141173D01*
X141839Y51842D01*
Y51175D01*
X139173D01*
X143172Y52508D02*
Y49843D01*
Y51175D01*
X143838Y51842D01*
X144505Y52508D01*
X145171D01*
X149837Y49843D02*
X147171D01*
X149837Y52508D01*
Y53175D01*
X149170Y53841D01*
X147837D01*
X147171Y53175D01*
X138116Y121445D02*
X137450Y122111D01*
X136117D01*
X135450Y121445D01*
Y118779D01*
X136117Y118113D01*
X137450D01*
X138116Y118779D01*
X140116Y118113D02*
X141448D01*
X142115Y118779D01*
Y120112D01*
X141448Y120778D01*
X140116D01*
X139449Y120112D01*
Y118779D01*
X140116Y118113D01*
X143448D02*
Y120778D01*
X144114D01*
X144781Y120112D01*
Y118113D01*
Y120112D01*
X145447Y120778D01*
X146114Y120112D01*
Y118113D01*
X147447Y116780D02*
Y120778D01*
X149446D01*
X150112Y120112D01*
Y118779D01*
X149446Y118113D01*
X147447D01*
X154111D02*
X151445D01*
X154111Y120778D01*
Y121445D01*
X153445Y122111D01*
X152112D01*
X151445Y121445D01*
X100332Y32834D02*
X100999Y33501D01*
Y34834D01*
X100332Y35500D01*
X97666D01*
X97000Y34834D01*
Y33501D01*
X97666Y32834D01*
X97000Y28835D02*
Y31501D01*
X99666Y28835D01*
X100332D01*
X100999Y29502D01*
Y30835D01*
X100332Y31501D01*
Y27503D02*
X100999Y26836D01*
Y25503D01*
X100332Y24837D01*
X99666D01*
X98999Y25503D01*
Y26170D01*
Y25503D01*
X98333Y24837D01*
X97666D01*
X97000Y25503D01*
Y26836D01*
X97666Y27503D01*
X209132Y124134D02*
X209799Y124801D01*
Y126134D01*
X209132Y126800D01*
X206466D01*
X205800Y126134D01*
Y124801D01*
X206466Y124134D01*
X209799Y122801D02*
Y120135D01*
X209132D01*
X206466Y122801D01*
X205800D01*
X137666Y155832D02*
X136999Y156499D01*
X135667D01*
X135000Y155832D01*
Y153166D01*
X135667Y152500D01*
X136999D01*
X137666Y153166D01*
X139665Y152500D02*
X140998D01*
X141665Y153166D01*
Y154499D01*
X140998Y155166D01*
X139665D01*
X138999Y154499D01*
Y153166D01*
X139665Y152500D01*
X142997D02*
Y155166D01*
X143664D01*
X144330Y154499D01*
Y152500D01*
Y154499D01*
X144997Y155166D01*
X145663Y154499D01*
Y152500D01*
X146996Y151167D02*
Y155166D01*
X148995D01*
X149662Y154499D01*
Y153166D01*
X148995Y152500D01*
X146996D01*
X150995D02*
X152328D01*
X151661D01*
Y156499D01*
X150995Y155832D01*
X158500Y238500D02*
X162499D01*
Y236501D01*
X161832Y235834D01*
X160499D01*
X159833Y236501D01*
Y238500D01*
Y237167D02*
X158500Y235834D01*
Y234501D02*
Y233168D01*
Y233835D01*
X162499D01*
X161832Y234501D01*
X159167Y231169D02*
X158500Y230503D01*
Y229170D01*
X159167Y228503D01*
X161832D01*
X162499Y229170D01*
Y230503D01*
X161832Y231169D01*
X161166D01*
X160499Y230503D01*
Y228503D01*
X185900Y238000D02*
X189899D01*
Y236001D01*
X189232Y235334D01*
X187899D01*
X187233Y236001D01*
Y238000D01*
Y236667D02*
X185900Y235334D01*
Y234001D02*
Y232668D01*
Y233335D01*
X189899D01*
X189232Y234001D01*
Y230669D02*
X189899Y230003D01*
Y228670D01*
X189232Y228003D01*
X188566D01*
X187899Y228670D01*
X187233Y228003D01*
X186566D01*
X185900Y228670D01*
Y230003D01*
X186566Y230669D01*
X187233D01*
X187899Y230003D01*
X188566Y230669D01*
X189232D01*
X187899Y230003D02*
Y228670D01*
X174400Y185100D02*
X178399D01*
Y183101D01*
X177732Y182434D01*
X176399D01*
X175733Y183101D01*
Y185100D01*
Y183767D02*
X174400Y182434D01*
Y181101D02*
Y179768D01*
Y180435D01*
X178399D01*
X177732Y181101D01*
X178399Y175103D02*
Y177769D01*
X176399D01*
X177066Y176436D01*
Y175770D01*
X176399Y175103D01*
X175066D01*
X174400Y175770D01*
Y177103D01*
X175066Y177769D01*
X124000Y244999D02*
Y241000D01*
X125999D01*
X126666Y241666D01*
Y244332D01*
X125999Y244999D01*
X124000D01*
X127999Y243666D02*
Y241000D01*
Y242333D01*
X128665Y242999D01*
X129332Y243666D01*
X129998D01*
X131997Y241000D02*
X133330D01*
X132664D01*
Y243666D01*
X131997D01*
X135330D02*
X136663Y241000D01*
X137996Y243666D01*
X141328Y241000D02*
X139995D01*
X139328Y241666D01*
Y242999D01*
X139995Y243666D01*
X141328D01*
X141994Y242999D01*
Y242333D01*
X139328D01*
X143327Y243666D02*
Y241000D01*
Y242333D01*
X143994Y242999D01*
X144660Y243666D01*
X145326D01*
X147326Y241000D02*
X148659D01*
X147992D01*
Y244999D01*
X147326Y244332D01*
X23622Y15748D02*
X27621D01*
X26288Y14415D01*
X27621Y13082D01*
X23622D01*
Y9750D02*
X27621D01*
X25621Y11749D01*
Y9083D01*
X23622Y291339D02*
X27621D01*
X26288Y290006D01*
X27621Y288673D01*
X23622D01*
Y287340D02*
Y286007D01*
Y286673D01*
X27621D01*
X26954Y287340D01*
X269499Y249000D02*
X266166D01*
X265500Y248334D01*
Y247001D01*
X266166Y246334D01*
X269499D01*
Y242336D02*
Y245001D01*
X267499D01*
X268166Y243668D01*
Y243002D01*
X267499Y242336D01*
X266166D01*
X265500Y243002D01*
Y244335D01*
X266166Y245001D01*
X266499Y84000D02*
X263166D01*
X262500Y83334D01*
Y82001D01*
X263166Y81334D01*
X266499D01*
X262500Y78002D02*
X266499D01*
X264499Y80001D01*
Y77336D01*
X343645Y166241D02*
Y162909D01*
X344311Y162242D01*
X345644D01*
X346311Y162909D01*
Y166241D01*
X347644Y165575D02*
X348310Y166241D01*
X349643D01*
X350309Y165575D01*
Y164908D01*
X349643Y164242D01*
X348976D01*
X349643D01*
X350309Y163575D01*
Y162909D01*
X349643Y162242D01*
X348310D01*
X347644Y162909D01*
X128118Y274357D02*
Y271025D01*
X128785Y270358D01*
X130117D01*
X130784Y271025D01*
Y274357D01*
X134783Y270358D02*
X132117D01*
X134783Y273024D01*
Y273691D01*
X134116Y274357D01*
X132783D01*
X132117Y273691D01*
X280800Y175199D02*
Y171867D01*
X281466Y171200D01*
X282799D01*
X283466Y171867D01*
Y175199D01*
X284799Y171200D02*
X286132D01*
X285465D01*
Y175199D01*
X284799Y174532D01*
X300332Y269334D02*
X300999Y270001D01*
Y271334D01*
X300332Y272000D01*
X299666D01*
X298999Y271334D01*
Y270001D01*
X298333Y269334D01*
X297666D01*
X297000Y270001D01*
Y271334D01*
X297666Y272000D01*
X297000Y265335D02*
Y268001D01*
X299666Y265335D01*
X300332D01*
X300999Y266002D01*
Y267335D01*
X300332Y268001D01*
X199332Y63334D02*
X199999Y64001D01*
Y65334D01*
X199332Y66000D01*
X198666D01*
X197999Y65334D01*
Y64001D01*
X197333Y63334D01*
X196667D01*
X196000Y64001D01*
Y65334D01*
X196667Y66000D01*
X196000Y62001D02*
Y60668D01*
Y61335D01*
X199999D01*
X199332Y62001D01*
X227500Y290500D02*
Y294499D01*
X229499D01*
X230166Y293832D01*
Y292499D01*
X229499Y291833D01*
X227500D01*
X228833D02*
X230166Y290500D01*
X231499D02*
X232832D01*
X232165D01*
Y294499D01*
X231499Y293832D01*
X234831D02*
X235497Y294499D01*
X236830D01*
X237497Y293832D01*
Y293166D01*
X236830Y292499D01*
X236164D01*
X236830D01*
X237497Y291833D01*
Y291166D01*
X236830Y290500D01*
X235497D01*
X234831Y291166D01*
X200000Y212500D02*
X203999D01*
Y210501D01*
X203332Y209834D01*
X201999D01*
X201333Y210501D01*
Y212500D01*
Y211167D02*
X200000Y209834D01*
Y208501D02*
Y207168D01*
Y207835D01*
X203999D01*
X203332Y208501D01*
X200000Y202503D02*
Y205169D01*
X202666Y202503D01*
X203332D01*
X203999Y203170D01*
Y204503D01*
X203332Y205169D01*
X248600Y119100D02*
X252599D01*
Y117101D01*
X251932Y116434D01*
X250599D01*
X249933Y117101D01*
Y119100D01*
Y117767D02*
X248600Y116434D01*
Y115101D02*
Y113768D01*
Y114435D01*
X252599D01*
X251932Y115101D01*
X248600Y111769D02*
Y110436D01*
Y111103D01*
X252599D01*
X251932Y111769D01*
X320500Y138500D02*
Y142499D01*
X322499D01*
X323166Y141832D01*
Y140499D01*
X322499Y139833D01*
X320500D01*
X321833D02*
X323166Y138500D01*
X324499D02*
X325832D01*
X325165D01*
Y142499D01*
X324499Y141832D01*
X327831D02*
X328497Y142499D01*
X329830D01*
X330497Y141832D01*
Y139166D01*
X329830Y138500D01*
X328497D01*
X327831Y139166D01*
Y141832D01*
X283500Y71500D02*
X287499D01*
Y69501D01*
X286832Y68834D01*
X285499D01*
X284833Y69501D01*
Y71500D01*
Y70167D02*
X283500Y68834D01*
X284166Y67501D02*
X283500Y66835D01*
Y65502D01*
X284166Y64836D01*
X286832D01*
X287499Y65502D01*
Y66835D01*
X286832Y67501D01*
X286166D01*
X285499Y66835D01*
Y64836D01*
X121500Y288500D02*
Y292499D01*
X123499D01*
X124166Y291832D01*
Y290499D01*
X123499Y289833D01*
X121500D01*
X122833D02*
X124166Y288500D01*
X125499Y291832D02*
X126165Y292499D01*
X127498D01*
X128165Y291832D01*
Y291166D01*
X127498Y290499D01*
X128165Y289833D01*
Y289166D01*
X127498Y288500D01*
X126165D01*
X125499Y289166D01*
Y289833D01*
X126165Y290499D01*
X125499Y291166D01*
Y291832D01*
X126165Y290499D02*
X127498D01*
X298500Y145500D02*
Y149499D01*
X300499D01*
X301166Y148832D01*
Y147499D01*
X300499Y146833D01*
X298500D01*
X299833D02*
X301166Y145500D01*
X302499Y149499D02*
X305165D01*
Y148832D01*
X302499Y146167D01*
Y145500D01*
X322335Y129547D02*
Y133546D01*
X324334D01*
X325000Y132879D01*
Y131547D01*
X324334Y130880D01*
X322335D01*
X323668D02*
X325000Y129547D01*
X328999Y133546D02*
X327666Y132879D01*
X326333Y131547D01*
Y130214D01*
X327000Y129547D01*
X328333D01*
X328999Y130214D01*
Y130880D01*
X328333Y131547D01*
X326333D01*
X312500Y160000D02*
Y163999D01*
X314499D01*
X315166Y163332D01*
Y161999D01*
X314499Y161333D01*
X312500D01*
X313833D02*
X315166Y160000D01*
X319164Y163999D02*
X316499D01*
Y161999D01*
X317832Y162666D01*
X318498D01*
X319164Y161999D01*
Y160667D01*
X318498Y160000D01*
X317165D01*
X316499Y160667D01*
X261000Y107500D02*
X264999D01*
Y105501D01*
X264332Y104834D01*
X262999D01*
X262333Y105501D01*
Y107500D01*
Y106167D02*
X261000Y104834D01*
Y101502D02*
X264999D01*
X262999Y103501D01*
Y100836D01*
X233839Y106315D02*
X237837D01*
Y104316D01*
X237171Y103649D01*
X235838D01*
X235172Y104316D01*
Y106315D01*
Y104982D02*
X233839Y103649D01*
X237171Y102316D02*
X237837Y101650D01*
Y100317D01*
X237171Y99651D01*
X236504D01*
X235838Y100317D01*
Y100983D01*
Y100317D01*
X235172Y99651D01*
X234505D01*
X233839Y100317D01*
Y101650D01*
X234505Y102316D01*
X256700Y217600D02*
X260699D01*
Y215601D01*
X260032Y214934D01*
X258699D01*
X258033Y215601D01*
Y217600D01*
Y216267D02*
X256700Y214934D01*
Y213601D02*
Y212268D01*
Y212935D01*
X260699D01*
X260032Y213601D01*
X307000Y293500D02*
Y297499D01*
X308999D01*
X309666Y296832D01*
Y295499D01*
X308999Y294833D01*
X307000D01*
X310999Y296832D02*
X311665Y297499D01*
X312998D01*
X313665Y296832D01*
Y296166D01*
X312998Y295499D01*
X312332D01*
X312998D01*
X313665Y294833D01*
Y294166D01*
X312998Y293500D01*
X311665D01*
X310999Y294166D01*
X281200Y15800D02*
X285199D01*
Y13801D01*
X284532Y13134D01*
X283199D01*
X282533Y13801D01*
Y15800D01*
X281200Y9136D02*
Y11801D01*
X283866Y9136D01*
X284532D01*
X285199Y9802D01*
Y11135D01*
X284532Y11801D01*
X363500Y52900D02*
X367499D01*
Y50901D01*
X366832Y50234D01*
X365499D01*
X364833Y50901D01*
Y52900D01*
X363500Y48901D02*
Y47568D01*
Y48235D01*
X367499D01*
X366832Y48901D01*
X286999Y48000D02*
X283000D01*
Y46001D01*
X283666Y45334D01*
X286332D01*
X286999Y46001D01*
Y48000D01*
X286332Y44001D02*
X286999Y43335D01*
Y42002D01*
X286332Y41335D01*
X285666D01*
X284999Y42002D01*
Y42668D01*
Y42002D01*
X284333Y41335D01*
X283666D01*
X283000Y42002D01*
Y43335D01*
X283666Y44001D01*
X87499Y295500D02*
X83500D01*
Y293501D01*
X84166Y292834D01*
X86832D01*
X87499Y293501D01*
Y295500D01*
X83500Y288836D02*
Y291501D01*
X86166Y288836D01*
X86832D01*
X87499Y289502D01*
Y290835D01*
X86832Y291501D01*
X90500Y259999D02*
Y256000D01*
X92499D01*
X93166Y256666D01*
Y259332D01*
X92499Y259999D01*
X90500D01*
X94499Y256000D02*
X95832D01*
X95165D01*
Y259999D01*
X94499Y259332D01*
X255666Y293332D02*
X254999Y293999D01*
X253666D01*
X253000Y293332D01*
Y290666D01*
X253666Y290000D01*
X254999D01*
X255666Y290666D01*
X259665Y290000D02*
X256999D01*
X259665Y292666D01*
Y293332D01*
X258998Y293999D01*
X257665D01*
X256999Y293332D01*
X260997Y290000D02*
X262330D01*
X261664D01*
Y293999D01*
X260997Y293332D01*
X246832Y67334D02*
X247499Y68001D01*
Y69334D01*
X246832Y70000D01*
X244166D01*
X243500Y69334D01*
Y68001D01*
X244166Y67334D01*
X243500Y63336D02*
Y66001D01*
X246166Y63336D01*
X246832D01*
X247499Y64002D01*
Y65335D01*
X246832Y66001D01*
Y62003D02*
X247499Y61336D01*
Y60003D01*
X246832Y59337D01*
X244166D01*
X243500Y60003D01*
Y61336D01*
X244166Y62003D01*
X246832D01*
X269332Y69334D02*
X269999Y70001D01*
Y71334D01*
X269332Y72000D01*
X266666D01*
X266000Y71334D01*
Y70001D01*
X266666Y69334D01*
X266000Y68001D02*
Y66668D01*
Y67335D01*
X269999D01*
X269332Y68001D01*
X266666Y64669D02*
X266000Y64003D01*
Y62670D01*
X266666Y62003D01*
X269332D01*
X269999Y62670D01*
Y64003D01*
X269332Y64669D01*
X268666D01*
X267999Y64003D01*
Y62003D01*
X372332Y157734D02*
X372999Y158401D01*
Y159733D01*
X372332Y160400D01*
X369666D01*
X369000Y159733D01*
Y158401D01*
X369666Y157734D01*
X369000Y156401D02*
Y155068D01*
Y155735D01*
X372999D01*
X372332Y156401D01*
Y153069D02*
X372999Y152403D01*
Y151070D01*
X372332Y150403D01*
X371666D01*
X370999Y151070D01*
X370333Y150403D01*
X369666D01*
X369000Y151070D01*
Y152403D01*
X369666Y153069D01*
X370333D01*
X370999Y152403D01*
X371666Y153069D01*
X372332D01*
X370999Y152403D02*
Y151070D01*
X325666Y155332D02*
X324999Y155999D01*
X323666D01*
X323000Y155332D01*
Y152666D01*
X323666Y152000D01*
X324999D01*
X325666Y152666D01*
X326999Y152000D02*
X328332D01*
X327665D01*
Y155999D01*
X326999Y155332D01*
X330331Y155999D02*
X332997D01*
Y155332D01*
X330331Y152666D01*
Y152000D01*
X247332Y201334D02*
X247999Y202001D01*
Y203333D01*
X247332Y204000D01*
X244666D01*
X244000Y203333D01*
Y202001D01*
X244666Y201334D01*
X244000Y200001D02*
Y198668D01*
Y199335D01*
X247999D01*
X247332Y200001D01*
X247999Y194003D02*
X247332Y195336D01*
X245999Y196669D01*
X244666D01*
X244000Y196003D01*
Y194670D01*
X244666Y194003D01*
X245333D01*
X245999Y194670D01*
Y196669D01*
X256832Y202834D02*
X257499Y203501D01*
Y204834D01*
X256832Y205500D01*
X254166D01*
X253500Y204834D01*
Y203501D01*
X254166Y202834D01*
X253500Y201501D02*
Y200168D01*
Y200835D01*
X257499D01*
X256832Y201501D01*
X257499Y195503D02*
Y198169D01*
X255499D01*
X256166Y196836D01*
Y196170D01*
X255499Y195503D01*
X254166D01*
X253500Y196170D01*
Y197503D01*
X254166Y198169D01*
X164332Y256834D02*
X164999Y257501D01*
Y258834D01*
X164332Y259500D01*
X161667D01*
X161000Y258834D01*
Y257501D01*
X161667Y256834D01*
X161000Y255501D02*
Y254168D01*
Y254835D01*
X164999D01*
X164332Y255501D01*
X161000Y250170D02*
X164999D01*
X162999Y252169D01*
Y249503D01*
X295333Y184422D02*
X294666Y185089D01*
X293333D01*
X292667Y184422D01*
Y181756D01*
X293333Y181090D01*
X294666D01*
X295333Y181756D01*
X296666Y181090D02*
X297998D01*
X297332D01*
Y185089D01*
X296666Y184422D01*
X299998D02*
X300664Y185089D01*
X301997D01*
X302664Y184422D01*
Y183756D01*
X301997Y183089D01*
X301331D01*
X301997D01*
X302664Y182423D01*
Y181756D01*
X301997Y181090D01*
X300664D01*
X299998Y181756D01*
X221832Y167834D02*
X222499Y168501D01*
Y169834D01*
X221832Y170500D01*
X219166D01*
X218500Y169834D01*
Y168501D01*
X219166Y167834D01*
X218500Y166501D02*
Y165168D01*
Y165835D01*
X222499D01*
X221832Y166501D01*
X218500Y160503D02*
Y163169D01*
X221166Y160503D01*
X221832D01*
X222499Y161170D01*
Y162503D01*
X221832Y163169D01*
X233832Y129834D02*
X234499Y130501D01*
Y131834D01*
X233832Y132500D01*
X231166D01*
X230500Y131834D01*
Y130501D01*
X231166Y129834D01*
X230500Y128501D02*
Y127168D01*
Y127835D01*
X234499D01*
X233832Y128501D01*
X230500Y125169D02*
Y123836D01*
Y124503D01*
X234499D01*
X233832Y125169D01*
X315266Y171032D02*
X314599Y171699D01*
X313266D01*
X312600Y171032D01*
Y168367D01*
X313266Y167700D01*
X314599D01*
X315266Y168367D01*
X316599Y167700D02*
X317932D01*
X317265D01*
Y171699D01*
X316599Y171032D01*
X319931D02*
X320597Y171699D01*
X321930D01*
X322597Y171032D01*
Y168367D01*
X321930Y167700D01*
X320597D01*
X319931Y168367D01*
Y171032D01*
X286166Y127832D02*
X285499Y128499D01*
X284166D01*
X283500Y127832D01*
Y125166D01*
X284166Y124500D01*
X285499D01*
X286166Y125166D01*
X287499D02*
X288165Y124500D01*
X289498D01*
X290164Y125166D01*
Y127832D01*
X289498Y128499D01*
X288165D01*
X287499Y127832D01*
Y127166D01*
X288165Y126499D01*
X290164D01*
X289166Y231332D02*
X288499Y231999D01*
X287166D01*
X286500Y231332D01*
Y228666D01*
X287166Y228000D01*
X288499D01*
X289166Y228666D01*
X293164Y231999D02*
X291832Y231332D01*
X290499Y229999D01*
Y228666D01*
X291165Y228000D01*
X292498D01*
X293164Y228666D01*
Y229333D01*
X292498Y229999D01*
X290499D01*
X115332Y275734D02*
X115999Y276401D01*
Y277734D01*
X115332Y278400D01*
X112666D01*
X112000Y277734D01*
Y276401D01*
X112666Y275734D01*
X112000Y271736D02*
Y274401D01*
X114666Y271736D01*
X115332D01*
X115999Y272402D01*
Y273735D01*
X115332Y274401D01*
X146832Y250834D02*
X147499Y251501D01*
Y252834D01*
X146832Y253500D01*
X144167D01*
X143500Y252834D01*
Y251501D01*
X144167Y250834D01*
X143500Y249501D02*
Y248168D01*
Y248835D01*
X147499D01*
X146832Y249501D01*
X98666Y213999D02*
X96000D01*
Y211999D01*
X97333D01*
X96000D01*
Y210000D01*
X102664Y213999D02*
X99999D01*
Y210000D01*
X102664D01*
X99999Y211999D02*
X101332D01*
X103997Y213999D02*
X106663D01*
X105330D01*
Y210000D01*
X107996D02*
X109329D01*
X108663D01*
Y213999D01*
X107996Y213332D01*
X100500Y172000D02*
X104499D01*
Y170001D01*
X103832Y169334D01*
X102499D01*
X101833Y170001D01*
Y172000D01*
Y170667D02*
X100500Y169334D01*
Y168001D02*
Y166002D01*
X101166Y165336D01*
X101833Y166002D01*
Y167335D01*
X102499Y168001D01*
X103166Y167335D01*
Y165336D01*
X100500Y162003D02*
Y163336D01*
X101166Y164003D01*
X102499D01*
X103166Y163336D01*
Y162003D01*
X102499Y161337D01*
X101833D01*
Y164003D01*
X100500Y160004D02*
X103166D01*
Y158004D01*
X102499Y157338D01*
X100500D01*
Y156005D02*
Y154006D01*
X101166Y153339D01*
X101833Y154006D01*
Y155339D01*
X102499Y156005D01*
X103166Y155339D01*
Y153339D01*
X100500Y150007D02*
Y151340D01*
X101166Y152006D01*
X102499D01*
X103166Y151340D01*
Y150007D01*
X102499Y149341D01*
X101833D01*
Y152006D01*
X100500Y148008D02*
Y146675D01*
Y147341D01*
X104499D01*
X103832Y148008D01*
X86500Y229000D02*
X90499D01*
Y227001D01*
X89832Y226334D01*
X88499D01*
X87833Y227001D01*
Y229000D01*
Y227667D02*
X86500Y226334D01*
Y222336D02*
Y225001D01*
X89166Y222336D01*
X89832D01*
X90499Y223002D01*
Y224335D01*
X89832Y225001D01*
X86500Y218337D02*
Y221003D01*
X89166Y218337D01*
X89832D01*
X90499Y219003D01*
Y220336D01*
X89832Y221003D01*
X135000Y195500D02*
Y199499D01*
X136999D01*
X137666Y198832D01*
Y197499D01*
X136999Y196833D01*
X135000D01*
X136333D02*
X137666Y195500D01*
X141665D02*
X138999D01*
X141665Y198166D01*
Y198832D01*
X140998Y199499D01*
X139665D01*
X138999Y198832D01*
X142997Y195500D02*
X144330D01*
X143664D01*
Y199499D01*
X142997Y198832D01*
X82500Y177500D02*
X86499D01*
Y175501D01*
X85832Y174834D01*
X84499D01*
X83833Y175501D01*
Y177500D01*
Y176167D02*
X82500Y174834D01*
Y170835D02*
Y173501D01*
X85166Y170835D01*
X85832D01*
X86499Y171502D01*
Y172835D01*
X85832Y173501D01*
Y169503D02*
X86499Y168836D01*
Y167503D01*
X85832Y166837D01*
X83166D01*
X82500Y167503D01*
Y168836D01*
X83166Y169503D01*
X85832D01*
X150500Y195500D02*
Y199499D01*
X152499D01*
X153166Y198832D01*
Y197499D01*
X152499Y196833D01*
X150500D01*
X151833D02*
X153166Y195500D01*
X154499D02*
X155832D01*
X155165D01*
Y199499D01*
X154499Y198832D01*
X157831Y199499D02*
X160497D01*
Y198832D01*
X157831Y196167D01*
Y195500D01*
X83500Y159500D02*
X87499D01*
Y157501D01*
X86832Y156834D01*
X85499D01*
X84833Y157501D01*
Y159500D01*
Y158167D02*
X83500Y156834D01*
Y155501D02*
Y154168D01*
Y154835D01*
X87499D01*
X86832Y155501D01*
X87499Y149503D02*
X86832Y150836D01*
X85499Y152169D01*
X84166D01*
X83500Y151503D01*
Y150170D01*
X84166Y149503D01*
X84833D01*
X85499Y150170D01*
Y152169D01*
X103332Y226334D02*
X103999Y227001D01*
Y228334D01*
X103332Y229000D01*
X100666D01*
X100000Y228334D01*
Y227001D01*
X100666Y226334D01*
X100000Y222336D02*
Y225001D01*
X102666Y222336D01*
X103332D01*
X103999Y223002D01*
Y224335D01*
X103332Y225001D01*
X100000Y218337D02*
Y221003D01*
X102666Y218337D01*
X103332D01*
X103999Y219003D01*
Y220336D01*
X103332Y221003D01*
X350394Y15748D02*
X354392D01*
X353060Y14415D01*
X354392Y13082D01*
X350394D01*
X353726Y11749D02*
X354392Y11083D01*
Y9750D01*
X353726Y9083D01*
X353060D01*
X352393Y9750D01*
Y10416D01*
Y9750D01*
X351727Y9083D01*
X351060D01*
X350394Y9750D01*
Y11083D01*
X351060Y11749D01*
X350394Y291339D02*
X354392D01*
X353060Y290006D01*
X354392Y288673D01*
X350394D01*
Y284674D02*
Y287340D01*
X353060Y284674D01*
X353726D01*
X354392Y285340D01*
Y286673D01*
X353726Y287340D01*
D18*
X172704Y148196D02*
X175867D01*
X176921Y148547D01*
X177273Y148899D01*
X177624Y149602D01*
Y150656D01*
X177273Y151359D01*
X176921Y151710D01*
X175867Y152062D01*
X172704D01*
Y144681D01*
X179276Y152062D02*
Y144681D01*
X185391Y152062D02*
X180822D01*
Y144681D01*
X185391D01*
X180822Y148547D02*
X183634D01*
X191541Y152062D02*
X186621Y144681D01*
Y152062D02*
X191541D01*
X186621Y144681D02*
X191541D01*
X195302Y152062D02*
X194599Y151710D01*
X193896Y151007D01*
X193545Y150304D01*
X193193Y149250D01*
Y147493D01*
X193545Y146439D01*
X193896Y145736D01*
X194599Y145033D01*
X195302Y144681D01*
X196708D01*
X197411Y145033D01*
X198113Y145736D01*
X198465Y146439D01*
X198816Y147493D01*
Y149250D01*
X198465Y150304D01*
X198113Y151007D01*
X197411Y151710D01*
X196708Y152062D01*
X195302D01*
M02*
